SplineFontDB: 3.0
FontName: Stardos
FullName: Stardos
FamilyName: Stardos
Weight: Book
Copyright: Copyright (c) 2011 by vernon adams. All rights reserved.
Version: 1.000
ItalicAngle: 0
UnderlinePosition: -103
UnderlineWidth: 102
Ascent: 1638
Descent: 410
sfntRevision: 0x00010000
LayerCount: 2
Layer: 0 1 "Back"  1
Layer: 1 1 "Fore"  0
XUID: [1021 740 1454621373 7139461]
FSType: 0
OS2Version: 2
OS2_WeightWidthSlopeOnly: 0
OS2_UseTypoMetrics: 1
CreationTime: 1307106704
ModificationTime: 1308441454
PfmFamily: 17
TTFWeight: 400
TTFWidth: 5
LineGap: 0
VLineGap: 0
Panose: 2 0 5 3 8 0 0 2 0 3
OS2TypoAscent: 356
OS2TypoAOffset: 1
OS2TypoDescent: -421
OS2TypoDOffset: 1
OS2TypoLinegap: 0
OS2WinAscent: 0
OS2WinAOffset: 1
OS2WinDescent: 0
OS2WinDOffset: 1
HheadAscent: 0
HheadAOffset: 1
HheadDescent: 0
HheadDOffset: 1
OS2SubXSize: 1331
OS2SubYSize: 1229
OS2SubXOff: 0
OS2SubYOff: 154
OS2SupXSize: 1331
OS2SupYSize: 1229
OS2SupXOff: 0
OS2SupYOff: 717
OS2StrikeYSize: 102
OS2StrikeYPos: 512
OS2Vendor: 'newt'
OS2CodePages: 20000001.00000000
OS2UnicodeRanges: 800000af.4000204a.00000000.00000000
Lookup: 258 0 0 "'kern' Horizontal Kerning in Latin lookup 0"  {"'kern' Horizontal Kerning in Latin lookup 0 subtable"  } ['kern' ('DFLT' <'dflt' > 'latn' <'dflt' > ) ]
DEI: 91125
TtTable: prep
PUSHW_2
 2048
 2048
MUL
DUP
PUSHB_1
 10
SWAP
WS
DUP
PUSHB_1
 0
SWAP
WCVTF
PUSHB_1
 14
RCVT
DUP
DUP
PUSHB_1
 40
ADD
FLOOR
DUP
ROLL
NEQ
IF
PUSHB_1
 10
RS
MUL
SWAP
DIV
PUSHB_1
 9
SWAP
WS
PUSHB_4
 5
 4
 3
 2
CALL
PUSHB_4
 5
 10
 3
 2
CALL
PUSHB_4
 11
 16
 3
 2
CALL
ELSE
PUSHB_2
 9
 10
RS
WS
EIF
PUSHB_3
 11
 40
 2
RCVT
GT
WS
PUSHB_4
 5
 10
 4
 2
CALL
EndTTInstrs
TtTable: fpgm
PUSHB_1
 0
FDEF
DUP
ABS
PUSHB_1
 32
ADD
FLOOR
SWAP
PUSHB_1
 0
LT
IF
NEG
EIF
ENDF
PUSHB_1
 1
FDEF
DUP
ABS
DUP
PUSHB_1
 192
LT
PUSHB_1
 4
MINDEX
AND
PUSHB_1
 11
RS
OR
IF
POP
SWAP
POP
ELSE
ROLL
IF
DUP
PUSHB_1
 80
LT
IF
POP
PUSHB_1
 64
EIF
ELSE
DUP
PUSHB_1
 56
LT
IF
POP
PUSHB_1
 56
EIF
EIF
DUP
PUSHB_1
 5
RCVT
SUB
ABS
PUSHB_1
 40
LT
IF
POP

StartChar: .notdef
Encoding: 65536 -1 0
Width: 1153
Flags: W
LayerCount: 2
Fore
SplineSet
0 1434 m 1,0,-1
 1153 1434 l 1,1,-1
 1153 0 l 1,2,-1
 0 0 l 1,3,-1
 0 1434 l 1,0,-1
968 1331 m 1,4,-1
 185 1331 l 1,5,-1
 576 809 l 1,6,-1
 968 1331 l 1,4,-1
1037 195 m 1,7,-1
 1037 1239 l 1,8,-1
 645 717 l 1,9,-1
 1037 195 l 1,7,-1
968 102 m 1,10,-1
 576 625 l 1,11,-1
 185 102 l 1,12,-1
 968 102 l 1,10,-1
115 195 m 1,13,-1
 507 717 l 1,14,-1
 115 1239 l 1,15,-1
 115 195 l 1,13,-1
EndSplineSet
EndChar

StartChar: exclam
Encoding: 33 33 4
Width: 682
Flags: W
LayerCount: 2
Fore
SplineSet
290 428 m 1,0,1
 272 572 272 572 250 697.5 c 128,-1,2
 228 823 228 823 209.5 926 c 128,-1,3
 191 1029 191 1029 178 1107 c 128,-1,4
 165 1185 165 1185 165 1235 c 0,5,6
 165 1283 165 1283 175.5 1323 c 128,-1,7
 186 1363 186 1363 207.5 1391.5 c 128,-1,8
 229 1420 229 1420 262.5 1436 c 128,-1,9
 296 1452 296 1452 341 1452 c 0,10,11
 387 1452 387 1452 420 1436 c 128,-1,12
 453 1420 453 1420 474 1391.5 c 128,-1,13
 495 1363 495 1363 504.5 1323 c 128,-1,14
 514 1283 514 1283 514 1235 c 0,15,16
 514 1185 514 1185 501 1107 c 128,-1,17
 488 1029 488 1029 469.5 926 c 128,-1,18
 451 823 451 823 429.5 697.5 c 128,-1,19
 408 572 408 572 391 428 c 1,20,-1
 290 428 l 1,0,1
175 152 m 0,21,22
 175 189 175 189 187.5 221 c 128,-1,23
 200 253 200 253 222 277 c 128,-1,24
 244 301 244 301 275 314.5 c 128,-1,25
 306 328 306 328 343 328 c 256,26,27
 380 328 380 328 411 314.5 c 128,-1,28
 442 301 442 301 464.5 277 c 128,-1,29
 487 253 487 253 499.5 221 c 128,-1,30
 512 189 512 189 512 152 c 0,31,32
 512 114 512 114 499.5 82 c 128,-1,33
 487 50 487 50 464.5 26 c 128,-1,34
 442 2 442 2 411 -11.5 c 128,-1,35
 380 -25 380 -25 343 -25 c 256,36,37
 306 -25 306 -25 275 -11.5 c 128,-1,38
 244 2 244 2 222 26 c 128,-1,39
 200 50 200 50 187.5 82 c 128,-1,40
 175 114 175 114 175 152 c 0,21,22
EndSplineSet
EndChar

StartChar: quotedbl
Encoding: 34 34 5
Width: 768
Flags: W
LayerCount: 2
Fore
SplineSet
183 1452 m 0,0,1
 216 1452 216 1452 236.5 1440.5 c 128,-1,2
 257 1429 257 1429 268 1411 c 128,-1,3
 279 1393 279 1393 282.5 1372 c 128,-1,4
 286 1351 286 1351 286 1333 c 0,5,6
 286 1215 286 1215 271 1099 c 128,-1,7
 256 983 256 983 245 868 c 0,8,9
 244 862 244 862 240 851.5 c 128,-1,10
 236 841 236 841 228.5 830.5 c 128,-1,11
 221 820 221 820 210 812.5 c 128,-1,12
 199 805 199 805 183 805 c 256,13,14
 167 805 167 805 155.5 812.5 c 128,-1,15
 144 820 144 820 136.5 830.5 c 128,-1,16
 129 841 129 841 125 851.5 c 128,-1,17
 121 862 121 862 120 868 c 0,18,19
 114 924 114 924 114 984 c 128,-1,20
 114 1044 114 1044 112.5 1103 c 128,-1,21
 111 1162 111 1162 104.5 1217.5 c 128,-1,22
 98 1273 98 1273 78 1321 c 0,23,24
 77 1323 77 1323 77 1332 c 0,25,26
 77 1350 77 1350 81 1371 c 128,-1,27
 85 1392 85 1392 96.5 1410 c 128,-1,28
 108 1428 108 1428 128.5 1440 c 128,-1,29
 149 1452 149 1452 183 1452 c 0,0,1
585 1452 m 0,30,31
 618 1452 618 1452 638.5 1440.5 c 128,-1,32
 659 1429 659 1429 670.5 1411 c 128,-1,33
 682 1393 682 1393 685.5 1372 c 128,-1,34
 689 1351 689 1351 689 1333 c 0,35,36
 689 1215 689 1215 675.5 1099 c 128,-1,37
 662 983 662 983 648 868 c 0,38,39
 647 862 647 862 643 851.5 c 128,-1,40
 639 841 639 841 631.5 830.5 c 128,-1,41
 624 820 624 820 612.5 812.5 c 128,-1,42
 601 805 601 805 585 805 c 0,43,44
 568 805 568 805 557 812.5 c 128,-1,45
 546 820 546 820 539 830.5 c 128,-1,46
 532 841 532 841 528.5 851.5 c 128,-1,47
 525 862 525 862 524 868 c 0,48,49
 512 983 512 983 496 1099 c 128,-1,50
 480 1215 480 1215 480 1332 c 0,51,52
 480 1350 480 1350 483.5 1371 c 128,-1,53
 487 1392 487 1392 498.5 1410 c 128,-1,54
 510 1428 510 1428 530.5 1440 c 128,-1,55
 551 1452 551 1452 585 1452 c 0,30,31
EndSplineSet
EndChar

StartChar: numbersign
Encoding: 35 35 6
Width: 1153
Flags: W
LayerCount: 2
Fore
SplineSet
1074 410 m 1,0,-1
 860 410 l 1,1,-1
 796 0 l 1,2,-1
 587 0 l 1,3,-1
 647 410 l 1,4,-1
 424 410 l 1,5,-1
 359 0 l 1,6,-1
 152 0 l 1,7,-1
 214 410 l 1,8,-1
 11 410 l 1,9,-1
 11 584 l 1,10,-1
 244 584 l 1,11,-1
 283 836 l 1,12,-1
 79 836 l 1,13,-1
 79 1010 l 1,14,-1
 311 1010 l 1,15,-1
 373 1421 l 1,16,-1
 583 1421 l 1,17,-1
 521 1010 l 1,18,-1
 745 1010 l 1,19,-1
 809 1421 l 1,20,-1
 1017 1421 l 1,21,-1
 955 1010 l 1,22,-1
 1141 1010 l 1,23,-1
 1141 836 l 1,24,-1
 926 836 l 1,25,-1
 887 584 l 1,26,-1
 1074 584 l 1,27,-1
 1074 410 l 1,0,-1
493 836 m 1,28,-1
 454 584 l 1,29,-1
 677 584 l 1,30,-1
 717 836 l 1,31,-1
 493 836 l 1,28,-1
EndSplineSet
EndChar

StartChar: dollar
Encoding: 36 36 7
Width: 1153
Flags: W
LayerCount: 2
Fore
SplineSet
514 950 m 1,0,-1
 514 1563 l 1,1,-1
 633 1563 l 1,2,-1
 633 907 l 1,3,4
 715 873 715 873 790.5 836.5 c 128,-1,5
 866 800 866 800 924.5 750 c 128,-1,6
 983 700 983 700 1018 630.5 c 128,-1,7
 1053 561 1053 561 1053 461 c 0,8,9
 1053 388 1053 388 1030 320.5 c 128,-1,10
 1007 253 1007 253 964 196 c 128,-1,11
 921 139 921 139 860 96.5 c 128,-1,12
 799 54 799 54 723 31 c 1,13,-1
 722 160 l 1,14,15
 761 189 761 189 783 234.5 c 128,-1,16
 805 280 805 280 805 340 c 0,17,18
 805 385 805 385 794 419.5 c 128,-1,19
 783 454 783 454 761.5 481 c 128,-1,20
 740 508 740 508 708 529.5 c 128,-1,21
 676 551 676 551 633 569 c 1,22,-1
 633 -164 l 1,23,-1
 514 -164 l 1,24,-1
 514 608 l 1,25,26
 449 634 449 634 382.5 667 c 128,-1,27
 316 700 316 700 261.5 747 c 128,-1,28
 207 794 207 794 172.5 860 c 128,-1,29
 138 926 138 926 138 1018 c 0,30,31
 138 1081 138 1081 156 1138.5 c 128,-1,32
 174 1196 174 1196 210 1244.5 c 128,-1,33
 246 1293 246 1293 299.5 1330.5 c 128,-1,34
 353 1368 353 1368 425 1391 c 1,35,-1
 425 1277 l 1,36,37
 395 1251 395 1251 383 1216 c 128,-1,38
 371 1181 371 1181 371 1141 c 0,39,40
 371 1068 371 1068 408 1023.5 c 128,-1,41
 445 979 445 979 514 950 c 1,0,-1
425 15 m 1,42,43
 357 28 357 28 296.5 58.5 c 128,-1,44
 236 89 236 89 190.5 132.5 c 128,-1,45
 145 176 145 176 118.5 229.5 c 128,-1,46
 92 283 92 283 92 342 c 0,47,48
 92 385 92 385 104 417 c 128,-1,49
 116 449 116 449 136 470 c 128,-1,50
 156 491 156 491 181 501 c 128,-1,51
 206 511 206 511 233 511 c 256,52,53
 260 511 260 511 286.5 500.5 c 128,-1,54
 313 490 313 490 333.5 470 c 128,-1,55
 354 450 354 450 366.5 420.5 c 128,-1,56
 379 391 379 391 379 354 c 0,57,58
 379 316 379 316 366 294.5 c 128,-1,59
 353 273 353 273 336 260 c 128,-1,60
 319 247 319 247 302 239 c 128,-1,61
 285 231 285 231 277 221 c 1,62,63
 284 176 284 176 325.5 151 c 128,-1,64
 367 126 367 126 425 116 c 1,65,-1
 425 15 l 1,42,43
722 1406 m 1,66,67
 780 1395 780 1395 829 1371.5 c 128,-1,68
 878 1348 878 1348 913.5 1314.5 c 128,-1,69
 949 1281 949 1281 969 1239 c 128,-1,70
 989 1197 989 1197 989 1149 c 0,71,72
 989 1120 989 1120 980 1094 c 128,-1,73
 971 1068 971 1068 953 1048.5 c 128,-1,74
 935 1029 935 1029 907 1017.5 c 128,-1,75
 879 1006 879 1006 842 1006 c 0,76,77
 806 1006 806 1006 779.5 1016 c 128,-1,78
 753 1026 753 1026 736 1042.5 c 128,-1,79
 719 1059 719 1059 711 1081.5 c 128,-1,80
 703 1104 703 1104 703 1128 c 0,81,82
 703 1150 703 1150 710.5 1169 c 128,-1,83
 718 1188 718 1188 729 1204.5 c 128,-1,84
 740 1221 740 1221 753.5 1235 c 128,-1,85
 767 1249 767 1249 779 1260 c 1,86,87
 772 1280 772 1280 757 1292.5 c 128,-1,88
 742 1305 742 1305 722 1313 c 1,89,-1
 722 1406 l 1,66,67
EndSplineSet
EndChar

StartChar: percent
Encoding: 37 37 8
Width: 1579
Flags: W
LayerCount: 2
Fore
SplineSet
365 -31 m 1,0,-1
 237 -31 l 1,1,-1
 1211 1452 l 1,2,-1
 1339 1452 l 1,3,-1
 365 -31 l 1,0,-1
1148 -11 m 1,4,5
 1078 -3 1078 -3 1026 31.5 c 128,-1,6
 974 66 974 66 939.5 119.5 c 128,-1,7
 905 173 905 173 888 240 c 128,-1,8
 871 307 871 307 871 379 c 256,9,10
 871 451 871 451 888 518 c 128,-1,11
 905 585 905 585 939.5 638 c 128,-1,12
 974 691 974 691 1026 725.5 c 128,-1,13
 1078 760 1078 760 1148 768 c 1,14,-1
 1148 698 l 1,15,16
 1116 670 1116 670 1102.5 591.5 c 128,-1,17
 1089 513 1089 513 1089 381 c 0,18,19
 1089 248 1089 248 1103 169 c 128,-1,20
 1117 90 1117 90 1148 61 c 1,21,-1
 1148 -11 l 1,4,5
1237 61 m 1,22,23
 1268 90 1268 90 1282 169 c 128,-1,24
 1296 248 1296 248 1296 381 c 0,25,26
 1296 513 1296 513 1282.5 591.5 c 128,-1,27
 1269 670 1269 670 1237 698 c 1,28,-1
 1237 768 l 1,29,30
 1307 760 1307 760 1359 725.5 c 128,-1,31
 1411 691 1411 691 1445.5 638 c 128,-1,32
 1480 585 1480 585 1497 518 c 128,-1,33
 1514 451 1514 451 1514 379 c 256,34,35
 1514 307 1514 307 1497 240 c 128,-1,36
 1480 173 1480 173 1445.5 119.5 c 128,-1,37
 1411 66 1411 66 1359 31.5 c 128,-1,38
 1307 -3 1307 -3 1237 -11 c 1,39,-1
 1237 61 l 1,22,23
342 674 m 1,40,41
 272 682 272 682 220 716.5 c 128,-1,42
 168 751 168 751 133.5 804.5 c 128,-1,43
 99 858 99 858 82 925 c 128,-1,44
 65 992 65 992 65 1064 c 256,45,46
 65 1136 65 1136 82 1203 c 128,-1,47
 99 1270 99 1270 133.5 1323 c 128,-1,48
 168 1376 168 1376 220 1410.5 c 128,-1,49
 272 1445 272 1445 342 1453 c 1,50,-1
 342 1383 l 1,51,52
 310 1355 310 1355 296.5 1276.5 c 128,-1,53
 283 1198 283 1198 283 1066 c 0,54,55
 283 933 283 933 297 854 c 128,-1,56
 311 775 311 775 342 746 c 1,57,-1
 342 674 l 1,40,41
431 746 m 1,58,59
 462 775 462 775 476 854 c 128,-1,60
 490 933 490 933 490 1066 c 0,61,62
 490 1198 490 1198 476.5 1276.5 c 128,-1,63
 463 1355 463 1355 431 1383 c 1,64,-1
 431 1453 l 1,65,66
 501 1445 501 1445 553 1410.5 c 128,-1,67
 605 1376 605 1376 639.5 1323 c 128,-1,68
 674 1270 674 1270 691 1203 c 128,-1,69
 708 1136 708 1136 708 1064 c 256,70,71
 708 992 708 992 691 925 c 128,-1,72
 674 858 674 858 639.5 804.5 c 128,-1,73
 605 751 605 751 553 716.5 c 128,-1,74
 501 682 501 682 431 674 c 1,75,-1
 431 746 l 1,58,59
EndSplineSet
EndChar

StartChar: ampersand
Encoding: 38 38 9
Width: 1599
Flags: W
LayerCount: 2
Fore
SplineSet
770 97 m 1,0,1
 812 102 812 102 846.5 124 c 128,-1,2
 881 146 881 146 907 180 c 1,3,4
 853 231 853 231 799 290.5 c 128,-1,5
 745 350 745 350 692.5 414.5 c 128,-1,6
 640 479 640 479 590.5 546 c 128,-1,7
 541 613 541 613 496 680 c 1,8,9
 476 652 476 652 461 623.5 c 128,-1,10
 446 595 446 595 435.5 562 c 128,-1,11
 425 529 425 529 420 490 c 128,-1,12
 415 451 415 451 415 402 c 0,13,14
 415 348 415 348 437 296.5 c 128,-1,15
 459 245 459 245 498 203.5 c 128,-1,16
 537 162 537 162 589 133.5 c 128,-1,17
 641 105 641 105 701 97 c 1,18,-1
 701 -30 l 1,19,20
 693 -30 693 -30 688 -30.5 c 128,-1,21
 683 -31 683 -31 675 -31 c 0,22,23
 544 -31 544 -31 436 -4 c 128,-1,24
 328 23 328 23 251 72.5 c 128,-1,25
 174 122 174 122 131.5 191 c 128,-1,26
 89 260 89 260 89 343 c 0,27,28
 89 417 89 417 115 483.5 c 128,-1,29
 141 550 141 550 187.5 605.5 c 128,-1,30
 234 661 234 661 297 704 c 128,-1,31
 360 747 360 747 434 774 c 1,32,33
 410 813 410 813 390 851 c 128,-1,34
 370 889 370 889 355.5 927 c 128,-1,35
 341 965 341 965 333.5 1005.5 c 128,-1,36
 326 1046 326 1046 326 1090 c 0,37,38
 326 1171 326 1171 353 1236 c 128,-1,39
 380 1301 380 1301 430.5 1347.5 c 128,-1,40
 481 1394 481 1394 552 1420.5 c 128,-1,41
 623 1447 623 1447 711 1452 c 1,42,-1
 711 1324 l 1,43,44
 648 1314 648 1314 617 1277 c 128,-1,45
 586 1240 586 1240 586 1192 c 0,46,47
 586 1123 586 1123 619 1047.5 c 128,-1,48
 652 972 652 972 706 891 c 1,49,50
 799 932 799 932 854 1002.5 c 128,-1,51
 909 1073 909 1073 909 1178 c 0,52,53
 909 1233 909 1233 878 1274 c 128,-1,54
 847 1315 847 1315 780 1324 c 1,55,-1
 780 1452 l 1,56,57
 849 1447 849 1447 909 1424.5 c 128,-1,58
 969 1402 969 1402 1013 1364.5 c 128,-1,59
 1057 1327 1057 1327 1082 1276 c 128,-1,60
 1107 1225 1107 1225 1107 1163 c 0,61,62
 1107 1085 1107 1085 1077 1030.5 c 128,-1,63
 1047 976 1047 976 998 936 c 128,-1,64
 949 896 949 896 887.5 865 c 128,-1,65
 826 834 826 834 763 803 c 1,66,67
 794 758 794 758 834 705 c 128,-1,68
 874 652 874 652 918 598.5 c 128,-1,69
 962 545 962 545 1008 493 c 128,-1,70
 1054 441 1054 441 1098 397 c 1,71,72
 1124 439 1124 439 1140 481 c 128,-1,73
 1156 523 1156 523 1156 574 c 0,74,75
 1156 623 1156 623 1138 645.5 c 128,-1,76
 1120 668 1120 668 1094.5 678 c 128,-1,77
 1069 688 1069 688 1041 692.5 c 128,-1,78
 1013 697 1013 697 994 709 c 1,79,-1
 994 782 l 1,80,-1
 1481 782 l 1,81,-1
 1481 711 l 1,82,83
 1458 701 1458 701 1435.5 695 c 128,-1,84
 1413 689 1413 689 1392.5 678.5 c 128,-1,85
 1372 668 1372 668 1354.5 649 c 128,-1,86
 1337 630 1337 630 1324 594 c 1,87,88
 1314 570 1314 570 1299 536.5 c 128,-1,89
 1284 503 1284 503 1265 464.5 c 128,-1,90
 1246 426 1246 426 1223 386 c 128,-1,91
 1200 346 1200 346 1173 309 c 1,92,93
 1207 274 1207 274 1233 249 c 128,-1,94
 1259 224 1259 224 1281.5 207 c 128,-1,95
 1304 190 1304 190 1323.5 182 c 128,-1,96
 1343 174 1343 174 1364 174 c 0,97,98
 1387 174 1387 174 1403.5 180.5 c 128,-1,99
 1420 187 1420 187 1433 203 c 128,-1,100
 1446 219 1446 219 1456 244 c 128,-1,101
 1466 269 1466 269 1476 307 c 1,102,-1
 1551 274 l 1,103,104
 1519 129 1519 129 1451.5 58.5 c 128,-1,105
 1384 -12 1384 -12 1263 -12 c 0,106,107
 1220 -12 1220 -12 1182 -2.5 c 128,-1,108
 1144 7 1144 7 1110.5 23.5 c 128,-1,109
 1077 40 1077 40 1047.5 62 c 128,-1,110
 1018 84 1018 84 992 109 c 1,111,112
 947 61 947 61 893 26.5 c 128,-1,113
 839 -8 839 -8 770 -22 c 1,114,-1
 770 97 l 1,0,1
EndSplineSet
EndChar

StartChar: quotesingle
Encoding: 39 39 10
Width: 512
Flags: W
LayerCount: 2
Fore
SplineSet
256 1452 m 0,0,1
 288 1452 288 1452 308 1441 c 128,-1,2
 328 1430 328 1430 339.5 1412.5 c 128,-1,3
 351 1395 351 1395 355 1374.5 c 128,-1,4
 359 1354 359 1354 359 1336 c 0,5,6
 359 1218 359 1218 344.5 1101.5 c 128,-1,7
 330 985 330 985 319 868 c 0,8,9
 318 862 318 862 314 851.5 c 128,-1,10
 310 841 310 841 302.5 830.5 c 128,-1,11
 295 820 295 820 283.5 812.5 c 128,-1,12
 272 805 272 805 256 805 c 0,13,14
 239 805 239 805 228 812.5 c 128,-1,15
 217 820 217 820 209.5 830.5 c 128,-1,16
 202 841 202 841 198.5 851.5 c 128,-1,17
 195 862 195 862 194 868 c 0,18,19
 182 983 182 983 166 1099 c 128,-1,20
 150 1215 150 1215 150 1332 c 0,21,22
 150 1350 150 1350 154 1371 c 128,-1,23
 158 1392 158 1392 169.5 1410 c 128,-1,24
 181 1428 181 1428 201.5 1440 c 128,-1,25
 222 1452 222 1452 256 1452 c 0,0,1
EndSplineSet
EndChar

StartChar: parenleft
Encoding: 40 40 11
Width: 1023
Flags: W
LayerCount: 2
Fore
SplineSet
901 1378 m 1,0,1
 778 1354 778 1354 695 1278.5 c 128,-1,2
 612 1203 612 1203 561 1090 c 128,-1,3
 510 977 510 977 488 833.5 c 128,-1,4
 466 690 466 690 466 530 c 0,5,6
 466 369 466 369 486.5 225.5 c 128,-1,7
 507 82 507 82 557 -31 c 128,-1,8
 607 -144 607 -144 690.5 -219.5 c 128,-1,9
 774 -295 774 -295 901 -319 c 1,10,-1
 901 -401 l 1,11,12
 787 -397 787 -397 689.5 -358.5 c 128,-1,13
 592 -320 592 -320 512 -255 c 128,-1,14
 432 -190 432 -190 370 -102 c 128,-1,15
 308 -14 308 -14 266 88 c 128,-1,16
 224 190 224 190 202 302.5 c 128,-1,17
 180 415 180 415 180 530 c 0,18,19
 180 652 180 652 203 766 c 128,-1,20
 226 880 226 880 269.5 980 c 128,-1,21
 313 1080 313 1080 376 1163.5 c 128,-1,22
 439 1247 439 1247 519.5 1309.5 c 128,-1,23
 600 1372 600 1372 696 1411.5 c 128,-1,24
 792 1451 792 1451 901 1462 c 1,25,-1
 901 1378 l 1,0,1
EndSplineSet
EndChar

StartChar: parenright
Encoding: 41 41 12
Width: 1023
Flags: W
LayerCount: 2
Fore
SplineSet
123 1462 m 1,0,1
 236 1457 236 1457 333 1418 c 128,-1,2
 430 1379 430 1379 510 1314 c 128,-1,3
 590 1249 590 1249 652 1162 c 128,-1,4
 714 1075 714 1075 756 973 c 128,-1,5
 798 871 798 871 820 758.5 c 128,-1,6
 842 646 842 646 842 530 c 0,7,8
 842 346 842 346 791 184 c 128,-1,9
 740 22 740 22 646 -102.5 c 128,-1,10
 552 -227 552 -227 419 -305.5 c 128,-1,11
 286 -384 286 -384 123 -401 c 1,12,-1
 123 -319 l 1,13,14
 245 -295 245 -295 328 -219.5 c 128,-1,15
 411 -144 411 -144 461.5 -31 c 128,-1,16
 512 82 512 82 534 225.5 c 128,-1,17
 556 369 556 369 556 530 c 0,18,19
 556 689 556 689 536 832.5 c 128,-1,20
 516 976 516 976 466.5 1089.5 c 128,-1,21
 417 1203 417 1203 333.5 1278.5 c 128,-1,22
 250 1354 250 1354 123 1378 c 1,23,-1
 123 1462 l 1,0,1
EndSplineSet
EndChar

StartChar: asterisk
Encoding: 42 42 13
Width: 1153
Flags: W
LayerCount: 2
Fore
SplineSet
885 1309 m 1,0,1
 927 1284 927 1284 961 1245 c 128,-1,2
 995 1206 995 1206 1014 1161 c 1,3,4
 1000 1141 1000 1141 973.5 1126.5 c 128,-1,5
 947 1112 947 1112 913.5 1100 c 128,-1,6
 880 1088 880 1088 842.5 1079 c 128,-1,7
 805 1070 805 1070 770 1062 c 128,-1,8
 735 1054 735 1054 705 1047 c 128,-1,9
 675 1040 675 1040 657 1032 c 1,10,-1
 657 1024 l 1,11,12
 676 1016 676 1016 706.5 1009 c 128,-1,13
 737 1002 737 1002 772.5 995 c 128,-1,14
 808 988 808 988 845 980 c 128,-1,15
 882 972 882 972 915.5 961.5 c 128,-1,16
 949 951 949 951 976 937 c 128,-1,17
 1003 923 1003 923 1017 905 c 1,18,19
 1001 860 1001 860 968 820 c 128,-1,20
 935 780 935 780 895 756 c 1,21,22
 856 769 856 769 826 794 c 128,-1,23
 796 819 796 819 766.5 850 c 128,-1,24
 737 881 737 881 703 914 c 128,-1,25
 669 947 669 947 623 975 c 1,26,-1
 611 969 l 1,27,28
 616 914 616 914 629 877 c 128,-1,29
 642 840 642 840 656 808.5 c 128,-1,30
 670 777 670 777 681 745.5 c 128,-1,31
 692 714 692 714 692 669 c 0,32,33
 692 650 692 650 689 635 c 1,34,35
 670 624 670 624 645.5 619 c 128,-1,36
 621 614 621 614 597 614 c 0,37,38
 562 614 562 614 527 619 c 128,-1,39
 492 624 492 624 461 635 c 1,40,41
 460 642 460 642 459.5 649 c 128,-1,42
 459 656 459 656 459 664 c 0,43,44
 459 710 459 710 469.5 743 c 128,-1,45
 480 776 480 776 494 807.5 c 128,-1,46
 508 839 508 839 521 876 c 128,-1,47
 534 913 534 913 539 969 c 1,48,-1
 530 975 l 1,49,50
 483 947 483 947 449 914.5 c 128,-1,51
 415 882 415 882 385 851 c 128,-1,52
 355 820 355 820 325 794.5 c 128,-1,53
 295 769 295 769 256 756 c 1,54,55
 218 780 218 780 184.5 820 c 128,-1,56
 151 860 151 860 134 905 c 1,57,58
 148 923 148 923 175 937 c 128,-1,59
 202 951 202 951 235.5 961.5 c 128,-1,60
 269 972 269 972 306 980 c 128,-1,61
 343 988 343 988 378.5 995 c 128,-1,62
 414 1002 414 1002 444 1009 c 128,-1,63
 474 1016 474 1016 493 1024 c 1,64,-1
 493 1032 l 1,65,66
 474 1040 474 1040 444 1047 c 128,-1,67
 414 1054 414 1054 378.5 1062 c 128,-1,68
 343 1070 343 1070 305.5 1079 c 128,-1,69
 268 1088 268 1088 235 1100 c 128,-1,70
 202 1112 202 1112 176 1127 c 128,-1,71
 150 1142 150 1142 139 1161 c 1,72,73
 156 1206 156 1206 190 1245 c 128,-1,74
 224 1284 224 1284 266 1309 c 1,75,76
 304 1295 304 1295 333 1267.5 c 128,-1,77
 362 1240 362 1240 390.5 1207.5 c 128,-1,78
 419 1175 419 1175 451.5 1141 c 128,-1,79
 484 1107 484 1107 530 1079 c 1,80,-1
 539 1087 l 1,81,82
 534 1141 534 1141 522 1179.5 c 128,-1,83
 510 1218 510 1218 496 1250.5 c 128,-1,84
 482 1283 482 1283 469.5 1314.5 c 128,-1,85
 457 1346 457 1346 451 1386 c 1,86,87
 463 1414 463 1414 493.5 1426 c 128,-1,88
 524 1438 524 1438 554 1438 c 0,89,90
 596 1438 596 1438 636.5 1426 c 128,-1,91
 677 1414 677 1414 699 1386 c 1,92,93
 694 1346 694 1346 681.5 1314.5 c 128,-1,94
 669 1283 669 1283 655 1250.5 c 128,-1,95
 641 1218 641 1218 628.5 1179.5 c 128,-1,96
 616 1141 616 1141 611 1087 c 1,97,-1
 623 1079 l 1,98,99
 668 1107 668 1107 700.5 1141 c 128,-1,100
 733 1175 733 1175 761.5 1207.5 c 128,-1,101
 790 1240 790 1240 818.5 1267.5 c 128,-1,102
 847 1295 847 1295 885 1309 c 1,0,1
EndSplineSet
EndChar

StartChar: plus
Encoding: 43 43 14
Width: 1383
Flags: W
LayerCount: 2
Fore
SplineSet
570 981 m 1,0,-1
 812 981 l 1,1,-1
 812 598 l 1,2,-1
 1243 598 l 1,3,-1
 1243 383 l 1,4,-1
 812 383 l 1,5,-1
 812 0 l 1,6,-1
 570 0 l 1,7,-1
 570 383 l 1,8,-1
 139 383 l 1,9,-1
 139 598 l 1,10,-1
 570 598 l 1,11,-1
 570 981 l 1,0,-1
EndSplineSet
EndChar

StartChar: comma
Encoding: 44 44 15
Width: 577
Flags: W
LayerCount: 2
Fore
SplineSet
129 -319 m 1,0,1
 156 -286 156 -286 187.5 -250.5 c 128,-1,2
 219 -215 219 -215 246.5 -178 c 128,-1,3
 274 -141 274 -141 294.5 -101.5 c 128,-1,4
 315 -62 315 -62 321 -20 c 1,5,6
 215 -14 215 -14 163 33.5 c 128,-1,7
 111 81 111 81 111 160 c 0,8,9
 111 194 111 194 123.5 226 c 128,-1,10
 136 258 136 258 158.5 282.5 c 128,-1,11
 181 307 181 307 213 321.5 c 128,-1,12
 245 336 245 336 284 336 c 0,13,14
 332 336 332 336 367.5 317 c 128,-1,15
 403 298 403 298 427 265.5 c 128,-1,16
 451 233 451 233 463 190.5 c 128,-1,17
 475 148 475 148 475 100 c 0,18,19
 475 46 475 46 456 -13 c 128,-1,20
 437 -72 437 -72 402 -133 c 128,-1,21
 367 -194 367 -194 318.5 -257 c 128,-1,22
 270 -320 270 -320 210 -381 c 1,23,-1
 129 -319 l 1,0,1
EndSplineSet
EndChar

StartChar: hyphen
Encoding: 45 45 16
Width: 638
Flags: W
LayerCount: 2
Fore
SplineSet
51 389 m 1,0,-1
 51 590 l 1,1,-1
 587 590 l 1,2,-1
 587 389 l 1,3,-1
 51 389 l 1,0,-1
EndSplineSet
EndChar

StartChar: period
Encoding: 46 46 17
Width: 576
Flags: W
LayerCount: 2
Fore
SplineSet
119 158 m 256,0,1
 119 195 119 195 131.5 227 c 128,-1,2
 144 259 144 259 166.5 283 c 128,-1,3
 189 307 189 307 220 320.5 c 128,-1,4
 251 334 251 334 288 334 c 256,5,6
 325 334 325 334 356 320.5 c 128,-1,7
 387 307 387 307 409.5 283 c 128,-1,8
 432 259 432 259 444.5 227 c 128,-1,9
 457 195 457 195 457 158 c 256,10,11
 457 121 457 121 444.5 89 c 128,-1,12
 432 57 432 57 409.5 33 c 128,-1,13
 387 9 387 9 356 -4.5 c 128,-1,14
 325 -18 325 -18 288 -18 c 256,15,16
 251 -18 251 -18 220 -4.5 c 128,-1,17
 189 9 189 9 166.5 33 c 128,-1,18
 144 57 144 57 131.5 89 c 128,-1,19
 119 121 119 121 119 158 c 256,0,1
EndSplineSet
EndChar

StartChar: slash
Encoding: 47 47 18
Width: 640
Flags: W
LayerCount: 2
Fore
SplineSet
127 -31 m 1,0,-1
 -111 -31 l 1,1,-1
 514 1452 l 1,2,-1
 751 1452 l 1,3,-1
 127 -31 l 1,0,-1
EndSplineSet
EndChar

StartChar: zero
Encoding: 48 48 19
Width: 1153
Flags: W
LayerCount: 2
Fore
SplineSet
533 -30 m 1,0,1
 419 -22 419 -22 334.5 35 c 128,-1,2
 250 92 250 92 194 189 c 128,-1,3
 138 286 138 286 110.5 419 c 128,-1,4
 83 552 83 552 83 711 c 0,5,6
 83 869 83 869 111 1001 c 128,-1,7
 139 1133 139 1133 195 1230 c 128,-1,8
 251 1327 251 1327 335.5 1384.5 c 128,-1,9
 420 1442 420 1442 533 1451 c 1,10,-1
 533 1350 l 1,11,12
 467 1311 467 1311 440 1150.5 c 128,-1,13
 413 990 413 990 413 711 c 0,14,15
 413 435 413 435 440.5 273.5 c 128,-1,16
 468 112 468 112 533 72 c 1,17,-1
 533 -30 l 1,0,1
622 72 m 1,18,19
 686 112 686 112 713 271.5 c 128,-1,20
 740 431 740 431 740 711 c 256,21,22
 740 991 740 991 713 1149 c 128,-1,23
 686 1307 686 1307 622 1349 c 1,24,-1
 622 1450 l 1,25,26
 733 1440 733 1440 816.5 1382 c 128,-1,27
 900 1324 900 1324 956 1227.5 c 128,-1,28
 1012 1131 1012 1131 1040.5 999.5 c 128,-1,29
 1069 868 1069 868 1069 711 c 0,30,31
 1069 553 1069 553 1040.5 421.5 c 128,-1,32
 1012 290 1012 290 955.5 193 c 128,-1,33
 899 96 899 96 815.5 38.5 c 128,-1,34
 732 -19 732 -19 622 -29 c 1,35,-1
 622 72 l 1,18,19
EndSplineSet
EndChar

StartChar: one
Encoding: 49 49 20
Width: 1152
Flags: W
LayerCount: 2
Fore
SplineSet
356 1169 m 1,0,1
 336 1166 336 1166 304 1163.5 c 128,-1,2
 272 1161 272 1161 212 1161 c 1,3,-1
 212 1245 l 1,4,5
 236 1256 236 1256 254 1265 c 128,-1,6
 272 1274 272 1274 288.5 1282.5 c 128,-1,7
 305 1291 305 1291 321 1300.5 c 128,-1,8
 337 1310 337 1310 356 1322 c 1,9,-1
 356 1169 l 1,0,1
445 1347 m 1,10,-1
 508 1377 l 2,11,12
 534 1390 534 1390 562.5 1405 c 128,-1,13
 591 1420 591 1420 611 1434 c 1,14,-1
 759 1434 l 1,15,-1
 759 219 l 2,16,17
 759 170 759 170 780 146 c 128,-1,18
 801 122 801 122 832.5 110.5 c 128,-1,19
 864 99 864 99 900 93 c 128,-1,20
 936 87 936 87 965 74 c 1,21,-1
 965 0 l 1,22,-1
 237 0 l 1,23,-1
 237 74 l 1,24,25
 269 86 269 86 305.5 92 c 128,-1,26
 342 98 342 98 373 110 c 128,-1,27
 404 122 404 122 424.5 146.5 c 128,-1,28
 445 171 445 171 445 219 c 2,29,-1
 445 1347 l 1,10,-1
EndSplineSet
EndChar

StartChar: two
Encoding: 50 50 21
Width: 1153
Flags: W
LayerCount: 2
Fore
SplineSet
92 0 m 1,0,-1
 92 250 l 1,1,2
 172 343 172 343 246.5 421.5 c 128,-1,3
 321 500 321 500 385.5 569 c 128,-1,4
 450 638 450 638 503 700.5 c 128,-1,5
 556 763 556 763 594 824.5 c 128,-1,6
 632 886 632 886 652.5 949.5 c 128,-1,7
 673 1013 673 1013 673 1085 c 0,8,9
 673 1131 673 1131 665 1173 c 128,-1,10
 657 1215 657 1215 641.5 1249 c 128,-1,11
 626 1283 626 1283 602.5 1307.5 c 128,-1,12
 579 1332 579 1332 549 1344 c 1,13,-1
 549 1452 l 1,14,15
 654 1450 654 1450 740 1420 c 128,-1,16
 826 1390 826 1390 887 1336.5 c 128,-1,17
 948 1283 948 1283 981 1209.5 c 128,-1,18
 1014 1136 1014 1136 1014 1047 c 0,19,20
 1014 987 1014 987 986.5 923.5 c 128,-1,21
 959 860 959 860 909.5 792.5 c 128,-1,22
 860 725 860 725 792 652 c 128,-1,23
 724 579 724 579 643.5 499 c 128,-1,24
 563 419 563 419 473 331.5 c 128,-1,25
 383 244 383 244 290 147 c 0,26,27
 221 76 221 76 149 0 c 1,28,-1
 92 0 l 1,0,-1
524 258 m 1,29,-1
 640 258 l 2,30,31
 711 258 711 258 756 273 c 128,-1,32
 801 288 801 288 828.5 311.5 c 128,-1,33
 856 335 856 335 871 364 c 128,-1,34
 886 393 886 393 897.5 422 c 128,-1,35
 909 451 909 451 922 477 c 128,-1,36
 935 503 935 503 959 520 c 1,37,-1
 998 520 l 1,38,-1
 998 0 l 1,39,-1
 274 0 l 1,40,-1
 524 258 l 1,29,-1
460 1355 m 1,41,42
 420 1352 420 1352 387.5 1340.5 c 128,-1,43
 355 1329 355 1329 331.5 1311 c 128,-1,44
 308 1293 308 1293 294 1271 c 128,-1,45
 280 1249 280 1249 277 1225 c 1,46,47
 323 1222 323 1222 353.5 1204 c 128,-1,48
 384 1186 384 1186 402 1161 c 128,-1,49
 420 1136 420 1136 427.5 1107 c 128,-1,50
 435 1078 435 1078 435 1053 c 0,51,52
 435 1020 435 1020 424 992 c 128,-1,53
 413 964 413 964 392.5 943 c 128,-1,54
 372 922 372 922 343 910.5 c 128,-1,55
 314 899 314 899 277 899 c 0,56,57
 235 899 235 899 202 914 c 128,-1,58
 169 929 169 929 146 955.5 c 128,-1,59
 123 982 123 982 111 1018.5 c 128,-1,60
 99 1055 99 1055 99 1098 c 0,61,62
 99 1162 99 1162 124.5 1221 c 128,-1,63
 150 1280 150 1280 197 1326.5 c 128,-1,64
 244 1373 244 1373 310.5 1405 c 128,-1,65
 377 1437 377 1437 460 1448 c 1,66,-1
 460 1355 l 1,41,42
EndSplineSet
EndChar

StartChar: three
Encoding: 51 51 22
Width: 1153
Flags: W
LayerCount: 2
Fore
SplineSet
593 1355 m 1,0,1
 567 1355 567 1355 541 1350 c 128,-1,2
 515 1345 515 1345 492.5 1333 c 128,-1,3
 470 1321 470 1321 452 1302 c 128,-1,4
 434 1283 434 1283 424 1255 c 1,5,6
 442 1245 442 1245 465.5 1235.5 c 128,-1,7
 489 1226 489 1226 510.5 1209.5 c 128,-1,8
 532 1193 532 1193 547 1166 c 128,-1,9
 562 1139 562 1139 562 1095 c 0,10,11
 562 1056 562 1056 549.5 1026.5 c 128,-1,12
 537 997 537 997 515 977.5 c 128,-1,13
 493 958 493 958 463 948 c 128,-1,14
 433 938 433 938 399 938 c 0,15,16
 363 938 363 938 333 950 c 128,-1,17
 303 962 303 962 280.5 986 c 128,-1,18
 258 1010 258 1010 245.5 1045 c 128,-1,19
 233 1080 233 1080 233 1126 c 0,20,21
 233 1185 233 1185 258.5 1238.5 c 128,-1,22
 284 1292 284 1292 331 1334.5 c 128,-1,23
 378 1377 378 1377 444.5 1406 c 128,-1,24
 511 1435 511 1435 593 1446 c 1,25,-1
 593 1355 l 1,0,1
593 -31 m 1,26,27
 502 -28 502 -28 429.5 -3 c 128,-1,28
 357 22 357 22 306 63 c 128,-1,29
 255 104 255 104 228 159.5 c 128,-1,30
 201 215 201 215 201 279 c 0,31,32
 201 330 201 330 218.5 366.5 c 128,-1,33
 236 403 236 403 264 427 c 128,-1,34
 292 451 292 451 327.5 462.5 c 128,-1,35
 363 474 363 474 398 474 c 0,36,37
 476 474 476 474 509.5 435.5 c 128,-1,38
 543 397 543 397 543 322 c 0,39,40
 543 273 543 273 526 245.5 c 128,-1,41
 509 218 509 218 485.5 203 c 128,-1,42
 462 188 462 188 437 181.5 c 128,-1,43
 412 175 412 175 397 168 c 1,44,45
 407 117 407 117 455 91.5 c 128,-1,46
 503 66 503 66 572 66 c 0,47,48
 577 66 577 66 582.5 66 c 128,-1,49
 588 66 588 66 593 67 c 1,50,-1
 593 -31 l 1,26,27
682 1452 m 1,51,52
 778 1452 778 1452 861 1425.5 c 128,-1,53
 944 1399 944 1399 1004.5 1351.5 c 128,-1,54
 1065 1304 1065 1304 1099.5 1238 c 128,-1,55
 1134 1172 1134 1172 1134 1094 c 0,56,57
 1134 1010 1134 1010 1101.5 952.5 c 128,-1,58
 1069 895 1069 895 1019 857 c 128,-1,59
 969 819 969 819 907.5 797.5 c 128,-1,60
 846 776 846 776 788 764 c 1,61,-1
 786 760 l 1,62,63
 861 750 861 750 931.5 728 c 128,-1,64
 1002 706 1002 706 1056.5 664.5 c 128,-1,65
 1111 623 1111 623 1143.5 558.5 c 128,-1,66
 1176 494 1176 494 1176 399 c 0,67,68
 1176 310 1176 310 1140 235 c 128,-1,69
 1104 160 1104 160 1038.5 103.5 c 128,-1,70
 973 47 973 47 882 12.5 c 128,-1,71
 791 -22 791 -22 682 -29 c 1,72,-1
 682 89 l 1,73,74
 719 106 719 106 745.5 135 c 128,-1,75
 772 164 772 164 788.5 202 c 128,-1,76
 805 240 805 240 813 285.5 c 128,-1,77
 821 331 821 331 821 381 c 0,78,79
 821 474 821 474 802 535.5 c 128,-1,80
 783 597 783 597 747.5 634 c 128,-1,81
 712 671 712 671 660.5 686.5 c 128,-1,82
 609 702 609 702 544 702 c 2,83,-1
 482 702 l 2,84,85
 456 702 456 702 442.5 718 c 128,-1,86
 429 734 429 734 429 753 c 256,87,88
 429 772 429 772 442.5 789.5 c 128,-1,89
 456 807 456 807 482 807 c 2,90,-1
 548 807 l 2,91,92
 594 807 594 807 639 818 c 128,-1,93
 684 829 684 829 719 859 c 128,-1,94
 754 889 754 889 776 942 c 128,-1,95
 798 995 798 995 798 1079 c 0,96,97
 798 1173 798 1173 769 1239 c 128,-1,98
 740 1305 740 1305 682 1334 c 1,99,-1
 682 1452 l 1,51,52
EndSplineSet
EndChar

StartChar: four
Encoding: 52 52 23
Width: 1152
Flags: W
LayerCount: 2
Fore
SplineSet
472 938 m 1,0,-1
 175 500 l 1,1,-1
 472 500 l 1,2,-1
 472 383 l 1,3,-1
 39 383 l 1,4,-1
 39 510 l 1,5,-1
 472 1136 l 1,6,-1
 472 938 l 1,0,-1
973 500 m 1,7,-1
 1152 500 l 1,8,-1
 1152 383 l 1,9,-1
 973 383 l 1,10,-1
 973 500 l 1,7,-1
885 172 m 2,11,12
 885 138 885 138 899 122.5 c 128,-1,13
 913 107 913 107 934.5 98.5 c 128,-1,14
 956 90 956 90 981.5 82.5 c 128,-1,15
 1007 75 1007 75 1030 57 c 1,16,-1
 1030 0 l 1,17,-1
 389 0 l 1,18,-1
 389 74 l 1,19,20
 418 86 418 86 448.5 92.5 c 128,-1,21
 479 99 479 99 504 110 c 128,-1,22
 529 121 529 121 545 143 c 128,-1,23
 561 165 561 165 561 207 c 2,24,-1
 561 1264 l 1,25,-1
 675 1430 l 1,26,-1
 885 1430 l 1,27,-1
 885 172 l 2,11,12
EndSplineSet
EndChar

StartChar: five
Encoding: 53 53 24
Width: 1153
Flags: W
LayerCount: 2
Fore
SplineSet
443 -30 m 1,0,1
 363 -24 363 -24 299.5 2.5 c 128,-1,2
 236 29 236 29 191.5 70.5 c 128,-1,3
 147 112 147 112 123 166 c 128,-1,4
 99 220 99 220 99 281 c 0,5,6
 99 324 99 324 112.5 359.5 c 128,-1,7
 126 395 126 395 150 419.5 c 128,-1,8
 174 444 174 444 206.5 457.5 c 128,-1,9
 239 471 239 471 277 471 c 0,10,11
 317 471 317 471 346.5 459 c 128,-1,12
 376 447 376 447 396 427 c 128,-1,13
 416 407 416 407 426 379.5 c 128,-1,14
 436 352 436 352 436 322 c 0,15,16
 436 296 436 296 426 278.5 c 128,-1,17
 416 261 416 261 401 248.5 c 128,-1,18
 386 236 386 236 368 227 c 128,-1,19
 350 218 350 218 335 209 c 128,-1,20
 320 200 320 200 310 189.5 c 128,-1,21
 300 179 300 179 300 164 c 0,22,23
 300 141 300 141 311 123 c 128,-1,24
 322 105 322 105 341 93 c 128,-1,25
 360 81 360 81 386.5 74 c 128,-1,26
 413 67 413 67 443 66 c 1,27,-1
 443 -30 l 1,0,1
279 682 m 2,28,29
 279 650 279 650 265 631.5 c 128,-1,30
 251 613 251 613 219 613 c 0,31,32
 201 613 201 613 189.5 619.5 c 128,-1,33
 178 626 178 626 172 637 c 128,-1,34
 166 648 166 648 163.5 662 c 128,-1,35
 161 676 161 676 161 692 c 0,36,37
 161 712 161 712 163 732.5 c 128,-1,38
 165 753 165 753 166 770 c 2,39,-1
 167 1425 l 1,40,41
 214 1420 214 1420 266 1415.5 c 128,-1,42
 318 1411 318 1411 371.5 1408 c 128,-1,43
 425 1405 425 1405 477.5 1403 c 128,-1,44
 530 1401 530 1401 578 1401 c 0,45,46
 654 1401 654 1401 708.5 1406 c 128,-1,47
 763 1411 763 1411 799.5 1419 c 128,-1,48
 836 1427 836 1427 856.5 1436.5 c 128,-1,49
 877 1446 877 1446 887 1456 c 1,50,51
 917 1456 917 1456 938 1446 c 1,52,53
 938 1393 938 1393 929 1346 c 128,-1,54
 920 1299 920 1299 899 1259 c 128,-1,55
 878 1219 878 1219 843.5 1188 c 128,-1,56
 809 1157 809 1157 758 1137 c 1,57,58
 704 1137 704 1137 641.5 1138 c 128,-1,59
 579 1139 579 1139 515 1140.5 c 128,-1,60
 451 1142 451 1142 390 1143.5 c 128,-1,61
 329 1145 329 1145 279 1147 c 1,62,-1
 279 682 l 2,28,29
368 884 m 1,63,64
 406 904 406 904 450 916 c 128,-1,65
 494 928 494 928 546 928 c 0,66,67
 650 928 650 928 741 894 c 128,-1,68
 832 860 832 860 899.5 799 c 128,-1,69
 967 738 967 738 1006 652 c 128,-1,70
 1045 566 1045 566 1045 463 c 0,71,72
 1045 358 1045 358 1007.5 270.5 c 128,-1,73
 970 183 970 183 902.5 119 c 128,-1,74
 835 55 835 55 740.5 16.5 c 128,-1,75
 646 -22 646 -22 532 -29 c 1,76,-1
 532 78 l 1,77,78
 574 93 574 93 606 124.5 c 128,-1,79
 638 156 638 156 659.5 201 c 128,-1,80
 681 246 681 246 692 302 c 128,-1,81
 703 358 703 358 703 422 c 0,82,83
 703 522 703 522 686.5 594 c 128,-1,84
 670 666 670 666 640 712.5 c 128,-1,85
 610 759 610 759 567.5 781 c 128,-1,86
 525 803 525 803 473 803 c 0,87,88
 440 803 440 803 414 795 c 128,-1,89
 388 787 388 787 368 775 c 1,90,-1
 368 884 l 1,63,64
EndSplineSet
EndChar

StartChar: six
Encoding: 54 54 25
Width: 1153
Flags: W
LayerCount: 2
Fore
SplineSet
636 1452 m 1,0,1
 728 1450 728 1450 797.5 1427 c 128,-1,2
 867 1404 867 1404 913 1367.5 c 128,-1,3
 959 1331 959 1331 982 1286 c 128,-1,4
 1005 1241 1005 1241 1005 1196 c 0,5,6
 1005 1163 1005 1163 994.5 1132.5 c 128,-1,7
 984 1102 984 1102 964 1079 c 128,-1,8
 944 1056 944 1056 914 1042 c 128,-1,9
 884 1028 884 1028 844 1028 c 0,10,11
 807 1028 807 1028 779 1040 c 128,-1,12
 751 1052 751 1052 732 1072 c 128,-1,13
 713 1092 713 1092 703.5 1117 c 128,-1,14
 694 1142 694 1142 694 1169 c 0,15,16
 694 1200 694 1200 702 1223.5 c 128,-1,17
 710 1247 710 1247 723 1265 c 128,-1,18
 736 1283 736 1283 752.5 1296 c 128,-1,19
 769 1309 769 1309 787 1319 c 1,20,21
 787 1336 787 1336 746 1351 c 128,-1,22
 705 1366 705 1366 636 1366 c 1,23,-1
 636 1452 l 1,0,1
525 875 m 1,24,25
 556 891 556 891 591 900 c 128,-1,26
 626 909 626 909 669 909 c 0,27,28
 771 909 771 909 846.5 868 c 128,-1,29
 922 827 922 827 972.5 760 c 128,-1,30
 1023 693 1023 693 1047.5 607.5 c 128,-1,31
 1072 522 1072 522 1072 434 c 0,32,33
 1072 348 1072 348 1042.5 266 c 128,-1,34
 1013 184 1013 184 956.5 119.5 c 128,-1,35
 900 55 900 55 819 14 c 128,-1,36
 738 -27 738 -27 636 -31 c 1,37,-1
 636 61 l 1,38,39
 690 81 690 81 712.5 174.5 c 128,-1,40
 735 268 735 268 735 443 c 0,41,42
 735 536 735 536 727 602.5 c 128,-1,43
 719 669 719 669 702 712.5 c 128,-1,44
 685 756 685 756 656.5 776.5 c 128,-1,45
 628 797 628 797 588 797 c 0,46,47
 550 797 550 797 525 784 c 1,48,-1
 525 875 l 1,24,25
547 1336 m 1,49,50
 523 1314 523 1314 506 1278 c 128,-1,51
 489 1242 489 1242 476.5 1198 c 128,-1,52
 464 1154 464 1154 456 1104.5 c 128,-1,53
 448 1055 448 1055 443.5 1004.5 c 128,-1,54
 439 954 439 954 437.5 906 c 128,-1,55
 436 858 436 858 436 817 c 2,56,-1
 436 468 l 2,57,58
 436 375 436 375 441 305 c 128,-1,59
 446 235 446 235 459 185.5 c 128,-1,60
 472 136 472 136 493.5 106 c 128,-1,61
 515 76 515 76 547 64 c 1,62,-1
 547 -27 l 1,63,64
 430 -13 430 -13 343.5 45.5 c 128,-1,65
 257 104 257 104 200.5 195 c 128,-1,66
 144 286 144 286 116 403 c 128,-1,67
 88 520 88 520 88 651 c 0,68,69
 88 795 88 795 118 931 c 128,-1,70
 148 1067 148 1067 206 1175.5 c 128,-1,71
 264 1284 264 1284 350 1356.5 c 128,-1,72
 436 1429 436 1429 547 1447 c 1,73,-1
 547 1336 l 1,49,50
EndSplineSet
EndChar

StartChar: seven
Encoding: 55 55 26
Width: 1153
Flags: W
LayerCount: 2
Fore
SplineSet
1084 1264 m 1,0,1
 1010 1167 1010 1167 943.5 1066 c 128,-1,2
 877 965 877 965 826.5 859 c 128,-1,3
 776 753 776 753 746 641.5 c 128,-1,4
 716 530 716 530 716 413 c 0,5,6
 716 353 716 353 721.5 293 c 128,-1,7
 727 233 727 233 727 179 c 0,8,9
 727 134 727 134 718.5 96 c 128,-1,10
 710 58 710 58 690 31 c 128,-1,11
 670 4 670 4 637 -11.5 c 128,-1,12
 604 -27 604 -27 556 -27 c 0,13,14
 505 -27 505 -27 469.5 -10 c 128,-1,15
 434 7 434 7 411.5 36.5 c 128,-1,16
 389 66 389 66 379 106.5 c 128,-1,17
 369 147 369 147 369 195 c 0,18,19
 369 290 369 290 413 402.5 c 128,-1,20
 457 515 457 515 529 639 c 128,-1,21
 601 763 601 763 694.5 895.5 c 128,-1,22
 788 1028 788 1028 887 1163 c 1,23,-1
 567 1163 l 2,24,25
 492 1163 492 1163 442.5 1149.5 c 128,-1,26
 393 1136 393 1136 360.5 1113 c 128,-1,27
 328 1090 328 1090 308 1061 c 128,-1,28
 288 1032 288 1032 273 1001.5 c 128,-1,29
 258 971 258 971 244 941 c 128,-1,30
 230 911 230 911 209 887 c 1,31,-1
 157 887 l 1,32,-1
 157 1436 l 1,33,-1
 268 1425 l 2,34,35
 295 1423 295 1423 323 1422 c 128,-1,36
 351 1421 351 1421 381 1421 c 2,37,-1
 1084 1421 l 1,38,-1
 1084 1264 l 1,0,1
EndSplineSet
EndChar

StartChar: eight
Encoding: 56 56 27
Width: 1152
Flags: W
LayerCount: 2
Fore
SplineSet
511 -30 m 1,0,1
 425 -26 425 -26 347 1.5 c 128,-1,2
 269 29 269 29 210 78 c 128,-1,3
 151 127 151 127 116 196 c 128,-1,4
 81 265 81 265 81 352 c 0,5,6
 81 406 81 406 102 454 c 128,-1,7
 123 502 123 502 158.5 543 c 128,-1,8
 194 584 194 584 241.5 618 c 128,-1,9
 289 652 289 652 343 678 c 1,10,11
 278 717 278 717 234.5 758.5 c 128,-1,12
 191 800 191 800 164.5 845.5 c 128,-1,13
 138 891 138 891 126.5 941 c 128,-1,14
 115 991 115 991 115 1047 c 0,15,16
 115 1125 115 1125 143.5 1195 c 128,-1,17
 172 1265 172 1265 224.5 1319 c 128,-1,18
 277 1373 277 1373 352 1407.5 c 128,-1,19
 427 1442 427 1442 521 1450 c 1,20,-1
 521 1359 l 1,21,22
 454 1348 454 1348 412.5 1297 c 128,-1,23
 371 1246 371 1246 371 1155 c 0,24,25
 371 1098 371 1098 392.5 1056 c 128,-1,26
 414 1014 414 1014 451.5 980 c 128,-1,27
 489 946 489 946 539 916.5 c 128,-1,28
 589 887 589 887 645 856 c 1,29,30
 679 868 679 868 704.5 894 c 128,-1,31
 730 920 730 920 747.5 954 c 128,-1,32
 765 988 765 988 773.5 1028 c 128,-1,33
 782 1068 782 1068 782 1109 c 0,34,35
 782 1153 782 1153 771.5 1195.5 c 128,-1,36
 761 1238 761 1238 739.5 1272.5 c 128,-1,37
 718 1307 718 1307 685.5 1330 c 128,-1,38
 653 1353 653 1353 610 1359 c 1,39,-1
 610 1451 l 1,40,41
 695 1446 695 1446 767 1421 c 128,-1,42
 839 1396 839 1396 890.5 1351.5 c 128,-1,43
 942 1307 942 1307 971 1244.5 c 128,-1,44
 1000 1182 1000 1182 1000 1102 c 0,45,46
 1000 1043 1000 1043 981 998 c 128,-1,47
 962 953 962 953 929 917.5 c 128,-1,48
 896 882 896 882 852 854.5 c 128,-1,49
 808 827 808 827 758 803 c 1,50,51
 827 768 827 768 882 731 c 128,-1,52
 937 694 937 694 975.5 648 c 128,-1,53
 1014 602 1014 602 1034.5 544 c 128,-1,54
 1055 486 1055 486 1055 410 c 0,55,56
 1055 320 1055 320 1022 243 c 128,-1,57
 989 166 989 166 929 108.5 c 128,-1,58
 869 51 869 51 785 15 c 128,-1,59
 701 -21 701 -21 600 -29 c 1,60,-1
 600 63 l 1,61,62
 644 71 644 71 676.5 92 c 128,-1,63
 709 113 709 113 731 143.5 c 128,-1,64
 753 174 753 174 763.5 213.5 c 128,-1,65
 774 253 774 253 774 297 c 0,66,67
 774 360 774 360 750 403.5 c 128,-1,68
 726 447 726 447 683 481.5 c 128,-1,69
 640 516 640 516 580.5 547.5 c 128,-1,70
 521 579 521 579 451 618 c 1,71,72
 418 601 418 601 392.5 572.5 c 128,-1,73
 367 544 367 544 350 508.5 c 128,-1,74
 333 473 333 473 324.5 432.5 c 128,-1,75
 316 392 316 392 316 350 c 0,76,77
 316 302 316 302 328 255 c 128,-1,78
 340 208 340 208 364.5 169 c 128,-1,79
 389 130 389 130 425.5 102 c 128,-1,80
 462 74 462 74 511 64 c 1,81,-1
 511 -30 l 1,0,1
EndSplineSet
EndChar

StartChar: nine
Encoding: 57 57 28
Width: 1153
Flags: W
LayerCount: 2
Fore
SplineSet
493 -31 m 1,0,1
 395 -29 395 -29 322.5 -6.5 c 128,-1,2
 250 16 250 16 202 52 c 128,-1,3
 154 88 154 88 130 132.5 c 128,-1,4
 106 177 106 177 106 223 c 0,5,6
 106 257 106 257 116.5 287.5 c 128,-1,7
 127 318 127 318 148.5 341.5 c 128,-1,8
 170 365 170 365 201.5 379 c 128,-1,9
 233 393 233 393 275 393 c 0,10,11
 311 393 311 393 338.5 381 c 128,-1,12
 366 369 366 369 384.5 349.5 c 128,-1,13
 403 330 403 330 412.5 304.5 c 128,-1,14
 422 279 422 279 422 252 c 0,15,16
 422 222 422 222 414.5 198 c 128,-1,17
 407 174 407 174 394.5 155.5 c 128,-1,18
 382 137 382 137 366 124 c 128,-1,19
 350 111 350 111 332 102 c 1,20,21
 332 90 332 90 345.5 81 c 128,-1,22
 359 72 359 72 380 66.5 c 128,-1,23
 401 61 401 61 425.5 58 c 128,-1,24
 450 55 450 55 473 55 c 2,25,-1
 493 55 l 1,26,-1
 493 -31 l 1,0,1
618 548 m 1,27,28
 587 534 587 534 551.5 525 c 128,-1,29
 516 516 516 516 473 516 c 0,30,31
 378 516 378 516 303 554.5 c 128,-1,32
 228 593 228 593 176.5 656.5 c 128,-1,33
 125 720 125 720 98 803.5 c 128,-1,34
 71 887 71 887 71 977 c 0,35,36
 71 1064 71 1064 102.5 1146.5 c 128,-1,37
 134 1229 134 1229 192 1294 c 128,-1,38
 250 1359 250 1359 332.5 1401.5 c 128,-1,39
 415 1444 415 1444 518 1451 c 1,40,-1
 518 1357 l 1,41,42
 460 1331 460 1331 434 1235.5 c 128,-1,43
 408 1140 408 1140 408 971 c 0,44,45
 408 880 408 880 416 815.5 c 128,-1,46
 424 751 424 751 442 709.5 c 128,-1,47
 460 668 460 668 488 648.5 c 128,-1,48
 516 629 516 629 556 629 c 0,49,50
 574 629 574 629 589.5 631 c 128,-1,51
 605 633 605 633 618 638 c 1,52,-1
 618 548 l 1,27,28
582 69 m 1,53,54
 617 89 617 89 641 135.5 c 128,-1,55
 665 182 665 182 679.5 248 c 128,-1,56
 694 314 694 314 700.5 395.5 c 128,-1,57
 707 477 707 477 707 567 c 2,58,-1
 707 1006 l 2,59,60
 707 1165 707 1165 681.5 1249.5 c 128,-1,61
 656 1334 656 1334 607 1357 c 1,62,-1
 607 1449 l 1,63,64
 722 1437 722 1437 806.5 1378.5 c 128,-1,65
 891 1320 891 1320 947 1228.5 c 128,-1,66
 1003 1137 1003 1137 1030.5 1018.5 c 128,-1,67
 1058 900 1058 900 1058 768 c 0,68,69
 1058 671 1058 671 1044.5 578 c 128,-1,70
 1031 485 1031 485 1004 400 c 128,-1,71
 977 315 977 315 937 242 c 128,-1,72
 897 169 897 169 844.5 113 c 128,-1,73
 792 57 792 57 726 20.5 c 128,-1,74
 660 -16 660 -16 582 -27 c 1,75,-1
 582 69 l 1,53,54
EndSplineSet
EndChar

StartChar: colon
Encoding: 58 58 29
Width: 576
Flags: W
LayerCount: 2
Fore
SplineSet
119 158 m 256,0,1
 119 195 119 195 131.5 227 c 128,-1,2
 144 259 144 259 166.5 283 c 128,-1,3
 189 307 189 307 220 320.5 c 128,-1,4
 251 334 251 334 288 334 c 256,5,6
 325 334 325 334 356 320.5 c 128,-1,7
 387 307 387 307 409.5 283 c 128,-1,8
 432 259 432 259 444.5 227 c 128,-1,9
 457 195 457 195 457 158 c 256,10,11
 457 121 457 121 444.5 89 c 128,-1,12
 432 57 432 57 409.5 33 c 128,-1,13
 387 9 387 9 356 -4.5 c 128,-1,14
 325 -18 325 -18 288 -18 c 256,15,16
 251 -18 251 -18 220 -4.5 c 128,-1,17
 189 9 189 9 166.5 33 c 128,-1,18
 144 57 144 57 131.5 89 c 128,-1,19
 119 121 119 121 119 158 c 256,0,1
119 782 m 256,20,21
 119 819 119 819 131.5 851 c 128,-1,22
 144 883 144 883 166.5 907 c 128,-1,23
 189 931 189 931 220 944.5 c 128,-1,24
 251 958 251 958 288 958 c 256,25,26
 325 958 325 958 356 944.5 c 128,-1,27
 387 931 387 931 409.5 907 c 128,-1,28
 432 883 432 883 444.5 851 c 128,-1,29
 457 819 457 819 457 782 c 256,30,31
 457 745 457 745 444.5 713 c 128,-1,32
 432 681 432 681 409.5 657 c 128,-1,33
 387 633 387 633 356 619.5 c 128,-1,34
 325 606 325 606 288 606 c 256,35,36
 251 606 251 606 220 619.5 c 128,-1,37
 189 633 189 633 166.5 657 c 128,-1,38
 144 681 144 681 131.5 713 c 128,-1,39
 119 745 119 745 119 782 c 256,20,21
EndSplineSet
EndChar

StartChar: semicolon
Encoding: 59 59 30
Width: 577
Flags: W
LayerCount: 2
Fore
SplineSet
129 -319 m 1,0,1
 156 -286 156 -286 187.5 -250.5 c 128,-1,2
 219 -215 219 -215 246.5 -178 c 128,-1,3
 274 -141 274 -141 294.5 -101.5 c 128,-1,4
 315 -62 315 -62 321 -20 c 1,5,6
 215 -14 215 -14 163 33.5 c 128,-1,7
 111 81 111 81 111 160 c 0,8,9
 111 194 111 194 123.5 226 c 128,-1,10
 136 258 136 258 158.5 282.5 c 128,-1,11
 181 307 181 307 213 321.5 c 128,-1,12
 245 336 245 336 284 336 c 0,13,14
 332 336 332 336 367.5 317 c 128,-1,15
 403 298 403 298 427 265.5 c 128,-1,16
 451 233 451 233 463 190.5 c 128,-1,17
 475 148 475 148 475 100 c 0,18,19
 475 46 475 46 456 -13 c 128,-1,20
 437 -72 437 -72 402 -133 c 128,-1,21
 367 -194 367 -194 318.5 -257 c 128,-1,22
 270 -320 270 -320 210 -381 c 1,23,-1
 129 -319 l 1,0,1
120 782 m 256,24,25
 120 819 120 819 132.5 851 c 128,-1,26
 145 883 145 883 167 907 c 128,-1,27
 189 931 189 931 220 944.5 c 128,-1,28
 251 958 251 958 289 958 c 0,29,30
 326 958 326 958 356.5 944.5 c 128,-1,31
 387 931 387 931 409.5 907 c 128,-1,32
 432 883 432 883 444.5 851 c 128,-1,33
 457 819 457 819 457 782 c 256,34,35
 457 745 457 745 444.5 713 c 128,-1,36
 432 681 432 681 409.5 657 c 128,-1,37
 387 633 387 633 356.5 619.5 c 128,-1,38
 326 606 326 606 289 606 c 0,39,40
 251 606 251 606 220 619.5 c 128,-1,41
 189 633 189 633 167 657 c 128,-1,42
 145 681 145 681 132.5 713 c 128,-1,43
 120 745 120 745 120 782 c 256,24,25
EndSplineSet
EndChar

StartChar: less
Encoding: 60 60 31
Width: 1384
Flags: W
LayerCount: 2
Fore
SplineSet
1245 -16 m 1,0,-1
 139 412 l 1,1,-1
 139 569 l 1,2,-1
 1245 997 l 1,3,-1
 1245 772 l 1,4,-1
 500 489 l 1,5,-1
 1245 207 l 1,6,-1
 1245 -16 l 1,0,-1
EndSplineSet
EndChar

StartChar: equal
Encoding: 61 61 32
Width: 1383
Flags: W
LayerCount: 2
Fore
SplineSet
1243 594 m 1,0,-1
 139 594 l 1,1,-1
 139 809 l 1,2,-1
 1243 809 l 1,3,-1
 1243 594 l 1,0,-1
1243 170 m 1,4,-1
 139 170 l 1,5,-1
 139 385 l 1,6,-1
 1243 385 l 1,7,-1
 1243 170 l 1,4,-1
EndSplineSet
EndChar

StartChar: greater
Encoding: 62 62 33
Width: 1384
Flags: W
LayerCount: 2
Fore
SplineSet
139 997 m 1,0,-1
 1245 569 l 1,1,-1
 1245 412 l 1,2,-1
 139 -16 l 1,3,-1
 139 209 l 1,4,-1
 882 489 l 1,5,-1
 139 772 l 1,6,-1
 139 997 l 1,0,-1
EndSplineSet
EndChar

StartChar: question
Encoding: 63 63 34
Width: 1109
Flags: W
LayerCount: 2
Fore
SplineSet
467 1349 m 1,0,1
 416 1344 416 1344 386 1323.5 c 128,-1,2
 356 1303 356 1303 348 1274 c 1,3,4
 369 1271 369 1271 390.5 1262 c 128,-1,5
 412 1253 412 1253 429 1235.5 c 128,-1,6
 446 1218 446 1218 457 1191.5 c 128,-1,7
 468 1165 468 1165 468 1128 c 0,8,9
 468 1059 468 1059 425 1019 c 128,-1,10
 382 979 382 979 304 979 c 0,11,12
 268 979 268 979 238.5 993 c 128,-1,13
 209 1007 209 1007 189 1030.5 c 128,-1,14
 169 1054 169 1054 158 1084.5 c 128,-1,15
 147 1115 147 1115 147 1149 c 0,16,17
 147 1213 147 1213 171.5 1264 c 128,-1,18
 196 1315 196 1315 239.5 1352.5 c 128,-1,19
 283 1390 283 1390 341 1413 c 128,-1,20
 399 1436 399 1436 467 1443 c 1,21,-1
 467 1349 l 1,0,1
556 1445 m 1,22,23
 637 1442 637 1442 714 1421 c 128,-1,24
 791 1400 791 1400 851 1358.5 c 128,-1,25
 911 1317 911 1317 947.5 1253.5 c 128,-1,26
 984 1190 984 1190 984 1102 c 0,27,28
 984 1046 984 1046 966.5 1003 c 128,-1,29
 949 960 949 960 919.5 924.5 c 128,-1,30
 890 889 890 889 853 859 c 128,-1,31
 816 829 816 829 777.5 800.5 c 128,-1,32
 739 772 739 772 702 743 c 128,-1,33
 665 714 665 714 635.5 680 c 128,-1,34
 606 646 606 646 588.5 604.5 c 128,-1,35
 571 563 571 563 571 510 c 2,36,-1
 571 420 l 1,37,-1
 457 420 l 1,38,-1
 457 516 l 2,39,40
 457 577 457 577 472 624 c 128,-1,41
 487 671 487 671 509.5 712 c 128,-1,42
 532 753 532 753 558 791 c 128,-1,43
 584 829 584 829 606.5 872.5 c 128,-1,44
 629 916 629 916 644 968.5 c 128,-1,45
 659 1021 659 1021 659 1090 c 0,46,47
 659 1291 659 1291 555 1338 c 1,48,-1
 556 1445 l 1,22,23
348 152 m 0,49,50
 348 189 348 189 360.5 221 c 128,-1,51
 373 253 373 253 395 277 c 128,-1,52
 417 301 417 301 448 314.5 c 128,-1,53
 479 328 479 328 517 328 c 0,54,55
 554 328 554 328 584.5 314.5 c 128,-1,56
 615 301 615 301 637 277 c 128,-1,57
 659 253 659 253 671.5 221 c 128,-1,58
 684 189 684 189 684 152 c 0,59,60
 684 114 684 114 671.5 82 c 128,-1,61
 659 50 659 50 637 26 c 128,-1,62
 615 2 615 2 584.5 -11.5 c 128,-1,63
 554 -25 554 -25 517 -25 c 0,64,65
 479 -25 479 -25 448 -11.5 c 128,-1,66
 417 2 417 2 395 26 c 128,-1,67
 373 50 373 50 360.5 82 c 128,-1,68
 348 114 348 114 348 152 c 0,49,50
EndSplineSet
EndChar

StartChar: at
Encoding: 64 64 35
Width: 1844
Flags: W
LayerCount: 2
Fore
SplineSet
1063 973 m 0,0,1
 1022 973 1022 973 976 943 c 128,-1,2
 930 913 930 913 891 861.5 c 128,-1,3
 852 810 852 810 826.5 740.5 c 128,-1,4
 801 671 801 671 801 592 c 0,5,6
 801 523 801 523 825 480.5 c 128,-1,7
 849 438 849 438 895 438 c 0,8,9
 951 438 951 438 999.5 478 c 128,-1,10
 1048 518 1048 518 1083.5 579 c 128,-1,11
 1119 640 1119 640 1139 713 c 128,-1,12
 1159 786 1159 786 1159 852 c 0,13,14
 1159 909 1159 909 1136.5 941 c 128,-1,15
 1114 973 1114 973 1063 973 c 0,0,1
1016 129 m 1,16,17
 1090 130 1090 130 1151 137 c 128,-1,18
 1212 144 1212 144 1265.5 157 c 128,-1,19
 1319 170 1319 170 1368 188 c 128,-1,20
 1417 206 1417 206 1467 229 c 1,21,-1
 1489 102 l 1,22,23
 1436 75 1436 75 1380.5 52 c 128,-1,24
 1325 29 1325 29 1266.5 11 c 128,-1,25
 1208 -7 1208 -7 1145.5 -18 c 128,-1,26
 1083 -29 1083 -29 1016 -31 c 1,27,-1
 1016 129 l 1,16,17
927 -29 m 1,28,29
 781 -22 781 -22 662.5 13.5 c 128,-1,30
 544 49 544 49 451 104.5 c 128,-1,31
 358 160 358 160 289.5 230.5 c 128,-1,32
 221 301 221 301 176 377 c 128,-1,33
 131 453 131 453 109.5 530.5 c 128,-1,34
 88 608 88 608 88 678 c 0,35,36
 88 790 88 790 118.5 890 c 128,-1,37
 149 990 149 990 204 1074.5 c 128,-1,38
 259 1159 259 1159 336 1227 c 128,-1,39
 413 1295 413 1295 506 1343.5 c 128,-1,40
 599 1392 599 1392 706 1419.5 c 128,-1,41
 813 1447 813 1447 927 1451 c 1,42,-1
 927 1291 l 1,43,44
 819 1285 819 1285 719 1245 c 128,-1,45
 619 1205 619 1205 542.5 1129 c 128,-1,46
 466 1053 466 1053 420 939.5 c 128,-1,47
 374 826 374 826 374 672 c 0,48,49
 374 559 374 559 420.5 464 c 128,-1,50
 467 369 467 369 544.5 298.5 c 128,-1,51
 622 228 622 228 721.5 185 c 128,-1,52
 821 142 821 142 927 132 c 1,53,-1
 927 -29 l 1,28,29
1016 1451 m 1,54,55
 1174 1444 1174 1444 1309.5 1393 c 128,-1,56
 1445 1342 1445 1342 1544.5 1257.5 c 128,-1,57
 1644 1173 1644 1173 1700.5 1060 c 128,-1,58
 1757 947 1757 947 1757 817 c 0,59,60
 1757 763 1757 763 1743.5 704 c 128,-1,61
 1730 645 1730 645 1704 588.5 c 128,-1,62
 1678 532 1678 532 1640 481.5 c 128,-1,63
 1602 431 1602 431 1552 392.5 c 128,-1,64
 1502 354 1502 354 1441 331.5 c 128,-1,65
 1380 309 1380 309 1309 309 c 0,66,67
 1249 309 1249 309 1207.5 328 c 128,-1,68
 1166 347 1166 347 1140.5 372.5 c 128,-1,69
 1115 398 1115 398 1104 423.5 c 128,-1,70
 1093 449 1093 449 1093 463 c 1,71,-1
 1089 463 l 1,72,73
 1083 449 1083 449 1059.5 423.5 c 128,-1,74
 1036 398 1036 398 999 372.5 c 128,-1,75
 962 347 962 347 914 328 c 128,-1,76
 866 309 866 309 812 309 c 0,77,78
 770 309 770 309 728.5 323.5 c 128,-1,79
 687 338 687 338 654 370.5 c 128,-1,80
 621 403 621 403 600 454 c 128,-1,81
 579 505 579 505 579 578 c 0,82,83
 579 628 579 628 592.5 686.5 c 128,-1,84
 606 745 606 745 632.5 803.5 c 128,-1,85
 659 862 659 862 698 916 c 128,-1,86
 737 970 737 970 788.5 1011 c 128,-1,87
 840 1052 840 1052 904 1077 c 128,-1,88
 968 1102 968 1102 1043 1102 c 0,89,90
 1081 1102 1081 1102 1108.5 1093.5 c 128,-1,91
 1136 1085 1136 1085 1156 1071 c 128,-1,92
 1176 1057 1176 1057 1190.5 1038.5 c 128,-1,93
 1205 1020 1205 1020 1217 1001 c 1,94,-1
 1241 1069 l 1,95,-1
 1423 1069 l 1,96,-1
 1289 573 l 1,97,98
 1282 553 1282 553 1281 539 c 128,-1,99
 1280 525 1280 525 1280 508 c 0,100,101
 1280 468 1280 468 1295.5 440 c 128,-1,102
 1311 412 1311 412 1349 412 c 256,103,104
 1387 412 1387 412 1427.5 447 c 128,-1,105
 1468 482 1468 482 1501 539 c 128,-1,106
 1534 596 1534 596 1555.5 668 c 128,-1,107
 1577 740 1577 740 1577 815 c 0,108,109
 1577 899 1577 899 1538 981 c 128,-1,110
 1499 1063 1499 1063 1426 1129 c 128,-1,111
 1353 1195 1353 1195 1249.5 1238.5 c 128,-1,112
 1146 1282 1146 1282 1017 1290 c 1,113,-1
 1016 1451 l 1,54,55
EndSplineSet
EndChar

StartChar: A
Encoding: 65 65 36
Width: 1343
Flags: W
LayerCount: 2
Fore
SplineSet
496 1205 m 1,0,-1
 352 1249 l 1,1,2
 358 1291 358 1291 360 1324.5 c 128,-1,3
 362 1358 362 1358 368 1384 c 1,4,5
 377 1388 377 1388 399.5 1394.5 c 128,-1,6
 422 1401 422 1401 452.5 1408.5 c 128,-1,7
 483 1416 483 1416 518.5 1424 c 128,-1,8
 554 1432 554 1432 589.5 1438 c 128,-1,9
 625 1444 625 1444 657 1448 c 128,-1,10
 689 1452 689 1452 713 1452 c 1,11,12
 722 1441 722 1441 731.5 1427 c 128,-1,13
 741 1413 741 1413 749 1395 c 2,14,-1
 1212 229 l 2,15,16
 1220 208 1220 208 1230.5 189.5 c 128,-1,17
 1241 171 1241 171 1249 154 c 0,18,19
 1261 130 1261 130 1277.5 118 c 128,-1,20
 1294 106 1294 106 1312.5 99.5 c 128,-1,21
 1331 93 1331 93 1349 88.5 c 128,-1,22
 1367 84 1367 84 1381 74 c 1,23,-1
 1381 0 l 1,24,-1
 742 0 l 1,25,-1
 742 63 l 1,26,27
 767 78 767 78 793.5 85.5 c 128,-1,28
 820 93 820 93 841.5 99.5 c 128,-1,29
 863 106 863 106 876.5 116.5 c 128,-1,30
 890 127 890 127 890 150 c 1,31,32
 889 161 889 161 883.5 181 c 128,-1,33
 878 201 878 201 871 219 c 2,34,-1
 788 426 l 1,35,-1
 564 1010 l 1,36,-1
 496 1205 l 1,0,-1
513 896 m 1,37,-1
 288 252 l 2,38,39
 272 207 272 207 272 178 c 0,40,41
 272 147 272 147 289 130.5 c 128,-1,42
 306 114 306 114 331.5 104.5 c 128,-1,43
 357 95 357 95 386 88 c 128,-1,44
 415 81 415 81 440 68 c 1,45,-1
 440 0 l 1,46,-1
 -39 0 l 1,47,-1
 -39 68 l 1,48,49
 -18 81 -18 81 6 89 c 128,-1,50
 30 97 30 97 53 110.5 c 128,-1,51
 76 124 76 124 97.5 148.5 c 128,-1,52
 119 173 119 173 136 219 c 2,53,-1
 447 1073 l 1,54,-1
 513 896 l 1,37,-1
693 426 m 1,55,-1
 447 426 l 1,56,-1
 480 532 l 1,57,-1
 653 532 l 1,58,-1
 693 426 l 1,55,-1
EndSplineSet
EndChar

StartChar: B
Encoding: 66 66 37
Width: 1408
Flags: W
LayerCount: 2
Fore
SplineSet
621 110 m 1,0,1
 638 106 638 106 673 106 c 0,2,3
 823 106 823 106 897 180 c 128,-1,4
 971 254 971 254 971 395 c 0,5,6
 971 465 971 465 951 519.5 c 128,-1,7
 931 574 931 574 888.5 611.5 c 128,-1,8
 846 649 846 649 780 668.5 c 128,-1,9
 714 688 714 688 621 688 c 1,10,-1
 621 801 l 1,11,12
 697 801 697 801 750 819 c 128,-1,13
 803 837 803 837 836.5 871 c 128,-1,14
 870 905 870 905 885.5 954 c 128,-1,15
 901 1003 901 1003 901 1065 c 0,16,17
 901 1126 901 1126 885.5 1174 c 128,-1,18
 870 1222 870 1222 838 1255.5 c 128,-1,19
 806 1289 806 1289 757.5 1307 c 128,-1,20
 709 1325 709 1325 643 1325 c 0,21,22
 638 1325 638 1325 632 1325 c 128,-1,23
 626 1325 626 1325 621 1324 c 1,24,-1
 621 1421 l 1,25,-1
 793 1421 l 2,26,27
 1031 1421 1031 1421 1144.5 1332.5 c 128,-1,28
 1258 1244 1258 1244 1258 1081 c 0,29,30
 1258 1007 1258 1007 1230 952 c 128,-1,31
 1202 897 1202 897 1154 858 c 128,-1,32
 1106 819 1106 819 1042 796 c 128,-1,33
 978 773 978 773 906 764 c 1,34,-1
 906 760 l 1,35,36
 993 757 993 757 1072 733.5 c 128,-1,37
 1151 710 1151 710 1210 665.5 c 128,-1,38
 1269 621 1269 621 1304 554 c 128,-1,39
 1339 487 1339 487 1339 397 c 0,40,41
 1339 316 1339 316 1306 243.5 c 128,-1,42
 1273 171 1273 171 1205 117 c 128,-1,43
 1137 63 1137 63 1032.5 31.5 c 128,-1,44
 928 0 928 0 785 0 c 2,45,-1
 621 0 l 1,46,-1
 621 110 l 1,0,1
532 0 m 1,47,-1
 57 0 l 1,48,-1
 57 74 l 1,49,50
 84 85 84 85 109.5 90.5 c 128,-1,51
 135 96 135 96 155.5 106 c 128,-1,52
 176 116 176 116 188 134.5 c 128,-1,53
 200 153 200 153 200 190 c 2,54,-1
 200 1229 l 2,55,56
 200 1266 200 1266 188 1285 c 128,-1,57
 176 1304 176 1304 155.5 1314 c 128,-1,58
 135 1324 135 1324 109.5 1329.5 c 128,-1,59
 84 1335 84 1335 57 1346 c 1,60,-1
 57 1421 l 1,61,-1
 532 1421 l 1,62,-1
 532 0 l 1,47,-1
EndSplineSet
EndChar

StartChar: C
Encoding: 67 67 38
Width: 1282
Flags: W
LayerCount: 2
Fore
SplineSet
762 97 m 1,0,1
 831 98 831 98 880.5 120.5 c 128,-1,2
 930 143 930 143 964.5 178.5 c 128,-1,3
 999 214 999 214 1020 259 c 128,-1,4
 1041 304 1041 304 1053.5 350 c 128,-1,5
 1066 396 1066 396 1071 438.5 c 128,-1,6
 1076 481 1076 481 1078 512 c 1,7,-1
 1193 473 l 1,8,9
 1185 376 1185 376 1159 286.5 c 128,-1,10
 1133 197 1133 197 1082.5 128 c 128,-1,11
 1032 59 1032 59 953.5 16 c 128,-1,12
 875 -27 875 -27 762 -31 c 1,13,-1
 762 97 l 1,0,1
673 -31 m 1,14,15
 532 -25 532 -25 418.5 33 c 128,-1,16
 305 91 305 91 224.5 189.5 c 128,-1,17
 144 288 144 288 100.5 420.5 c 128,-1,18
 57 553 57 553 57 709 c 0,19,20
 57 869 57 869 103.5 1005.5 c 128,-1,21
 150 1142 150 1142 232.5 1241 c 128,-1,22
 315 1340 315 1340 428 1396 c 128,-1,23
 541 1452 541 1452 673 1452 c 1,24,-1
 673 1324 l 1,25,26
 602 1313 602 1313 555 1266 c 128,-1,27
 508 1219 508 1219 479.5 1141 c 128,-1,28
 451 1063 451 1063 439.5 957.5 c 128,-1,29
 428 852 428 852 428 723 c 0,30,31
 428 596 428 596 441 488 c 128,-1,32
 454 380 454 380 483 298 c 128,-1,33
 512 216 512 216 558.5 164 c 128,-1,34
 605 112 605 112 673 97 c 1,35,-1
 673 -31 l 1,14,15
762 1452 m 1,36,37
 812 1445 812 1445 853.5 1430.5 c 128,-1,38
 895 1416 895 1416 926 1401 c 128,-1,39
 957 1386 957 1386 977.5 1375 c 128,-1,40
 998 1364 998 1364 1006 1364 c 0,41,42
 1026 1364 1026 1364 1036.5 1380 c 128,-1,43
 1047 1396 1047 1396 1059 1421 c 1,44,-1
 1154 1421 l 1,45,-1
 1154 905 l 1,46,-1
 1078 905 l 1,47,48
 1058 933 1058 933 1040.5 973.5 c 128,-1,49
 1023 1014 1023 1014 1005 1058.5 c 128,-1,50
 987 1103 987 1103 965.5 1148 c 128,-1,51
 944 1193 944 1193 915.5 1230 c 128,-1,52
 887 1267 887 1267 849.5 1292.5 c 128,-1,53
 812 1318 812 1318 762 1324 c 1,54,-1
 762 1452 l 1,36,37
EndSplineSet
EndChar

StartChar: D
Encoding: 68 68 39
Width: 1515
Flags: W
LayerCount: 2
Fore
SplineSet
539 0 m 1,0,-1
 64 0 l 1,1,-1
 64 74 l 1,2,3
 91 85 91 85 116.5 90.5 c 128,-1,4
 142 96 142 96 162.5 106 c 128,-1,5
 183 116 183 116 195 134.5 c 128,-1,6
 207 153 207 153 207 190 c 2,7,-1
 207 1229 l 2,8,9
 207 1266 207 1266 195 1285 c 128,-1,10
 183 1304 183 1304 162.5 1314 c 128,-1,11
 142 1324 142 1324 116.5 1329.5 c 128,-1,12
 91 1335 91 1335 64 1346 c 1,13,-1
 64 1421 l 1,14,-1
 539 1421 l 1,15,-1
 539 0 l 1,0,-1
628 100 m 1,16,17
 644 98 644 98 663 97 c 128,-1,18
 682 96 682 96 699 96 c 0,19,20
 796 96 796 96 865.5 126.5 c 128,-1,21
 935 157 935 157 980 229 c 128,-1,22
 1025 301 1025 301 1046 419 c 128,-1,23
 1067 537 1067 537 1067 711 c 0,24,25
 1067 870 1067 870 1046 986 c 128,-1,26
 1025 1102 1025 1102 981 1177 c 128,-1,27
 937 1252 937 1252 868 1288.5 c 128,-1,28
 799 1325 799 1325 703 1325 c 0,29,30
 682 1325 682 1325 662 1324 c 128,-1,31
 642 1323 642 1323 628 1321 c 1,32,-1
 628 1421 l 1,33,-1
 726 1421 l 2,34,35
 851 1421 851 1421 952.5 1393.5 c 128,-1,36
 1054 1366 1054 1366 1133 1317 c 128,-1,37
 1212 1268 1212 1268 1269.5 1201 c 128,-1,38
 1327 1134 1327 1134 1364.5 1055 c 128,-1,39
 1402 976 1402 976 1420 888.5 c 128,-1,40
 1438 801 1438 801 1438 711 c 0,41,42
 1438 567 1438 567 1394.5 438 c 128,-1,43
 1351 309 1351 309 1263.5 211.5 c 128,-1,44
 1176 114 1176 114 1044.5 57 c 128,-1,45
 913 0 913 0 737 0 c 2,46,-1
 628 0 l 1,47,-1
 628 100 l 1,16,17
EndSplineSet
EndChar

StartChar: E
Encoding: 69 69 40
Width: 1344
Flags: W
LayerCount: 2
Fore
SplineSet
550 1421 m 1,0,-1
 550 0 l 1,1,-1
 77 0 l 1,2,-1
 77 74 l 1,3,4
 104 85 104 85 129.5 90.5 c 128,-1,5
 155 96 155 96 175 106 c 128,-1,6
 195 116 195 116 207.5 134.5 c 128,-1,7
 220 153 220 153 220 190 c 2,8,-1
 220 1229 l 2,9,10
 220 1266 220 1266 207.5 1285 c 128,-1,11
 195 1304 195 1304 175 1314 c 128,-1,12
 155 1324 155 1324 129.5 1329.5 c 128,-1,13
 104 1335 104 1335 77 1346 c 1,14,-1
 77 1421 l 1,15,-1
 550 1421 l 1,0,-1
639 100 m 1,16,17
 664 98 664 98 691 97 c 128,-1,18
 718 96 718 96 747 96 c 0,19,20
 819 96 819 96 871 110 c 128,-1,21
 923 124 923 124 960.5 147 c 128,-1,22
 998 170 998 170 1022.5 201 c 128,-1,23
 1047 232 1047 232 1064.5 265.5 c 128,-1,24
 1082 299 1082 299 1094.5 333.5 c 128,-1,25
 1107 368 1107 368 1119 399 c 128,-1,26
 1131 430 1131 430 1145.5 455.5 c 128,-1,27
 1160 481 1160 481 1181 496 c 1,28,-1
 1249 496 l 1,29,-1
 1249 0 l 1,30,-1
 639 0 l 1,31,-1
 639 100 l 1,16,17
639 1421 m 1,32,-1
 865 1421 l 2,33,34
 952 1421 952 1421 1034.5 1423 c 128,-1,35
 1117 1425 1117 1425 1192 1436 c 1,36,-1
 1192 952 l 1,37,-1
 1122 952 l 1,38,39
 1097 976 1097 976 1080 1013 c 128,-1,40
 1063 1050 1063 1050 1045.5 1091.5 c 128,-1,41
 1028 1133 1028 1133 1006 1174.5 c 128,-1,42
 984 1216 984 1216 949 1249.5 c 128,-1,43
 914 1283 914 1283 861.5 1304 c 128,-1,44
 809 1325 809 1325 731 1325 c 0,45,46
 708 1325 708 1325 683.5 1324.5 c 128,-1,47
 659 1324 659 1324 639 1322 c 1,48,-1
 639 1421 l 1,32,-1
639 794 m 1,49,50
 654 795 654 795 669 796 c 128,-1,51
 684 797 684 797 698 799 c 0,52,53
 739 803 739 803 764.5 814 c 128,-1,54
 790 825 790 825 806 840.5 c 128,-1,55
 822 856 822 856 831 875 c 128,-1,56
 840 894 840 894 849 914 c 128,-1,57
 858 934 858 934 869 953.5 c 128,-1,58
 880 973 880 973 899 991 c 1,59,-1
 972 991 l 1,60,-1
 972 496 l 1,61,-1
 899 496 l 1,62,63
 879 512 879 512 868 531 c 128,-1,64
 857 550 857 550 848.5 569 c 128,-1,65
 840 588 840 588 830.5 606 c 128,-1,66
 821 624 821 624 805 639 c 128,-1,67
 789 654 789 654 764 665 c 128,-1,68
 739 676 739 676 698 680 c 0,69,70
 684 682 684 682 668.5 683.5 c 128,-1,71
 653 685 653 685 639 685 c 1,72,-1
 639 794 l 1,49,50
EndSplineSet
EndChar

StartChar: F
Encoding: 70 70 41
Width: 1238
Flags: W
LayerCount: 2
Fore
SplineSet
539 1421 m 1,0,-1
 539 244 l 2,1,2
 539 199 539 199 545.5 172.5 c 128,-1,3
 552 146 552 146 564 130.5 c 128,-1,4
 576 115 576 115 592.5 108.5 c 128,-1,5
 609 102 609 102 628.5 98 c 128,-1,6
 648 94 648 94 670.5 89.5 c 128,-1,7
 693 85 693 85 717 74 c 1,8,-1
 717 0 l 1,9,-1
 64 0 l 1,10,-1
 64 74 l 1,11,12
 91 85 91 85 116.5 90.5 c 128,-1,13
 142 96 142 96 162.5 106 c 128,-1,14
 183 116 183 116 195 134.5 c 128,-1,15
 207 153 207 153 207 190 c 2,16,-1
 207 1184 l 2,17,18
 207 1228 207 1228 201 1254 c 128,-1,19
 195 1280 195 1280 185 1294 c 128,-1,20
 175 1308 175 1308 161.5 1314 c 128,-1,21
 148 1320 148 1320 132 1323 c 128,-1,22
 116 1326 116 1326 98.5 1330.5 c 128,-1,23
 81 1335 81 1335 64 1346 c 1,24,-1
 64 1421 l 1,25,-1
 539 1421 l 1,0,-1
628 1421 m 1,26,-1
 935 1421 l 2,27,28
 1001 1421 1001 1421 1063.5 1423 c 128,-1,29
 1126 1425 1126 1425 1183 1436 c 1,30,-1
 1183 952 l 1,31,-1
 1113 952 l 1,32,33
 1083 977 1083 977 1066 1014.5 c 128,-1,34
 1049 1052 1049 1052 1033 1093.5 c 128,-1,35
 1017 1135 1017 1135 996.5 1176 c 128,-1,36
 976 1217 976 1217 938.5 1250.5 c 128,-1,37
 901 1284 901 1284 841 1304.5 c 128,-1,38
 781 1325 781 1325 687 1325 c 0,39,40
 655 1325 655 1325 628 1322 c 1,41,-1
 628 1421 l 1,26,-1
628 795 m 1,42,-1
 681 799 l 2,43,44
 722 802 722 802 748 812.5 c 128,-1,45
 774 823 774 823 790 838.5 c 128,-1,46
 806 854 806 854 815 873 c 128,-1,47
 824 892 824 892 832.5 912.5 c 128,-1,48
 841 933 841 933 852 953.5 c 128,-1,49
 863 974 863 974 881 991 c 1,50,-1
 955 991 l 1,51,-1
 955 496 l 1,52,-1
 881 496 l 1,53,54
 862 512 862 512 851.5 531 c 128,-1,55
 841 550 841 550 832.5 569.5 c 128,-1,56
 824 589 824 589 815 607.5 c 128,-1,57
 806 626 806 626 790 641 c 128,-1,58
 774 656 774 656 748.5 666.5 c 128,-1,59
 723 677 723 677 681 680 c 2,60,-1
 628 684 l 1,61,-1
 628 795 l 1,42,-1
EndSplineSet
EndChar

StartChar: G
Encoding: 71 71 42
Width: 1408
Flags: W
LayerCount: 2
Fore
SplineSet
662 -31 m 1,0,-1
 641 -31 l 2,1,2
 512 -31 512 -31 405 27.5 c 128,-1,3
 298 86 298 86 221.5 187 c 128,-1,4
 145 288 145 288 102.5 423 c 128,-1,5
 60 558 60 558 60 711 c 0,6,7
 60 810 60 810 79.5 903 c 128,-1,8
 99 996 99 996 136 1077.5 c 128,-1,9
 173 1159 173 1159 226 1226.5 c 128,-1,10
 279 1294 279 1294 346 1343 c 128,-1,11
 413 1392 413 1392 492.5 1420.5 c 128,-1,12
 572 1449 572 1449 662 1452 c 1,13,-1
 662 1324 l 1,14,15
 600 1310 600 1310 556.5 1262 c 128,-1,16
 513 1214 513 1214 485 1134.5 c 128,-1,17
 457 1055 457 1055 444 943.5 c 128,-1,18
 431 832 431 832 431 690 c 0,19,20
 431 558 431 558 443.5 453 c 128,-1,21
 456 348 456 348 484 272.5 c 128,-1,22
 512 197 512 197 556 152.5 c 128,-1,23
 600 108 600 108 662 98 c 1,24,-1
 662 -31 l 1,0,-1
751 1452 m 1,25,26
 814 1446 814 1446 863 1429 c 128,-1,27
 912 1412 912 1412 946.5 1394 c 128,-1,28
 981 1376 981 1376 1002.5 1362 c 128,-1,29
 1024 1348 1024 1348 1033 1348 c 0,30,31
 1051 1348 1051 1348 1063 1364.5 c 128,-1,32
 1075 1381 1075 1381 1092 1421 c 1,33,-1
 1182 1421 l 1,34,-1
 1182 901 l 1,35,-1
 1108 901 l 1,36,37
 1088 924 1088 924 1073 963.5 c 128,-1,38
 1058 1003 1058 1003 1041.5 1049.5 c 128,-1,39
 1025 1096 1025 1096 1003.5 1144 c 128,-1,40
 982 1192 982 1192 949 1231 c 128,-1,41
 916 1270 916 1270 868 1296 c 128,-1,42
 820 1322 820 1322 751 1324 c 1,43,-1
 751 1452 l 1,25,26
751 97 m 1,44,45
 832 106 832 106 865.5 162.5 c 128,-1,46
 899 219 899 219 899 330 c 0,47,48
 899 379 899 379 896.5 420.5 c 128,-1,49
 894 462 894 462 889 496 c 0,50,51
 884 538 884 538 866.5 557.5 c 128,-1,52
 849 577 849 577 825.5 586 c 128,-1,53
 802 595 802 595 776 599 c 128,-1,54
 750 603 750 603 728 614 c 1,55,-1
 728 692 l 1,56,-1
 1339 692 l 1,57,58
 1334 674 1334 674 1327.5 653.5 c 128,-1,59
 1321 633 1321 633 1321 610 c 1,60,61
 1267 586 1267 586 1249 548.5 c 128,-1,62
 1231 511 1231 511 1231 457 c 2,63,-1
 1231 336 l 2,64,65
 1231 215 1231 215 1192.5 144 c 128,-1,66
 1154 73 1154 73 1088 35.5 c 128,-1,67
 1022 -2 1022 -2 935 -14.5 c 128,-1,68
 848 -27 848 -27 751 -31 c 1,69,-1
 751 97 l 1,44,45
EndSplineSet
EndChar

StartChar: H
Encoding: 72 72 43
Width: 1537
Flags: W
LayerCount: 2
Fore
SplineSet
541 190 m 2,0,1
 541 153 541 153 553 134.5 c 128,-1,2
 565 116 565 116 584 106 c 128,-1,3
 603 96 603 96 626 90.5 c 128,-1,4
 649 85 649 85 671 74 c 1,5,-1
 671 0 l 1,6,-1
 67 0 l 1,7,-1
 67 74 l 1,8,9
 94 85 94 85 119.5 90.5 c 128,-1,10
 145 96 145 96 165 106 c 128,-1,11
 185 116 185 116 197 134.5 c 128,-1,12
 209 153 209 153 209 190 c 2,13,-1
 209 1180 l 2,14,15
 209 1225 209 1225 203.5 1252 c 128,-1,16
 198 1279 198 1279 188 1293.5 c 128,-1,17
 178 1308 178 1308 164.5 1313.5 c 128,-1,18
 151 1319 151 1319 135 1322.5 c 128,-1,19
 119 1326 119 1326 101.5 1330 c 128,-1,20
 84 1334 84 1334 67 1346 c 1,21,-1
 67 1421 l 1,22,-1
 671 1421 l 1,23,-1
 671 1346 l 1,24,25
 649 1335 649 1335 626 1329.5 c 128,-1,26
 603 1324 603 1324 584 1314 c 128,-1,27
 565 1304 565 1304 553 1285 c 128,-1,28
 541 1266 541 1266 541 1229 c 2,29,-1
 541 190 l 2,0,1
994 1229 m 2,30,31
 994 1266 994 1266 982 1285 c 128,-1,32
 970 1304 970 1304 951 1313.5 c 128,-1,33
 932 1323 932 1323 909 1329 c 128,-1,34
 886 1335 886 1335 865 1346 c 1,35,-1
 865 1421 l 1,36,-1
 1469 1421 l 1,37,-1
 1469 1346 l 1,38,39
 1442 1335 1442 1335 1416.5 1329.5 c 128,-1,40
 1391 1324 1391 1324 1370.5 1314 c 128,-1,41
 1350 1304 1350 1304 1338 1285 c 128,-1,42
 1326 1266 1326 1266 1326 1229 c 2,43,-1
 1326 240 l 2,44,45
 1326 195 1326 195 1331.5 168 c 128,-1,46
 1337 141 1337 141 1347.5 126 c 128,-1,47
 1358 111 1358 111 1371.5 105 c 128,-1,48
 1385 99 1385 99 1401 96 c 128,-1,49
 1417 93 1417 93 1434 89 c 128,-1,50
 1451 85 1451 85 1469 74 c 1,51,-1
 1469 0 l 1,52,-1
 865 0 l 1,53,-1
 865 74 l 1,54,55
 886 85 886 85 909 91 c 128,-1,56
 932 97 932 97 951 106.5 c 128,-1,57
 970 116 970 116 982 134.5 c 128,-1,58
 994 153 994 153 994 190 c 2,59,-1
 994 1229 l 2,30,31
905 684 m 1,60,-1
 630 684 l 1,61,-1
 630 797 l 1,62,-1
 905 797 l 1,63,-1
 905 684 l 1,60,-1
EndSplineSet
EndChar

StartChar: I
Encoding: 73 73 44
Width: 767
Flags: W
LayerCount: 2
Fore
SplineSet
217 1180 m 2,0,1
 217 1224 217 1224 211.5 1251 c 128,-1,2
 206 1278 206 1278 196 1292.5 c 128,-1,3
 186 1307 186 1307 172.5 1313 c 128,-1,4
 159 1319 159 1319 143 1323 c 128,-1,5
 127 1327 127 1327 109.5 1331 c 128,-1,6
 92 1335 92 1335 74 1346 c 1,7,-1
 74 1421 l 1,8,-1
 689 1421 l 1,9,-1
 689 1346 l 1,10,11
 671 1335 671 1335 654 1331 c 128,-1,12
 637 1327 637 1327 621 1323 c 128,-1,13
 605 1319 605 1319 592 1313 c 128,-1,14
 579 1307 579 1307 569 1292.5 c 128,-1,15
 559 1278 559 1278 553.5 1251 c 128,-1,16
 548 1224 548 1224 548 1180 c 2,17,-1
 548 240 l 2,18,19
 548 195 548 195 553.5 168 c 128,-1,20
 559 141 559 141 569 126.5 c 128,-1,21
 579 112 579 112 592.5 106 c 128,-1,22
 606 100 606 100 621.5 96.5 c 128,-1,23
 637 93 637 93 654 89 c 128,-1,24
 671 85 671 85 689 74 c 1,25,-1
 689 0 l 1,26,-1
 74 0 l 1,27,-1
 74 74 l 1,28,29
 101 85 101 85 126.5 90.5 c 128,-1,30
 152 96 152 96 172 106 c 128,-1,31
 192 116 192 116 204.5 134.5 c 128,-1,32
 217 153 217 153 217 190 c 2,33,-1
 217 1180 l 2,0,1
EndSplineSet
EndChar

StartChar: J
Encoding: 74 74 45
Width: 1089
Flags: W
LayerCount: 2
Fore
SplineSet
358 -31 m 1,0,1
 287 -23 287 -23 223 2.5 c 128,-1,2
 159 28 159 28 111 70.5 c 128,-1,3
 63 113 63 113 35 172.5 c 128,-1,4
 7 232 7 232 7 309 c 0,5,6
 7 357 7 357 20.5 395.5 c 128,-1,7
 34 434 34 434 59 461 c 128,-1,8
 84 488 84 488 119 503 c 128,-1,9
 154 518 154 518 198 518 c 0,10,11
 232 518 232 518 262.5 507.5 c 128,-1,12
 293 497 293 497 316 477 c 128,-1,13
 339 457 339 457 352 427 c 128,-1,14
 365 397 365 397 365 357 c 0,15,16
 365 324 365 324 351 295.5 c 128,-1,17
 337 267 337 267 315.5 244 c 128,-1,18
 294 221 294 221 267.5 204 c 128,-1,19
 241 187 241 187 217 178 c 1,20,21
 223 152 223 152 259.5 127.5 c 128,-1,22
 296 103 296 103 358 97 c 1,23,-1
 358 -31 l 1,0,1
447 97 m 1,24,25
 507 109 507 109 539 150 c 128,-1,26
 571 191 571 191 571 260 c 2,27,-1
 571 1229 l 2,28,29
 571 1266 571 1266 558.5 1285 c 128,-1,30
 546 1304 546 1304 524.5 1313.5 c 128,-1,31
 503 1323 503 1323 473.5 1329 c 128,-1,32
 444 1335 444 1335 411 1346 c 1,33,-1
 411 1421 l 1,34,-1
 1051 1421 l 1,35,-1
 1051 1346 l 1,36,37
 1022 1335 1022 1335 995 1329 c 128,-1,38
 968 1323 968 1323 947.5 1313.5 c 128,-1,39
 927 1304 927 1304 915 1285 c 128,-1,40
 903 1266 903 1266 903 1229 c 2,41,-1
 903 369 l 2,42,43
 903 264 903 264 872.5 189.5 c 128,-1,44
 842 115 842 115 783.5 67 c 128,-1,45
 725 19 725 19 640 -4.5 c 128,-1,46
 555 -28 555 -28 447 -31 c 1,47,-1
 447 97 l 1,24,25
EndSplineSet
EndChar

StartChar: K
Encoding: 75 75 46
Width: 1513
Flags: W
LayerCount: 2
Fore
SplineSet
682 858 m 1,0,-1
 1026 1188 l 2,1,2
 1052 1214 1052 1214 1065.5 1234 c 128,-1,3
 1079 1254 1079 1254 1079 1274 c 0,4,5
 1079 1293 1079 1293 1068 1303 c 128,-1,6
 1057 1313 1057 1313 1039 1319.5 c 128,-1,7
 1021 1326 1021 1326 997.5 1331.5 c 128,-1,8
 974 1337 974 1337 949 1346 c 1,9,-1
 949 1421 l 1,10,-1
 1466 1421 l 1,11,-1
 1466 1348 l 1,12,13
 1449 1335 1449 1335 1427 1329.5 c 128,-1,14
 1405 1324 1405 1324 1380 1317.5 c 128,-1,15
 1355 1311 1355 1311 1327.5 1299 c 128,-1,16
 1300 1287 1300 1287 1273 1262 c 0,17,18
 1257 1248 1257 1248 1241 1233 c 128,-1,19
 1225 1218 1225 1218 1211 1204 c 2,20,-1
 912 916 l 1,21,-1
 1349 252 l 1,22,23
 1383 195 1383 195 1410.5 163.5 c 128,-1,24
 1438 132 1438 132 1463 114.5 c 128,-1,25
 1488 97 1488 97 1510.5 88 c 128,-1,26
 1533 79 1533 79 1556 66 c 1,27,-1
 1556 0 l 1,28,-1
 916 0 l 1,29,-1
 916 74 l 1,30,31
 928 81 928 81 946.5 87.5 c 128,-1,32
 965 94 965 94 981.5 102 c 128,-1,33
 998 110 998 110 1010 121.5 c 128,-1,34
 1022 133 1022 133 1022 150 c 0,35,36
 1022 171 1022 171 1007 197.5 c 128,-1,37
 992 224 992 224 980 246 c 1,38,-1
 682 706 l 1,39,-1
 682 858 l 1,0,-1
593 190 m 2,40,41
 593 153 593 153 605 134.5 c 128,-1,42
 617 116 617 116 635.5 106 c 128,-1,43
 654 96 654 96 676 90.5 c 128,-1,44
 698 85 698 85 718 74 c 1,45,-1
 718 0 l 1,46,-1
 118 0 l 1,47,-1
 118 74 l 1,48,49
 134 85 134 85 151 89.5 c 128,-1,50
 168 94 168 94 184 97 c 128,-1,51
 200 100 200 100 214 105.5 c 128,-1,52
 228 111 228 111 238.5 124.5 c 128,-1,53
 249 138 249 138 255 163 c 128,-1,54
 261 188 261 188 261 231 c 2,55,-1
 261 1188 l 2,56,57
 261 1230 261 1230 255 1255.5 c 128,-1,58
 249 1281 249 1281 239 1295 c 128,-1,59
 229 1309 229 1309 215 1314.5 c 128,-1,60
 201 1320 201 1320 185 1323.5 c 128,-1,61
 169 1327 169 1327 152 1331 c 128,-1,62
 135 1335 135 1335 118 1346 c 1,63,-1
 118 1421 l 1,64,-1
 722 1421 l 1,65,-1
 722 1346 l 1,66,67
 701 1335 701 1335 678 1330 c 128,-1,68
 655 1325 655 1325 636 1317 c 128,-1,69
 617 1309 617 1309 605 1293.5 c 128,-1,70
 593 1278 593 1278 593 1245 c 2,71,-1
 593 190 l 2,40,41
EndSplineSet
EndChar

StartChar: L
Encoding: 76 76 47
Width: 1173
Flags: W
LayerCount: 2
Fore
SplineSet
648 97 m 1,0,1
 654 96 654 96 661 96 c 128,-1,2
 668 96 668 96 675 96 c 0,3,4
 766 96 766 96 825 120 c 128,-1,5
 884 144 884 144 921 181.5 c 128,-1,6
 958 219 958 219 979.5 265.5 c 128,-1,7
 1001 312 1001 312 1016.5 356.5 c 128,-1,8
 1032 401 1032 401 1047.5 439 c 128,-1,9
 1063 477 1063 477 1089 498 c 1,10,-1
 1157 498 l 1,11,-1
 1157 0 l 1,12,-1
 648 0 l 1,13,-1
 648 97 l 1,0,1
558 0 m 1,14,-1
 83 0 l 1,15,-1
 83 74 l 1,16,17
 110 85 110 85 135.5 90.5 c 128,-1,18
 161 96 161 96 181 106 c 128,-1,19
 201 116 201 116 213.5 134.5 c 128,-1,20
 226 153 226 153 226 190 c 2,21,-1
 226 1229 l 2,22,23
 226 1266 226 1266 213.5 1285 c 128,-1,24
 201 1304 201 1304 181 1314 c 128,-1,25
 161 1324 161 1324 135.5 1329.5 c 128,-1,26
 110 1335 110 1335 83 1346 c 1,27,-1
 83 1421 l 1,28,-1
 708 1421 l 1,29,-1
 708 1346 l 1,30,31
 678 1335 678 1335 651 1329.5 c 128,-1,32
 624 1324 624 1324 603.5 1314 c 128,-1,33
 583 1304 583 1304 570.5 1285 c 128,-1,34
 558 1266 558 1266 558 1229 c 2,35,-1
 558 0 l 1,14,-1
EndSplineSet
EndChar

StartChar: M
Encoding: 77 77 48
Width: 1765
Flags: W
LayerCount: 2
Fore
SplineSet
407 673 m 1,0,-1
 407 221 l 2,1,2
 407 172 407 172 422.5 148 c 128,-1,3
 438 124 438 124 461.5 111.5 c 128,-1,4
 485 99 485 99 512.5 92 c 128,-1,5
 540 85 540 85 565 70 c 1,6,-1
 565 0 l 1,7,-1
 121 0 l 1,8,-1
 121 70 l 1,9,10
 142 85 142 85 168.5 92.5 c 128,-1,11
 195 100 195 100 218.5 112 c 128,-1,12
 242 124 242 124 257.5 148 c 128,-1,13
 273 172 273 172 273 221 c 2,14,-1
 273 1030 l 1,15,-1
 407 673 l 1,0,-1
311 1180 m 2,16,17
 303 1200 303 1200 295.5 1218 c 128,-1,18
 288 1236 288 1236 280 1254 c 1,19,20
 254 1260 254 1260 226.5 1266 c 128,-1,21
 199 1272 199 1272 172.5 1278.5 c 128,-1,22
 146 1285 146 1285 122.5 1292 c 128,-1,23
 99 1299 99 1299 82 1306 c 1,24,-1
 82 1421 l 1,25,-1
 564 1421 l 1,26,-1
 997 287 l 1,27,-1
 925 0 l 1,28,-1
 753 0 l 1,29,-1
 311 1180 l 2,16,17
969 607 m 1,30,-1
 1173 1421 l 1,31,-1
 1701 1421 l 1,32,-1
 1701 1346 l 1,33,34
 1674 1335 1674 1335 1649 1329.5 c 128,-1,35
 1624 1324 1624 1324 1604 1314 c 128,-1,36
 1584 1304 1584 1304 1572 1285 c 128,-1,37
 1560 1266 1560 1266 1560 1229 c 2,38,-1
 1560 190 l 2,39,40
 1560 153 1560 153 1572 134.5 c 128,-1,41
 1584 116 1584 116 1604 106 c 128,-1,42
 1624 96 1624 96 1649 90.5 c 128,-1,43
 1674 85 1674 85 1701 74 c 1,44,-1
 1701 0 l 1,45,-1
 1092 0 l 1,46,-1
 1092 74 l 1,47,48
 1119 85 1119 85 1144.5 90.5 c 128,-1,49
 1170 96 1170 96 1190 106 c 128,-1,50
 1210 116 1210 116 1222.5 134.5 c 128,-1,51
 1235 153 1235 153 1235 190 c 2,52,-1
 1235 1206 l 1,53,-1
 1230 1206 l 1,54,-1
 1037 431 l 1,55,-1
 969 607 l 1,30,-1
EndSplineSet
EndChar

StartChar: N
Encoding: 78 78 49
Width: 1449
Flags: W
LayerCount: 2
Fore
SplineSet
1143 668 m 1,0,-1
 1143 1229 l 2,1,2
 1143 1266 1143 1266 1129.5 1285 c 128,-1,3
 1116 1304 1116 1304 1094 1314.5 c 128,-1,4
 1072 1325 1072 1325 1044 1331.5 c 128,-1,5
 1016 1338 1016 1338 987 1350 c 1,6,-1
 987 1421 l 1,7,-1
 1431 1421 l 1,8,-1
 1431 1350 l 1,9,10
 1403 1338 1403 1338 1375.5 1331.5 c 128,-1,11
 1348 1325 1348 1325 1326 1314.5 c 128,-1,12
 1304 1304 1304 1304 1290.5 1285 c 128,-1,13
 1277 1266 1277 1266 1277 1229 c 2,14,-1
 1277 470 l 1,15,-1
 1143 668 l 1,0,-1
345 966 m 1,16,-1
 345 215 l 2,17,18
 345 173 345 173 361 150 c 128,-1,19
 377 127 377 127 401.5 113.5 c 128,-1,20
 426 100 426 100 455 92 c 128,-1,21
 484 84 484 84 510 72 c 1,22,-1
 510 0 l 1,23,-1
 53 0 l 1,24,-1
 53 72 l 1,25,26
 78 84 78 84 105.5 92 c 128,-1,27
 133 100 133 100 156.5 113.5 c 128,-1,28
 180 127 180 127 195.5 150 c 128,-1,29
 211 173 211 173 211 215 c 2,30,-1
 211 1165 l 1,31,-1
 345 966 l 1,16,-1
350 1120 m 1,32,-1
 254 1260 l 1,33,-1
 174 1275 l 2,34,35
 142 1281 142 1281 110 1286.5 c 128,-1,36
 78 1292 78 1292 62 1296 c 1,37,-1
 62 1421 l 1,38,-1
 527 1421 l 1,39,-1
 1277 311 l 1,40,-1
 1277 -6 l 1,41,-1
 1104 -6 l 1,42,-1
 350 1120 l 1,32,-1
EndSplineSet
EndChar

StartChar: O
Encoding: 79 79 50
Width: 1473
Flags: W
LayerCount: 2
Fore
SplineSet
701 -31 m 1,0,1
 551 -24 551 -24 434.5 39.5 c 128,-1,2
 318 103 318 103 237.5 204.5 c 128,-1,3
 157 306 157 306 115.5 437 c 128,-1,4
 74 568 74 568 74 711 c 0,5,6
 74 806 74 806 92.5 896.5 c 128,-1,7
 111 987 111 987 146.5 1068 c 128,-1,8
 182 1149 182 1149 235 1217 c 128,-1,9
 288 1285 288 1285 356.5 1335.5 c 128,-1,10
 425 1386 425 1386 509 1416.5 c 128,-1,11
 593 1447 593 1447 691 1452 c 1,12,-1
 691 1324 l 1,13,14
 615 1312 615 1312 567 1256 c 128,-1,15
 519 1200 519 1200 492 1115.5 c 128,-1,16
 465 1031 465 1031 455 926 c 128,-1,17
 445 821 445 821 445 711 c 0,18,19
 445 600 445 600 455.5 494.5 c 128,-1,20
 466 389 466 389 494.5 305 c 128,-1,21
 523 221 523 221 573 165 c 128,-1,22
 623 109 623 109 701 97 c 1,23,-1
 701 -31 l 1,0,1
790 97 m 1,24,25
 863 107 863 107 908.5 162.5 c 128,-1,26
 954 218 954 218 980 303 c 128,-1,27
 1006 388 1006 388 1015.5 494 c 128,-1,28
 1025 600 1025 600 1025 711 c 0,29,30
 1025 784 1025 784 1020.5 856 c 128,-1,31
 1016 928 1016 928 1005 993.5 c 128,-1,32
 994 1059 994 1059 976 1116 c 128,-1,33
 958 1173 958 1173 931 1217 c 128,-1,34
 904 1261 904 1261 866.5 1289 c 128,-1,35
 829 1317 829 1317 780 1324 c 1,36,-1
 780 1452 l 1,37,38
 878 1447 878 1447 962.5 1416.5 c 128,-1,39
 1047 1386 1047 1386 1115.5 1335.5 c 128,-1,40
 1184 1285 1184 1285 1236.5 1217 c 128,-1,41
 1289 1149 1289 1149 1324.5 1068 c 128,-1,42
 1360 987 1360 987 1378.5 896.5 c 128,-1,43
 1397 806 1397 806 1397 711 c 0,44,45
 1397 615 1397 615 1379 524.5 c 128,-1,46
 1361 434 1361 434 1326 353.5 c 128,-1,47
 1291 273 1291 273 1239 204.5 c 128,-1,48
 1187 136 1187 136 1119.5 85.5 c 128,-1,49
 1052 35 1052 35 969.5 4.5 c 128,-1,50
 887 -26 887 -26 790 -31 c 1,51,-1
 790 97 l 1,24,25
EndSplineSet
EndChar

StartChar: P
Encoding: 80 80 51
Width: 1238
Flags: W
LayerCount: 2
Fore
SplineSet
562 190 m 2,0,1
 562 153 562 153 574.5 134.5 c 128,-1,2
 587 116 587 116 608 106 c 128,-1,3
 629 96 629 96 657.5 90.5 c 128,-1,4
 686 85 686 85 718 74 c 1,5,-1
 718 0 l 1,6,-1
 78 0 l 1,7,-1
 78 74 l 1,8,9
 108 85 108 85 135.5 90.5 c 128,-1,10
 163 96 163 96 184 106 c 128,-1,11
 205 116 205 116 217.5 134.5 c 128,-1,12
 230 153 230 153 230 190 c 2,13,-1
 230 1229 l 2,14,15
 230 1266 230 1266 217.5 1285 c 128,-1,16
 205 1304 205 1304 184 1314 c 128,-1,17
 163 1324 163 1324 135.5 1329.5 c 128,-1,18
 108 1335 108 1335 78 1346 c 1,19,-1
 78 1421 l 1,20,-1
 562 1421 l 1,21,-1
 562 190 l 2,0,1
651 739 m 1,22,23
 703 745 703 745 742.5 763 c 128,-1,24
 782 781 782 781 809 815 c 128,-1,25
 836 849 836 849 850 901 c 128,-1,26
 864 953 864 953 864 1028 c 0,27,28
 864 1111 864 1111 847.5 1166 c 128,-1,29
 831 1221 831 1221 802.5 1255 c 128,-1,30
 774 1289 774 1289 735 1304 c 128,-1,31
 696 1319 696 1319 651 1322 c 1,32,-1
 651 1421 l 1,33,-1
 746 1421 l 2,34,35
 872 1421 872 1421 962 1392.5 c 128,-1,36
 1052 1364 1052 1364 1109.5 1312.5 c 128,-1,37
 1167 1261 1167 1261 1193.5 1189.5 c 128,-1,38
 1220 1118 1220 1118 1220 1032 c 0,39,40
 1220 925 1220 925 1186 850.5 c 128,-1,41
 1152 776 1152 776 1085 729 c 128,-1,42
 1018 682 1018 682 917.5 660.5 c 128,-1,43
 817 639 817 639 684 639 c 2,44,-1
 651 639 l 1,45,-1
 651 739 l 1,22,23
EndSplineSet
EndChar

StartChar: Q
Encoding: 81 81 52
Width: 1473
Flags: W
LayerCount: 2
Fore
SplineSet
790 97 m 1,0,1
 863 107 863 107 908.5 162.5 c 128,-1,2
 954 218 954 218 980 303 c 128,-1,3
 1006 388 1006 388 1015.5 494 c 128,-1,4
 1025 600 1025 600 1025 711 c 0,5,6
 1025 782 1025 782 1020.5 853.5 c 128,-1,7
 1016 925 1016 925 1005.5 990.5 c 128,-1,8
 995 1056 995 1056 977 1114 c 128,-1,9
 959 1172 959 1172 931.5 1216 c 128,-1,10
 904 1260 904 1260 866.5 1288.5 c 128,-1,11
 829 1317 829 1317 780 1324 c 1,12,-1
 780 1452 l 1,13,14
 878 1447 878 1447 962.5 1416.5 c 128,-1,15
 1047 1386 1047 1386 1115.5 1335.5 c 128,-1,16
 1184 1285 1184 1285 1236.5 1217 c 128,-1,17
 1289 1149 1289 1149 1324.5 1068 c 128,-1,18
 1360 987 1360 987 1378.5 896.5 c 128,-1,19
 1397 806 1397 806 1397 711 c 0,20,21
 1397 584 1397 584 1365 465.5 c 128,-1,22
 1333 347 1333 347 1271.5 250.5 c 128,-1,23
 1210 154 1210 154 1120 85 c 128,-1,24
 1030 16 1030 16 914 -13 c 1,25,26
 996 -36 996 -36 1063 -70 c 128,-1,27
 1130 -104 1130 -104 1184.5 -136 c 128,-1,28
 1239 -168 1239 -168 1282 -190.5 c 128,-1,29
 1325 -213 1325 -213 1360 -213 c 0,30,31
 1385 -213 1385 -213 1404.5 -202 c 128,-1,32
 1424 -191 1424 -191 1444 -176 c 1,33,-1
 1515 -241 l 1,34,35
 1497 -267 1497 -267 1470 -292.5 c 128,-1,36
 1443 -318 1443 -318 1407 -337.5 c 128,-1,37
 1371 -357 1371 -357 1326 -369 c 128,-1,38
 1281 -381 1281 -381 1227 -381 c 0,39,40
 1142 -381 1142 -381 1076.5 -349.5 c 128,-1,41
 1011 -318 1011 -318 959.5 -271 c 128,-1,42
 908 -224 908 -224 867 -169 c 128,-1,43
 826 -114 826 -114 790 -67 c 1,44,-1
 790 97 l 1,0,1
701 -31 m 1,45,46
 551 -24 551 -24 434.5 39.5 c 128,-1,47
 318 103 318 103 237.5 204.5 c 128,-1,48
 157 306 157 306 115.5 437 c 128,-1,49
 74 568 74 568 74 711 c 0,50,51
 74 806 74 806 92.5 896.5 c 128,-1,52
 111 987 111 987 146.5 1068 c 128,-1,53
 182 1149 182 1149 235 1217 c 128,-1,54
 288 1285 288 1285 356.5 1335.5 c 128,-1,55
 425 1386 425 1386 509 1416.5 c 128,-1,56
 593 1447 593 1447 691 1452 c 1,57,-1
 691 1324 l 1,58,59
 640 1316 640 1316 602.5 1287.5 c 128,-1,60
 565 1259 565 1259 537.5 1215 c 128,-1,61
 510 1171 510 1171 492 1113.5 c 128,-1,62
 474 1056 474 1056 463.5 990.5 c 128,-1,63
 453 925 453 925 449 854 c 128,-1,64
 445 783 445 783 445 711 c 0,65,66
 445 600 445 600 455.5 494.5 c 128,-1,67
 466 389 466 389 494.5 305 c 128,-1,68
 523 221 523 221 573 165 c 128,-1,69
 623 109 623 109 701 97 c 1,70,-1
 701 -31 l 1,45,46
EndSplineSet
EndChar

StartChar: R
Encoding: 82 82 53
Width: 1367
Flags: W
LayerCount: 2
Fore
SplineSet
682 1421 m 1,0,-1
 800 1421 l 2,1,2
 923 1421 923 1421 1012 1392 c 128,-1,3
 1101 1363 1101 1363 1158.5 1313.5 c 128,-1,4
 1216 1264 1216 1264 1243 1198 c 128,-1,5
 1270 1132 1270 1132 1270 1059 c 0,6,7
 1270 979 1270 979 1241 916.5 c 128,-1,8
 1212 854 1212 854 1156.5 809.5 c 128,-1,9
 1101 765 1101 765 1021 739.5 c 128,-1,10
 941 714 941 714 839 709 c 1,11,-1
 839 700 l 1,12,13
 887 692 887 692 923 679 c 128,-1,14
 959 666 959 666 987.5 646.5 c 128,-1,15
 1016 627 1016 627 1039 600.5 c 128,-1,16
 1062 574 1062 574 1083 539 c 0,17,18
 1103 506 1103 506 1120.5 463.5 c 128,-1,19
 1138 421 1138 421 1154.5 376.5 c 128,-1,20
 1171 332 1171 332 1187 289.5 c 128,-1,21
 1203 247 1203 247 1221 214 c 128,-1,22
 1239 181 1239 181 1259 160.5 c 128,-1,23
 1279 140 1279 140 1303 140 c 0,24,25
 1319 140 1319 140 1329 151 c 128,-1,26
 1339 162 1339 162 1348 175.5 c 128,-1,27
 1357 189 1357 189 1368 200.5 c 128,-1,28
 1379 212 1379 212 1398 212 c 0,29,30
 1407 212 1407 212 1410 211 c 1,31,-1
 1410 133 l 1,32,33
 1370 61 1370 61 1305 22.5 c 128,-1,34
 1240 -16 1240 -16 1134 -16 c 0,35,36
 1067 -16 1067 -16 1020.5 5 c 128,-1,37
 974 26 974 26 942 62 c 128,-1,38
 910 98 910 98 889 145 c 128,-1,39
 868 192 868 192 852 245 c 128,-1,40
 836 298 836 298 822 352.5 c 128,-1,41
 808 407 808 407 790 457.5 c 128,-1,42
 772 508 772 508 746.5 551.5 c 128,-1,43
 721 595 721 595 682 625 c 1,44,-1
 682 772 l 1,45,46
 737 777 737 777 780 791.5 c 128,-1,47
 823 806 823 806 852 836.5 c 128,-1,48
 881 867 881 867 896.5 915.5 c 128,-1,49
 912 964 912 964 912 1038 c 0,50,51
 912 1119 912 1119 898.5 1172.5 c 128,-1,52
 885 1226 885 1226 857 1258.5 c 128,-1,53
 829 1291 829 1291 785.5 1306 c 128,-1,54
 742 1321 742 1321 682 1324 c 1,55,-1
 682 1421 l 1,0,-1
593 1421 m 1,56,-1
 593 190 l 2,57,58
 593 153 593 153 605.5 134.5 c 128,-1,59
 618 116 618 116 638.5 106 c 128,-1,60
 659 96 659 96 684.5 90.5 c 128,-1,61
 710 85 710 85 737 74 c 1,62,-1
 737 0 l 1,63,-1
 120 0 l 1,64,-1
 120 74 l 1,65,66
 147 85 147 85 172.5 90.5 c 128,-1,67
 198 96 198 96 218 106 c 128,-1,68
 238 116 238 116 250.5 134.5 c 128,-1,69
 263 153 263 153 263 190 c 2,70,-1
 263 1229 l 2,71,72
 263 1266 263 1266 250.5 1285 c 128,-1,73
 238 1304 238 1304 218 1314 c 128,-1,74
 198 1324 198 1324 172.5 1329.5 c 128,-1,75
 147 1335 147 1335 120 1346 c 1,76,-1
 120 1421 l 1,77,-1
 593 1421 l 1,56,-1
EndSplineSet
EndChar

StartChar: S
Encoding: 83 83 54
Width: 1217
Flags: W
LayerCount: 2
Fore
SplineSet
640 1452 m 1,0,1
 689 1444 689 1444 726.5 1428.5 c 128,-1,2
 764 1413 764 1413 791 1398 c 128,-1,3
 818 1383 818 1383 836 1371.5 c 128,-1,4
 854 1360 854 1360 864 1360 c 0,5,6
 887 1360 887 1360 902 1378.5 c 128,-1,7
 917 1397 917 1397 935 1421 c 1,8,-1
 1025 1421 l 1,9,-1
 1025 936 l 1,10,-1
 949 936 l 1,11,12
 928 958 928 958 910.5 992.5 c 128,-1,13
 893 1027 893 1027 875 1067 c 128,-1,14
 857 1107 857 1107 836.5 1148.5 c 128,-1,15
 816 1190 816 1190 789 1225.5 c 128,-1,16
 762 1261 762 1261 725.5 1287.5 c 128,-1,17
 689 1314 689 1314 640 1324 c 1,18,-1
 640 1452 l 1,0,1
551 -29 m 1,19,20
 490 -24 490 -24 442 -9.5 c 128,-1,21
 394 5 394 5 358 21 c 128,-1,22
 322 37 322 37 297 49 c 128,-1,23
 272 61 272 61 257 61 c 0,24,25
 234 61 234 61 219 42 c 128,-1,26
 204 23 204 23 195 1 c 1,27,-1
 94 1 l 1,28,-1
 94 524 l 1,29,-1
 161 524 l 1,30,31
 187 508 187 508 206 472 c 128,-1,32
 225 436 225 436 244 391 c 128,-1,33
 263 346 263 346 286.5 297 c 128,-1,34
 310 248 310 248 344.5 206 c 128,-1,35
 379 164 379 164 429 134 c 128,-1,36
 479 104 479 104 551 97 c 1,37,-1
 551 -29 l 1,19,20
640 97 m 1,38,39
 737 108 737 108 792.5 165 c 128,-1,40
 848 222 848 222 848 319 c 0,41,42
 848 384 848 384 815.5 430 c 128,-1,43
 783 476 783 476 730 511 c 128,-1,44
 677 546 677 546 609 574 c 128,-1,45
 541 602 541 602 470 631 c 128,-1,46
 399 660 399 660 331 693.5 c 128,-1,47
 263 727 263 727 210 773 c 128,-1,48
 157 819 157 819 124.5 882 c 128,-1,49
 92 945 92 945 92 1032 c 0,50,51
 92 1106 92 1106 122 1180.5 c 128,-1,52
 152 1255 152 1255 210.5 1315 c 128,-1,53
 269 1375 269 1375 354.5 1413 c 128,-1,54
 440 1451 440 1451 551 1452 c 1,55,-1
 551 1324 l 1,56,57
 470 1316 470 1316 420.5 1272 c 128,-1,58
 371 1228 371 1228 371 1159 c 0,59,60
 371 1100 371 1100 403.5 1058 c 128,-1,61
 436 1016 436 1016 489 983.5 c 128,-1,62
 542 951 542 951 610 924.5 c 128,-1,63
 678 898 678 898 748.5 869.5 c 128,-1,64
 819 841 819 841 887 806.5 c 128,-1,65
 955 772 955 772 1008 724 c 128,-1,66
 1061 676 1061 676 1093.5 611 c 128,-1,67
 1126 546 1126 546 1126 455 c 0,68,69
 1126 365 1126 365 1096.5 280 c 128,-1,70
 1067 195 1067 195 1006.5 128 c 128,-1,71
 946 61 946 61 854.5 18 c 128,-1,72
 763 -25 763 -25 640 -31 c 1,73,-1
 640 97 l 1,38,39
EndSplineSet
EndChar

StartChar: T
Encoding: 84 84 55
Width: 1283
Flags: W
LayerCount: 2
Fore
SplineSet
386 1320 m 1,0,1
 323 1314 323 1314 284.5 1291.5 c 128,-1,2
 246 1269 246 1269 222.5 1236 c 128,-1,3
 199 1203 199 1203 186.5 1163.5 c 128,-1,4
 174 1124 174 1124 162 1085.5 c 128,-1,5
 150 1047 150 1047 135 1012 c 128,-1,6
 120 977 120 977 92 954 c 1,7,-1
 30 954 l 1,8,-1
 30 1436 l 1,9,-1
 132 1425 l 1,10,11
 149 1421 149 1421 173 1421 c 2,12,-1
 386 1421 l 1,13,-1
 386 1320 l 1,0,1
808 248 m 2,14,15
 808 226 808 226 809.5 205 c 128,-1,16
 811 184 811 184 815 166 c 1,17,18
 819 137 819 137 836.5 123 c 128,-1,19
 854 109 854 109 877 102 c 128,-1,20
 900 95 900 95 925.5 90 c 128,-1,21
 951 85 951 85 972 74 c 1,22,-1
 972 0 l 1,23,-1
 308 0 l 1,24,-1
 308 74 l 1,25,26
 340 85 340 85 370 92.5 c 128,-1,27
 400 100 400 100 423.5 112.5 c 128,-1,28
 447 125 447 125 461 145.5 c 128,-1,29
 475 166 475 166 475 203 c 2,30,-1
 475 1421 l 1,31,-1
 808 1421 l 1,32,-1
 808 248 l 2,14,15
897 1421 m 1,33,-1
 1110 1421 l 2,34,35
 1134 1421 1134 1421 1151 1425 c 1,36,-1
 1253 1436 l 1,37,-1
 1253 954 l 1,38,-1
 1191 954 l 1,39,40
 1163 977 1163 977 1148 1012 c 128,-1,41
 1133 1047 1133 1047 1121 1085.5 c 128,-1,42
 1109 1124 1109 1124 1096 1163.5 c 128,-1,43
 1083 1203 1083 1203 1060 1236 c 128,-1,44
 1037 1269 1037 1269 998.5 1291.5 c 128,-1,45
 960 1314 960 1314 897 1320 c 1,46,-1
 897 1421 l 1,33,-1
EndSplineSet
EndChar

StartChar: U
Encoding: 85 85 56
Width: 1408
Flags: W
LayerCount: 2
Fore
SplineSet
854 97 m 1,0,1
 931 102 931 102 982 124.5 c 128,-1,2
 1033 147 1033 147 1063 188.5 c 128,-1,3
 1093 230 1093 230 1105 290.5 c 128,-1,4
 1117 351 1117 351 1117 432 c 2,5,-1
 1117 1223 l 2,6,7
 1117 1265 1117 1265 1102.5 1285.5 c 128,-1,8
 1088 1306 1088 1306 1065 1316.5 c 128,-1,9
 1042 1327 1042 1327 1014.5 1332.5 c 128,-1,10
 987 1338 987 1338 961 1350 c 1,11,-1
 961 1421 l 1,12,-1
 1399 1421 l 1,13,-1
 1399 1350 l 1,14,15
 1377 1339 1377 1339 1351.5 1334 c 128,-1,16
 1326 1329 1326 1329 1304.5 1319.5 c 128,-1,17
 1283 1310 1283 1310 1268.5 1291 c 128,-1,18
 1254 1272 1254 1272 1254 1233 c 2,19,-1
 1254 444 l 2,20,21
 1254 339 1254 339 1233.5 257 c 128,-1,22
 1213 175 1213 175 1166 115 c 128,-1,23
 1119 55 1119 55 1042.5 18.5 c 128,-1,24
 966 -18 966 -18 854 -31 c 1,25,-1
 854 97 l 1,0,1
765 -31 m 1,26,27
 760 -31 760 -31 755.5 -31.5 c 128,-1,28
 751 -32 751 -32 746 -32 c 0,29,30
 597 -32 597 -32 490 -6.5 c 128,-1,31
 383 19 383 19 314 68.5 c 128,-1,32
 245 118 245 118 212.5 190.5 c 128,-1,33
 180 263 180 263 180 358 c 2,34,-1
 180 1233 l 2,35,36
 180 1272 180 1272 166 1290 c 128,-1,37
 152 1308 152 1308 130.5 1317 c 128,-1,38
 109 1326 109 1326 83.5 1331.5 c 128,-1,39
 58 1337 58 1337 35 1350 c 1,40,-1
 35 1421 l 1,41,-1
 671 1421 l 1,42,-1
 671 1350 l 1,43,44
 643 1339 643 1339 616 1334.5 c 128,-1,45
 589 1330 589 1330 568 1321 c 128,-1,46
 547 1312 547 1312 534 1294 c 128,-1,47
 521 1276 521 1276 521 1239 c 2,48,-1
 521 399 l 2,49,50
 521 336 521 336 533 283 c 128,-1,51
 545 230 545 230 573.5 191 c 128,-1,52
 602 152 602 152 649 127.5 c 128,-1,53
 696 103 696 103 765 97 c 1,54,-1
 765 -31 l 1,26,27
EndSplineSet
EndChar

StartChar: V
Encoding: 86 86 57
Width: 1217
Flags: W
LayerCount: 2
Fore
SplineSet
752 469 m 1,0,-1
 994 1176 l 2,1,2
 1000 1194 1000 1194 1003.5 1212.5 c 128,-1,3
 1007 1231 1007 1231 1007 1245 c 0,4,5
 1007 1281 1007 1281 992 1295.5 c 128,-1,6
 977 1310 977 1310 956 1315.5 c 128,-1,7
 935 1321 935 1321 912 1324.5 c 128,-1,8
 889 1328 889 1328 873 1343 c 1,9,-1
 873 1421 l 1,10,-1
 1287 1421 l 1,11,-1
 1287 1346 l 1,12,13
 1270 1334 1270 1334 1250 1327.5 c 128,-1,14
 1230 1321 1230 1321 1210 1311.5 c 128,-1,15
 1190 1302 1190 1302 1173 1286 c 128,-1,16
 1156 1270 1156 1270 1146 1239 c 2,17,-1
 814 291 l 1,18,-1
 752 469 l 1,0,-1
787 217 m 1,19,-1
 710 0 l 1,20,-1
 537 0 l 1,21,-1
 95 1241 l 2,22,23
 83 1275 83 1275 66 1291.5 c 128,-1,24
 49 1308 49 1308 29.5 1316.5 c 128,-1,25
 10 1325 10 1325 -11 1330 c 128,-1,26
 -32 1335 -32 1335 -51 1346 c 1,27,-1
 -51 1421 l 1,28,-1
 585 1421 l 1,29,-1
 585 1348 l 1,30,31
 562 1339 562 1339 537 1333 c 128,-1,32
 512 1327 512 1327 490 1318 c 128,-1,33
 468 1309 468 1309 454 1294.5 c 128,-1,34
 440 1280 440 1280 440 1255 c 0,35,36
 440 1232 440 1232 448.5 1203 c 128,-1,37
 457 1174 457 1174 468 1149 c 1,38,-1
 787 217 l 1,19,-1
EndSplineSet
EndChar

StartChar: W
Encoding: 87 87 58
Width: 1793
Flags: W
LayerCount: 2
Fore
SplineSet
693 260 m 1,0,-1
 609 0 l 1,1,-1
 451 0 l 1,2,-1
 71 1235 l 1,3,4
 62 1274 62 1274 47.5 1293.5 c 128,-1,5
 33 1313 33 1313 16.5 1322.5 c 128,-1,6
 0 1332 0 1332 -16.5 1337 c 128,-1,7
 -33 1342 -33 1342 -46 1352 c 1,8,-1
 -46 1421 l 1,9,-1
 535 1421 l 1,10,-1
 535 1350 l 1,11,12
 515 1340 515 1340 494 1333.5 c 128,-1,13
 473 1327 473 1327 455.5 1318 c 128,-1,14
 438 1309 438 1309 426.5 1294 c 128,-1,15
 415 1279 415 1279 415 1253 c 0,16,17
 415 1222 415 1222 428 1179 c 128,-1,18
 441 1136 441 1136 457 1085 c 1,19,-1
 693 260 l 1,0,-1
1403 577 m 1,20,-1
 1577 1149 l 2,21,22
 1588 1186 1588 1186 1593.5 1210 c 128,-1,23
 1599 1234 1599 1234 1599 1255 c 0,24,25
 1599 1279 1599 1279 1585 1292.5 c 128,-1,26
 1571 1306 1571 1306 1548.5 1314.5 c 128,-1,27
 1526 1323 1526 1323 1499 1330 c 128,-1,28
 1472 1337 1472 1337 1447 1348 c 1,29,-1
 1447 1421 l 1,30,-1
 1869 1421 l 1,31,-1
 1869 1348 l 1,32,33
 1848 1336 1848 1336 1827 1327 c 128,-1,34
 1806 1318 1806 1318 1786.5 1303.5 c 128,-1,35
 1767 1289 1767 1289 1749.5 1263.5 c 128,-1,36
 1732 1238 1732 1238 1717 1192 c 2,37,-1
 1459 386 l 1,38,-1
 1403 577 l 1,20,-1
1421 268 m 1,39,-1
 1333 0 l 1,40,-1
 1179 0 l 1,41,-1
 901 889 l 1,42,-1
 897 889 l 1,43,-1
 732 374 l 1,44,-1
 674 574 l 1,45,-1
 839 1077 l 1,46,47
 828 1111 828 1111 820 1152 c 128,-1,48
 812 1193 812 1193 797 1230 c 128,-1,49
 782 1267 782 1267 754.5 1293.5 c 128,-1,50
 727 1320 727 1320 678 1325 c 1,51,52
 671 1331 671 1331 665 1342.5 c 128,-1,53
 659 1354 659 1354 659 1368 c 2,54,-1
 659 1421 l 1,55,-1
 1272 1421 l 1,56,-1
 1272 1343 l 1,57,58
 1250 1331 1250 1331 1225.5 1326 c 128,-1,59
 1201 1321 1201 1321 1180 1315 c 128,-1,60
 1159 1309 1159 1309 1145.5 1296.5 c 128,-1,61
 1132 1284 1132 1284 1132 1257 c 0,62,63
 1132 1239 1132 1239 1138 1216.5 c 128,-1,64
 1144 1194 1144 1194 1151 1176 c 1,65,-1
 1421 268 l 1,39,-1
EndSplineSet
EndChar

StartChar: X
Encoding: 88 88 59
Width: 1344
Flags: W
LayerCount: 2
Fore
SplineSet
569 492 m 1,0,-1
 411 252 l 2,1,2
 391 223 391 223 378 197.5 c 128,-1,3
 365 172 365 172 365 154 c 0,4,5
 365 130 365 130 379 118 c 128,-1,6
 393 106 393 106 414.5 99 c 128,-1,7
 436 92 436 92 461 86.5 c 128,-1,8
 486 81 486 81 508 70 c 1,9,-1
 508 0 l 1,10,-1
 9 0 l 1,11,-1
 9 70 l 1,12,13
 30 80 30 80 55 86.5 c 128,-1,14
 80 93 80 93 106.5 104.5 c 128,-1,15
 133 116 133 116 160.5 136 c 128,-1,16
 188 156 188 156 214 193 c 2,17,-1
 497 610 l 1,18,-1
 569 492 l 1,0,-1
790 991 m 1,19,-1
 929 1196 l 2,20,21
 947 1223 947 1223 954 1242 c 128,-1,22
 961 1261 961 1261 961 1272 c 0,23,24
 961 1293 961 1293 948.5 1304 c 128,-1,25
 936 1315 936 1315 918 1322 c 128,-1,26
 900 1329 900 1329 878.5 1334.5 c 128,-1,27
 857 1340 857 1340 839 1350 c 1,28,-1
 839 1421 l 1,29,-1
 1305 1421 l 1,30,-1
 1305 1348 l 1,31,32
 1281 1339 1281 1339 1254 1333.5 c 128,-1,33
 1227 1328 1227 1328 1200 1318 c 128,-1,34
 1173 1308 1173 1308 1146.5 1290.5 c 128,-1,35
 1120 1273 1120 1273 1097 1239 c 2,36,-1
 856 882 l 1,37,-1
 790 991 l 1,19,-1
814 819 m 1,38,-1
 1185 199 l 1,39,40
 1205 161 1205 161 1228.5 140.5 c 128,-1,41
 1252 120 1252 120 1276 108.5 c 128,-1,42
 1300 97 1300 97 1321.5 90.5 c 128,-1,43
 1343 84 1343 84 1360 74 c 1,44,-1
 1360 0 l 1,45,-1
 706 0 l 1,46,-1
 706 72 l 1,47,48
 728 83 728 83 751.5 88.5 c 128,-1,49
 775 94 775 94 794.5 100.5 c 128,-1,50
 814 107 814 107 826.5 117.5 c 128,-1,51
 839 128 839 128 839 150 c 1,52,53
 838 170 838 170 827.5 196 c 128,-1,54
 817 222 817 222 788 270 c 2,55,-1
 611 555 l 1,56,-1
 541 674 l 1,57,58
 496 747 496 747 451.5 823 c 128,-1,59
 407 899 407 899 362 975.5 c 128,-1,60
 317 1052 317 1052 271.5 1126.5 c 128,-1,61
 226 1201 226 1201 178 1272 c 0,62,63
 163 1294 163 1294 145.5 1305.5 c 128,-1,64
 128 1317 128 1317 110 1323.5 c 128,-1,65
 92 1330 92 1330 73.5 1334 c 128,-1,66
 55 1338 55 1338 39 1346 c 1,67,-1
 39 1421 l 1,68,-1
 683 1421 l 1,69,-1
 683 1350 l 1,70,71
 659 1340 659 1340 635 1335 c 128,-1,72
 611 1330 611 1330 592 1324 c 128,-1,73
 573 1318 573 1318 561.5 1308.5 c 128,-1,74
 550 1299 550 1299 550 1280 c 0,75,76
 550 1265 550 1265 562 1244.5 c 128,-1,77
 574 1224 574 1224 593 1192 c 2,78,-1
 747 928 l 1,79,-1
 814 819 l 1,38,-1
EndSplineSet
EndChar

StartChar: Y
Encoding: 89 89 60
Width: 1153
Flags: W
LayerCount: 2
Fore
SplineSet
757 665 m 1,0,-1
 757 180 l 2,1,2
 757 145 757 145 769.5 128.5 c 128,-1,3
 782 112 782 112 804 103.5 c 128,-1,4
 826 95 826 95 854.5 90 c 128,-1,5
 883 85 883 85 915 74 c 1,6,-1
 915 0 l 1,7,-1
 262 0 l 1,8,-1
 262 74 l 1,9,10
 294 85 294 85 323.5 90.5 c 128,-1,11
 353 96 353 96 375.5 104.5 c 128,-1,12
 398 113 398 113 411.5 129 c 128,-1,13
 425 145 425 145 425 178 c 2,14,-1
 425 614 l 1,15,-1
 115 1208 l 2,16,17
 90 1256 90 1256 66.5 1280 c 128,-1,18
 43 1304 43 1304 22 1315 c 128,-1,19
 1 1326 1 1326 -18 1331 c 128,-1,20
 -37 1336 -37 1336 -53 1346 c 1,21,-1
 -53 1421 l 1,22,-1
 588 1421 l 1,23,-1
 588 1346 l 1,24,25
 567 1337 567 1337 543 1332 c 128,-1,26
 519 1327 519 1327 499.5 1321 c 128,-1,27
 480 1315 480 1315 467 1304.5 c 128,-1,28
 454 1294 454 1294 454 1274 c 0,29,30
 453 1254 453 1254 470 1221 c 128,-1,31
 487 1188 487 1188 510 1145 c 2,32,-1
 699 786 l 1,33,-1
 757 665 l 1,0,-1
739 864 m 1,34,-1
 869 1120 l 1,35,36
 898 1174 898 1174 911 1210 c 128,-1,37
 924 1246 924 1246 924 1266 c 0,38,39
 924 1288 924 1288 910.5 1300 c 128,-1,40
 897 1312 897 1312 876 1319 c 128,-1,41
 855 1326 855 1326 830 1331.5 c 128,-1,42
 805 1337 805 1337 781 1346 c 1,43,-1
 781 1421 l 1,44,-1
 1206 1421 l 1,45,-1
 1206 1350 l 1,46,47
 1190 1337 1190 1337 1173 1331 c 128,-1,48
 1156 1325 1156 1325 1137.5 1314.5 c 128,-1,49
 1119 1304 1119 1304 1099 1284 c 128,-1,50
 1079 1264 1079 1264 1058 1223 c 2,51,-1
 803 730 l 1,52,-1
 739 864 l 1,34,-1
EndSplineSet
EndChar

StartChar: Z
Encoding: 90 90 61
Width: 1153
Flags: W
LayerCount: 2
Fore
SplineSet
493 107 m 1,0,-1
 605 113 l 2,1,2
 698 118 698 118 759.5 139.5 c 128,-1,3
 821 161 821 161 860.5 193 c 128,-1,4
 900 225 900 225 923.5 265.5 c 128,-1,5
 947 306 947 306 965.5 348 c 128,-1,6
 984 390 984 390 1002 431.5 c 128,-1,7
 1020 473 1020 473 1049 508 c 1,8,-1
 1120 508 l 1,9,-1
 1120 0 l 1,10,-1
 433 0 l 1,11,-1
 493 107 l 1,0,-1
662 1325 m 1,12,-1
 636 1325 l 2,13,14
 547 1325 547 1325 486 1308 c 128,-1,15
 425 1291 425 1291 383 1262.5 c 128,-1,16
 341 1234 341 1234 315 1197 c 128,-1,17
 289 1160 289 1160 270.5 1119 c 128,-1,18
 252 1078 252 1078 237 1036.5 c 128,-1,19
 222 995 222 995 203 958 c 1,20,-1
 132 958 l 1,21,-1
 132 1436 l 1,22,23
 192 1428 192 1428 255.5 1424.5 c 128,-1,24
 319 1421 319 1421 385 1421 c 2,25,-1
 716 1421 l 1,26,-1
 662 1325 l 1,12,-1
795 1421 m 1,27,-1
 1089 1421 l 1,28,-1
 1089 1315 l 1,29,-1
 353 0 l 1,30,-1
 77 0 l 1,31,-1
 77 150 l 1,32,-1
 742 1325 l 1,33,-1
 795 1421 l 1,27,-1
EndSplineSet
EndChar

StartChar: bracketleft
Encoding: 91 91 62
Width: 1023
Flags: W
LayerCount: 2
Fore
SplineSet
563 -186 m 2,0,1
 563 -221 563 -221 581.5 -239.5 c 128,-1,2
 600 -258 600 -258 629.5 -268.5 c 128,-1,3
 659 -279 659 -279 694.5 -285 c 128,-1,4
 730 -291 730 -291 765 -301 c 1,5,-1
 765 -375 l 1,6,-1
 306 -375 l 1,7,-1
 306 1438 l 1,8,-1
 765 1438 l 1,9,-1
 765 1364 l 1,10,11
 730 1354 730 1354 694.5 1347.5 c 128,-1,12
 659 1341 659 1341 629.5 1330 c 128,-1,13
 600 1319 600 1319 581.5 1300 c 128,-1,14
 563 1281 563 1281 563 1247 c 2,15,-1
 563 -186 l 2,0,1
EndSplineSet
EndChar

StartChar: backslash
Encoding: 92 92 63
Width: 640
Flags: W
LayerCount: 2
Fore
SplineSet
-111 1452 m 1,0,-1
 127 1452 l 1,1,-1
 751 -31 l 1,2,-1
 512 -31 l 1,3,-1
 -111 1452 l 1,0,-1
EndSplineSet
EndChar

StartChar: bracketright
Encoding: 93 93 64
Width: 1023
Flags: W
LayerCount: 2
Fore
SplineSet
717 -375 m 1,0,-1
 258 -375 l 1,1,-1
 258 -301 l 1,2,3
 292 -291 292 -291 328.5 -285 c 128,-1,4
 365 -279 365 -279 394 -268.5 c 128,-1,5
 423 -258 423 -258 442 -239.5 c 128,-1,6
 461 -221 461 -221 461 -186 c 2,7,-1
 461 1247 l 2,8,9
 461 1281 461 1281 442 1300 c 128,-1,10
 423 1319 423 1319 394 1330 c 128,-1,11
 365 1341 365 1341 328.5 1347.5 c 128,-1,12
 292 1354 292 1354 258 1364 c 1,13,-1
 258 1438 l 1,14,-1
 717 1438 l 1,15,-1
 717 -375 l 1,0,-1
EndSplineSet
EndChar

StartChar: asciicircum
Encoding: 94 94 65
Width: 1383
Flags: W
LayerCount: 2
Fore
SplineSet
209 713 m 1,0,-1
 587 1421 l 1,1,-1
 794 1421 l 1,2,-1
 1173 713 l 1,3,-1
 929 713 l 1,4,-1
 691 1184 l 1,5,-1
 451 713 l 1,6,-1
 209 713 l 1,0,-1
EndSplineSet
EndChar

StartChar: underscore
Encoding: 95 95 66
Width: 1153
Flags: W
LayerCount: 2
Fore
SplineSet
0 -256 m 1,0,-1
 0 -154 l 1,1,-1
 1153 -154 l 1,2,-1
 1153 -256 l 1,3,-1
 0 -256 l 1,0,-1
EndSplineSet
EndChar

StartChar: grave
Encoding: 96 96 67
Width: 641
Flags: W
LayerCount: 2
Fore
SplineSet
367 1120 m 1,0,-1
 53 1303 l 2,1,2
 32 1315 32 1315 16.5 1325.5 c 128,-1,3
 1 1336 1 1336 -9.5 1347.5 c 128,-1,4
 -20 1359 -20 1359 -25 1373 c 128,-1,5
 -30 1387 -30 1387 -30 1407 c 256,6,7
 -30 1427 -30 1427 -20.5 1443 c 128,-1,8
 -11 1459 -11 1459 3.5 1470 c 128,-1,9
 18 1481 18 1481 35.5 1487 c 128,-1,10
 53 1493 53 1493 69 1493 c 0,11,12
 101 1492 101 1492 132.5 1478 c 128,-1,13
 164 1464 164 1464 199 1427 c 2,14,-1
 491 1120 l 1,15,-1
 367 1120 l 1,0,-1
EndSplineSet
EndChar

StartChar: a
Encoding: 97 97 68
Width: 1153
Flags: W
LayerCount: 2
Fore
SplineSet
659 633 m 2,0,1
 659 684 659 684 657.5 726.5 c 128,-1,2
 656 769 656 769 647 801 c 128,-1,3
 638 833 638 833 619 854.5 c 128,-1,4
 600 876 600 876 566 884 c 1,5,-1
 566 1001 l 1,6,7
 652 998 652 998 724 978.5 c 128,-1,8
 796 959 796 959 847.5 918 c 128,-1,9
 899 877 899 877 928 813 c 128,-1,10
 957 749 957 749 957 657 c 2,11,-1
 957 215 l 2,12,13
 957 194 957 194 959.5 172.5 c 128,-1,14
 962 151 962 151 968 134.5 c 128,-1,15
 974 118 974 118 985 107.5 c 128,-1,16
 996 97 996 97 1013 97 c 0,17,18
 1039 97 1039 97 1051.5 127 c 128,-1,19
 1064 157 1064 157 1069 217 c 1,20,-1
 1141 199 l 1,21,22
 1133 146 1133 146 1115.5 104.5 c 128,-1,23
 1098 63 1098 63 1068 34 c 128,-1,24
 1038 5 1038 5 994 -10 c 128,-1,25
 950 -25 950 -25 887 -25 c 0,26,27
 833 -25 833 -25 794.5 -17 c 128,-1,28
 756 -9 756 -9 729 2.5 c 128,-1,29
 702 14 702 14 685.5 26.5 c 128,-1,30
 669 39 669 39 659 48 c 1,31,-1
 659 633 l 2,0,1
570 507 m 1,32,33
 532 492 532 492 499.5 470 c 128,-1,34
 467 448 467 448 443 418 c 128,-1,35
 419 388 419 388 405.5 349 c 128,-1,36
 392 310 392 310 392 262 c 0,37,38
 392 229 392 229 398 199 c 128,-1,39
 404 169 404 169 416 146.5 c 128,-1,40
 428 124 428 124 446.5 110.5 c 128,-1,41
 465 97 465 97 490 97 c 0,42,43
 537 97 537 97 570 120 c 1,44,-1
 570 27 l 1,45,46
 550 12 550 12 531 2 c 128,-1,47
 512 -8 512 -8 492 -14 c 128,-1,48
 472 -20 472 -20 450 -22.5 c 128,-1,49
 428 -25 428 -25 401 -25 c 0,50,51
 328 -25 328 -25 267 -7 c 128,-1,52
 206 11 206 11 161.5 46 c 128,-1,53
 117 81 117 81 92 131 c 128,-1,54
 67 181 67 181 67 246 c 0,55,56
 67 325 67 325 103 380.5 c 128,-1,57
 139 436 139 436 205 477 c 128,-1,58
 271 518 271 518 363.5 549 c 128,-1,59
 456 580 456 580 570 610 c 1,60,-1
 570 507 l 1,32,33
477 884 m 1,61,62
 429 881 429 881 403.5 865 c 128,-1,63
 378 849 378 849 359 821 c 1,64,65
 390 808 390 808 408.5 786.5 c 128,-1,66
 427 765 427 765 427 731 c 0,67,68
 427 704 427 704 415 684.5 c 128,-1,69
 403 665 403 665 383 652.5 c 128,-1,70
 363 640 363 640 338 633.5 c 128,-1,71
 313 627 313 627 288 627 c 0,72,73
 215 627 215 627 177 667.5 c 128,-1,74
 139 708 139 708 139 774 c 0,75,76
 139 817 139 817 161 856.5 c 128,-1,77
 183 896 183 896 226 927 c 128,-1,78
 269 958 269 958 332 977.5 c 128,-1,79
 395 997 395 997 477 1001 c 1,80,-1
 477 884 l 1,61,62
EndSplineSet
EndChar

StartChar: b
Encoding: 98 98 69
Width: 1152
Flags: W
LayerCount: 2
Fore
SplineSet
431 -1 m 1,0,1
 383 16 383 16 348.5 36 c 128,-1,2
 314 56 314 56 288 74 c 1,3,4
 271 63 271 63 248 41 c 128,-1,5
 225 19 225 19 205 0 c 1,6,-1
 123 0 l 1,7,8
 126 42 126 42 130 89.5 c 128,-1,9
 134 137 134 137 134 188 c 2,10,-1
 134 1249 l 2,11,12
 134 1282 134 1282 120.5 1298 c 128,-1,13
 107 1314 107 1314 87 1322 c 128,-1,14
 67 1330 67 1330 45 1336 c 128,-1,15
 23 1342 23 1342 7 1354 c 1,16,-1
 7 1421 l 1,17,-1
 431 1421 l 1,18,-1
 431 -1 l 1,0,1
520 971 m 1,19,20
 550 985 550 985 583.5 993 c 128,-1,21
 617 1001 617 1001 660 1001 c 0,22,23
 740 1001 740 1001 813 962.5 c 128,-1,24
 886 924 886 924 941.5 856.5 c 128,-1,25
 997 789 997 789 1030 696.5 c 128,-1,26
 1063 604 1063 604 1063 496 c 0,27,28
 1063 394 1063 394 1032.5 300 c 128,-1,29
 1002 206 1002 206 942 134 c 128,-1,30
 882 62 882 62 793.5 18.5 c 128,-1,31
 705 -25 705 -25 588 -25 c 0,32,33
 569 -25 569 -25 552.5 -23.5 c 128,-1,34
 536 -22 536 -22 520 -20 c 1,35,-1
 520 105 l 1,36,37
 531 102 531 102 543.5 99.5 c 128,-1,38
 556 97 556 97 570 97 c 0,39,40
 606 97 606 97 635.5 116.5 c 128,-1,41
 665 136 665 136 686 180 c 128,-1,42
 707 224 707 224 719 296.5 c 128,-1,43
 731 369 731 369 731 475 c 0,44,45
 731 568 731 568 721.5 642.5 c 128,-1,46
 712 717 712 717 692 769.5 c 128,-1,47
 672 822 672 822 640.5 850.5 c 128,-1,48
 609 879 609 879 565 879 c 0,49,50
 541 879 541 879 520 869 c 1,51,-1
 520 971 l 1,19,20
EndSplineSet
EndChar

StartChar: c
Encoding: 99 99 70
Width: 1003
Flags: W
LayerCount: 2
Fore
SplineSet
658 1001 m 1,0,1
 730 995 730 995 787.5 972 c 128,-1,2
 845 949 845 949 885.5 914.5 c 128,-1,3
 926 880 926 880 948 835.5 c 128,-1,4
 970 791 970 791 970 742 c 0,5,6
 970 714 970 714 960.5 686 c 128,-1,7
 951 658 951 658 931.5 636 c 128,-1,8
 912 614 912 614 882 600 c 128,-1,9
 852 586 852 586 810 586 c 0,10,11
 772 586 772 586 743 597 c 128,-1,12
 714 608 714 608 694 626 c 128,-1,13
 674 644 674 644 664 666.5 c 128,-1,14
 654 689 654 689 654 712 c 0,15,16
 654 740 654 740 662.5 761.5 c 128,-1,17
 671 783 671 783 684.5 799 c 128,-1,18
 698 815 698 815 714.5 827 c 128,-1,19
 731 839 731 839 748 848 c 1,20,21
 738 862 738 862 714.5 870 c 128,-1,22
 691 878 691 878 658 879 c 1,23,-1
 658 1001 l 1,0,1
658 97 m 1,24,25
 711 98 711 98 750 115 c 128,-1,26
 789 132 789 132 816.5 161 c 128,-1,27
 844 190 844 190 862.5 229.5 c 128,-1,28
 881 269 881 269 893 315 c 1,29,-1
 986 274 l 1,30,31
 954 140 954 140 872 64.5 c 128,-1,32
 790 -11 790 -11 658 -25 c 1,33,-1
 658 97 l 1,24,25
569 -25 m 1,34,35
 454 -24 454 -24 360.5 16.5 c 128,-1,36
 267 57 267 57 200.5 126 c 128,-1,37
 134 195 134 195 98 286 c 128,-1,38
 62 377 62 377 62 479 c 0,39,40
 62 588 62 588 96.5 681.5 c 128,-1,41
 131 775 131 775 196.5 845 c 128,-1,42
 262 915 262 915 356 956 c 128,-1,43
 450 997 450 997 569 1001 c 1,44,-1
 569 879 l 1,45,46
 481 856 481 856 434 758.5 c 128,-1,47
 387 661 387 661 387 498 c 0,48,49
 387 423 387 423 397.5 357 c 128,-1,50
 408 291 408 291 430 238 c 128,-1,51
 452 185 452 185 486.5 148.5 c 128,-1,52
 521 112 521 112 569 97 c 1,53,-1
 569 -25 l 1,34,35
EndSplineSet
EndChar

StartChar: d
Encoding: 100 100 71
Width: 1152
Flags: W
LayerCount: 2
Fore
SplineSet
699 92 m 1,0,-1
 699 1251 l 2,1,2
 699 1283 699 1283 685.5 1298.5 c 128,-1,3
 672 1314 672 1314 652 1322 c 128,-1,4
 632 1330 632 1330 609 1335.5 c 128,-1,5
 586 1341 586 1341 567 1354 c 1,6,-1
 567 1421 l 1,7,-1
 996 1421 l 1,8,-1
 996 164 l 2,9,10
 996 132 996 132 1009.5 117.5 c 128,-1,11
 1023 103 1023 103 1042 95 c 128,-1,12
 1061 87 1061 87 1081.5 81.5 c 128,-1,13
 1102 76 1102 76 1117 63 c 1,14,-1
 1117 0 l 1,15,-1
 712 0 l 1,16,-1
 699 92 l 1,0,-1
610 866 m 1,17,18
 597 874 597 874 583.5 876.5 c 128,-1,19
 570 879 570 879 553 879 c 0,20,21
 506 879 506 879 474.5 848.5 c 128,-1,22
 443 818 443 818 424 766.5 c 128,-1,23
 405 715 405 715 397 646.5 c 128,-1,24
 389 578 389 578 389 502 c 0,25,26
 389 417 389 417 394 343 c 128,-1,27
 399 269 399 269 415.5 214.5 c 128,-1,28
 432 160 432 160 463 128.5 c 128,-1,29
 494 97 494 97 546 97 c 0,30,31
 565 97 565 97 581 100.5 c 128,-1,32
 597 104 597 104 610 115 c 1,33,-1
 610 4 l 1,34,35
 554 -25 554 -25 473 -25 c 0,36,37
 380 -25 380 -25 303 15 c 128,-1,38
 226 55 226 55 171.5 123 c 128,-1,39
 117 191 117 191 87 281.5 c 128,-1,40
 57 372 57 372 57 473 c 0,41,42
 57 587 57 587 93.5 683.5 c 128,-1,43
 130 780 130 780 190.5 850.5 c 128,-1,44
 251 921 251 921 330.5 961 c 128,-1,45
 410 1001 410 1001 497 1001 c 0,46,47
 566 1001 566 1001 610 982 c 1,48,-1
 610 866 l 1,17,18
EndSplineSet
EndChar

StartChar: e
Encoding: 101 101 72
Width: 1089
Flags: W
LayerCount: 2
Fore
SplineSet
600 97 m 1,0,1
 660 100 660 100 705.5 119 c 128,-1,2
 751 138 751 138 785 169.5 c 128,-1,3
 819 201 819 201 842 243 c 128,-1,4
 865 285 865 285 880 334 c 1,5,-1
 972 293 l 1,6,7
 954 226 954 226 923 170.5 c 128,-1,8
 892 115 892 115 846 74 c 128,-1,9
 800 33 800 33 739 7.5 c 128,-1,10
 678 -18 678 -18 600 -25 c 1,11,-1
 600 97 l 1,0,1
600 1001 m 1,12,13
 708 993 708 993 784.5 950.5 c 128,-1,14
 861 908 861 908 909 840.5 c 128,-1,15
 957 773 957 773 979 684.5 c 128,-1,16
 1001 596 1001 596 1001 496 c 1,17,-1
 486 496 l 1,18,-1
 486 596 l 1,19,-1
 693 596 l 1,20,21
 693 721 693 721 673.5 791.5 c 128,-1,22
 654 862 654 862 600 879 c 1,23,-1
 600 1001 l 1,12,13
511 -25 m 1,24,25
 405 -16 405 -16 322.5 29 c 128,-1,26
 240 74 240 74 183 144 c 128,-1,27
 126 214 126 214 96.5 303 c 128,-1,28
 67 392 67 392 67 489 c 0,29,30
 67 595 67 595 100 685.5 c 128,-1,31
 133 776 133 776 192 844 c 128,-1,32
 251 912 251 912 332.5 953 c 128,-1,33
 414 994 414 994 511 1001 c 1,34,-1
 511 879 l 1,35,36
 445 861 445 861 421 777 c 128,-1,37
 397 693 397 693 397 543 c 0,38,39
 397 461 397 461 401.5 390 c 128,-1,40
 406 319 406 319 418.5 261.5 c 128,-1,41
 431 204 431 204 453.5 162 c 128,-1,42
 476 120 476 120 511 97 c 1,43,-1
 511 -25 l 1,24,25
EndSplineSet
EndChar

StartChar: f
Encoding: 102 102 73
Width: 747
Flags: W
LayerCount: 2
Fore
SplineSet
486 1452 m 1,0,-1
 486 981 l 1,1,-1
 717 981 l 1,2,-1
 717 874 l 1,3,-1
 486 874 l 1,4,-1
 486 166 l 2,5,6
 486 134 486 134 502 119.5 c 128,-1,7
 518 105 518 105 543.5 97.5 c 128,-1,8
 569 90 569 90 600.5 84 c 128,-1,9
 632 78 632 78 662 63 c 1,10,-1
 662 0 l 1,11,-1
 46 0 l 1,12,-1
 46 63 l 1,13,14
 68 76 68 76 93.5 81.5 c 128,-1,15
 119 87 119 87 140 94.5 c 128,-1,16
 161 102 161 102 175 117 c 128,-1,17
 189 132 189 132 189 164 c 2,18,-1
 189 874 l 1,19,-1
 39 874 l 1,20,-1
 39 944 l 1,21,22
 51 956 51 956 70.5 959.5 c 128,-1,23
 90 963 90 963 111.5 966 c 128,-1,24
 133 969 133 969 154 975.5 c 128,-1,25
 175 982 175 982 189 1001 c 1,26,27
 192 1099 192 1099 205.5 1176.5 c 128,-1,28
 219 1254 219 1254 251.5 1311 c 128,-1,29
 284 1368 284 1368 340.5 1403 c 128,-1,30
 397 1438 397 1438 486 1452 c 1,0,-1
575 1452 m 1,31,32
 722 1452 722 1452 797.5 1397.5 c 128,-1,33
 873 1343 873 1343 873 1249 c 0,34,35
 873 1192 873 1192 833 1154 c 128,-1,36
 793 1116 793 1116 724 1116 c 0,37,38
 658 1116 658 1116 622.5 1149 c 128,-1,39
 587 1182 587 1182 587 1233 c 0,40,41
 587 1271 587 1271 609.5 1296 c 128,-1,42
 632 1321 632 1321 659 1329 c 1,43,44
 654 1347 654 1347 635 1355 c 128,-1,45
 616 1363 616 1363 596 1363 c 0,46,47
 591 1363 591 1363 585.5 1362.5 c 128,-1,48
 580 1362 580 1362 575 1361 c 1,49,-1
 575 1452 l 1,31,32
EndSplineSet
EndChar

StartChar: g
Encoding: 103 103 74
Width: 1102
Flags: W
LayerCount: 2
Fore
SplineSet
308 258 m 1,0,-1
 269 170 l 1,1,-1
 603 170 l 2,2,3
 678 170 678 170 748 153 c 128,-1,4
 818 136 818 136 872 101 c 128,-1,5
 926 66 926 66 958 12 c 128,-1,6
 990 -42 990 -42 990 -115 c 0,7,8
 990 -186 990 -186 954.5 -243.5 c 128,-1,9
 919 -301 919 -301 859 -343 c 128,-1,10
 799 -385 799 -385 719.5 -409.5 c 128,-1,11
 640 -434 640 -434 552 -438 c 1,12,-1
 552 -344 l 1,13,14
 602 -342 602 -342 639 -329.5 c 128,-1,15
 676 -317 676 -317 700 -297.5 c 128,-1,16
 724 -278 724 -278 736 -252.5 c 128,-1,17
 748 -227 748 -227 748 -199 c 0,18,19
 748 -136 748 -136 687 -95.5 c 128,-1,20
 626 -55 626 -55 511 -55 c 2,21,-1
 341 -55 l 1,22,23
 334 -97 334 -97 326 -129.5 c 128,-1,24
 318 -162 318 -162 318 -201 c 0,25,26
 318 -260 318 -260 349 -297 c 128,-1,27
 380 -334 380 -334 463 -342 c 1,28,-1
 463 -437 l 1,29,30
 393 -433 393 -433 331 -415.5 c 128,-1,31
 269 -398 269 -398 223 -365 c 128,-1,32
 177 -332 177 -332 150 -282.5 c 128,-1,33
 123 -233 123 -233 123 -164 c 0,34,35
 123 -131 123 -131 129.5 -103 c 128,-1,36
 136 -75 136 -75 147 -55 c 1,37,-1
 127 -55 l 2,38,39
 87 -55 87 -55 68 -40 c 128,-1,40
 49 -25 49 -25 49 1 c 0,41,42
 49 24 49 24 62 44 c 128,-1,43
 75 64 75 64 88 89 c 2,44,-1
 194 293 l 1,45,-1
 308 258 l 1,0,-1
552 400 m 1,46,47
 603 417 603 417 622.5 480.5 c 128,-1,48
 642 544 642 544 642 659 c 256,49,50
 642 774 642 774 622.5 832 c 128,-1,51
 603 890 603 890 552 904 c 1,52,-1
 552 1001 l 1,53,54
 587 1000 587 1000 624 995.5 c 128,-1,55
 661 991 661 991 697 978 c 1,56,57
 697 1021 697 1021 712 1056.5 c 128,-1,58
 727 1092 727 1092 755.5 1117.5 c 128,-1,59
 784 1143 784 1143 824 1157 c 128,-1,60
 864 1171 864 1171 914 1171 c 0,61,62
 963 1171 963 1171 998.5 1158.5 c 128,-1,63
 1034 1146 1034 1146 1057 1125.5 c 128,-1,64
 1080 1105 1080 1105 1090.5 1077.5 c 128,-1,65
 1101 1050 1101 1050 1101 1020 c 0,66,67
 1101 960 1101 960 1066.5 928.5 c 128,-1,68
 1032 897 1032 897 975 897 c 0,69,70
 920 897 920 897 885.5 927 c 128,-1,71
 851 957 851 957 851 1005 c 0,72,73
 851 1022 851 1022 856.5 1035.5 c 128,-1,74
 862 1049 862 1049 862 1055 c 0,75,76
 862 1060 862 1060 858 1060 c 0,77,78
 825 1060 825 1060 809.5 1038 c 128,-1,79
 794 1016 794 1016 794 981 c 0,80,81
 794 959 794 959 797 947.5 c 128,-1,82
 800 936 800 936 807.5 927.5 c 128,-1,83
 815 919 815 919 826.5 910.5 c 128,-1,84
 838 902 838 902 855 886 c 0,85,86
 897 844 897 844 914.5 790.5 c 128,-1,87
 932 737 932 737 932 668 c 0,88,89
 932 587 932 587 902 522.5 c 128,-1,90
 872 458 872 458 820 412 c 128,-1,91
 768 366 768 366 699 339.5 c 128,-1,92
 630 313 630 313 552 308 c 1,93,-1
 552 400 l 1,46,47
463 306 m 1,94,95
 266 311 266 311 167.5 391.5 c 128,-1,96
 69 472 69 472 69 651 c 0,97,98
 69 733 69 733 97.5 796 c 128,-1,99
 126 859 126 859 178 902.5 c 128,-1,100
 230 946 230 946 302.5 970.5 c 128,-1,101
 375 995 375 995 463 1001 c 1,102,-1
 463 904 l 1,103,104
 433 899 433 899 413 883.5 c 128,-1,105
 393 868 393 868 381 838.5 c 128,-1,106
 369 809 369 809 364 764.5 c 128,-1,107
 359 720 359 720 359 659 c 0,108,109
 359 539 359 539 382 474.5 c 128,-1,110
 405 410 405 410 463 397 c 1,111,-1
 463 306 l 1,94,95
EndSplineSet
EndChar

StartChar: h
Encoding: 104 104 75
Width: 1194
Flags: W
LayerCount: 2
Fore
SplineSet
555 954 m 1,0,1
 638 1001 638 1001 737 1001 c 0,2,3
 802 1001 802 1001 855.5 982.5 c 128,-1,4
 909 964 909 964 946.5 927 c 128,-1,5
 984 890 984 890 1004.5 836 c 128,-1,6
 1025 782 1025 782 1025 712 c 2,7,-1
 1025 164 l 2,8,9
 1025 132 1025 132 1039 117.5 c 128,-1,10
 1053 103 1053 103 1073 95 c 128,-1,11
 1093 87 1093 87 1115.5 81.5 c 128,-1,12
 1138 76 1138 76 1155 63 c 1,13,-1
 1155 0 l 1,14,-1
 680 0 l 1,15,-1
 680 62 l 1,16,17
 687 73 687 73 695.5 80 c 128,-1,18
 704 87 704 87 711 95 c 128,-1,19
 718 103 718 103 723 115 c 128,-1,20
 728 127 728 127 728 150 c 2,21,-1
 728 693 l 2,22,23
 728 738 728 738 725.5 772.5 c 128,-1,24
 723 807 723 807 713.5 830.5 c 128,-1,25
 704 854 704 854 686 866.5 c 128,-1,26
 668 879 668 879 638 879 c 0,27,28
 616 879 616 879 594.5 875 c 128,-1,29
 573 871 573 871 555 862 c 1,30,-1
 555 954 l 1,0,1
466 164 m 2,31,32
 466 132 466 132 478 117 c 128,-1,33
 490 102 490 102 508.5 94.5 c 128,-1,34
 527 87 527 87 549 81.5 c 128,-1,35
 571 76 571 76 590 63 c 1,36,-1
 590 0 l 1,37,-1
 39 0 l 1,38,-1
 39 63 l 1,39,40
 56 76 56 76 78.5 81.5 c 128,-1,41
 101 87 101 87 121 95 c 128,-1,42
 141 103 141 103 155 117.5 c 128,-1,43
 169 132 169 132 169 164 c 2,44,-1
 169 1251 l 2,45,46
 169 1283 169 1283 155 1298.5 c 128,-1,47
 141 1314 141 1314 121 1322 c 128,-1,48
 101 1330 101 1330 78.5 1335.5 c 128,-1,49
 56 1341 56 1341 39 1354 c 1,50,-1
 39 1421 l 1,51,-1
 466 1421 l 1,52,-1
 466 164 l 2,31,32
EndSplineSet
EndChar

StartChar: i
Encoding: 105 105 76
Width: 641
Flags: W
LayerCount: 2
Fore
SplineSet
468 164 m 2,0,1
 468 132 468 132 481.5 117.5 c 128,-1,2
 495 103 495 103 515.5 95 c 128,-1,3
 536 87 536 87 559 81.5 c 128,-1,4
 582 76 582 76 602 63 c 1,5,-1
 602 0 l 1,6,-1
 39 0 l 1,7,-1
 39 63 l 1,8,9
 58 76 58 76 81 81.5 c 128,-1,10
 104 87 104 87 124 95 c 128,-1,11
 144 103 144 103 157.5 117.5 c 128,-1,12
 171 132 171 132 171 164 c 2,13,-1
 171 811 l 2,14,15
 171 843 171 843 157.5 858 c 128,-1,16
 144 873 144 873 124 881 c 128,-1,17
 104 889 104 889 81 894.5 c 128,-1,18
 58 900 58 900 39 913 c 1,19,-1
 39 981 l 1,20,-1
 468 981 l 1,21,-1
 468 164 l 2,0,1
302 1098 m 0,22,23
 264 1098 264 1098 233 1112 c 128,-1,24
 202 1126 202 1126 180 1149.5 c 128,-1,25
 158 1173 158 1173 146 1203.5 c 128,-1,26
 134 1234 134 1234 134 1268 c 0,27,28
 134 1301 134 1301 146 1331.5 c 128,-1,29
 158 1362 158 1362 180 1386 c 128,-1,30
 202 1410 202 1410 233 1424 c 128,-1,31
 264 1438 264 1438 302 1438 c 0,32,33
 341 1438 341 1438 372 1424 c 128,-1,34
 403 1410 403 1410 425 1386 c 128,-1,35
 447 1362 447 1362 459 1331.5 c 128,-1,36
 471 1301 471 1301 471 1268 c 0,37,38
 471 1234 471 1234 459 1203.5 c 128,-1,39
 447 1173 447 1173 425 1149.5 c 128,-1,40
 403 1126 403 1126 372 1112 c 128,-1,41
 341 1098 341 1098 302 1098 c 0,22,23
EndSplineSet
EndChar

StartChar: j
Encoding: 106 106 77
Width: 641
Flags: W
LayerCount: 2
Fore
SplineSet
97 -410 m 1,0,-1
 89 -410 l 2,1,2
 27 -410 27 -410 -24.5 -394.5 c 128,-1,3
 -76 -379 -76 -379 -113.5 -351 c 128,-1,4
 -151 -323 -151 -323 -172 -285.5 c 128,-1,5
 -193 -248 -193 -248 -193 -203 c 0,6,7
 -193 -173 -193 -173 -183 -147 c 128,-1,8
 -173 -121 -173 -121 -154.5 -101.5 c 128,-1,9
 -136 -82 -136 -82 -108.5 -70.5 c 128,-1,10
 -81 -59 -81 -59 -45 -59 c 0,11,12
 19 -59 19 -59 50 -93 c 128,-1,13
 81 -127 81 -127 81 -175 c 0,14,15
 81 -202 81 -202 69 -221.5 c 128,-1,16
 57 -241 57 -241 36 -248 c 1,17,18
 45 -274 45 -274 59.5 -288 c 128,-1,19
 74 -302 74 -302 97 -307 c 1,20,-1
 97 -410 l 1,0,-1
186 -292 m 1,21,22
 224 -265 224 -265 224 -207 c 0,23,24
 224 -181 224 -181 221 -156 c 128,-1,25
 218 -131 218 -131 214.5 -104.5 c 128,-1,26
 211 -78 211 -78 208 -50 c 128,-1,27
 205 -22 205 -22 205 10 c 2,28,-1
 205 811 l 2,29,30
 205 843 205 843 191.5 857.5 c 128,-1,31
 178 872 178 872 158 879 c 128,-1,32
 138 886 138 886 115.5 891 c 128,-1,33
 93 896 93 896 74 909 c 1,34,-1
 74 981 l 1,35,-1
 502 981 l 1,36,-1
 502 53 l 2,37,38
 502 -59 502 -59 479.5 -140.5 c 128,-1,39
 457 -222 457 -222 415.5 -276.5 c 128,-1,40
 374 -331 374 -331 315.5 -361.5 c 128,-1,41
 257 -392 257 -392 186 -403 c 1,42,-1
 186 -292 l 1,21,22
332 1098 m 0,43,44
 294 1098 294 1098 263 1112 c 128,-1,45
 232 1126 232 1126 209.5 1149.5 c 128,-1,46
 187 1173 187 1173 175 1203.5 c 128,-1,47
 163 1234 163 1234 163 1268 c 0,48,49
 163 1301 163 1301 175 1331.5 c 128,-1,50
 187 1362 187 1362 209.5 1386 c 128,-1,51
 232 1410 232 1410 263 1424 c 128,-1,52
 294 1438 294 1438 332 1438 c 0,53,54
 371 1438 371 1438 402 1424 c 128,-1,55
 433 1410 433 1410 454.5 1386 c 128,-1,56
 476 1362 476 1362 488 1331.5 c 128,-1,57
 500 1301 500 1301 500 1268 c 0,58,59
 500 1234 500 1234 488 1203.5 c 128,-1,60
 476 1173 476 1173 454.5 1149.5 c 128,-1,61
 433 1126 433 1126 402 1112 c 128,-1,62
 371 1098 371 1098 332 1098 c 0,43,44
EndSplineSet
EndChar

StartChar: k
Encoding: 107 107 78
Width: 1152
Flags: W
LayerCount: 2
Fore
SplineSet
552 614 m 1,0,-1
 717 756 l 2,1,2
 754 788 754 788 772.5 807 c 128,-1,3
 791 826 791 826 791 846 c 0,4,5
 791 864 791 864 779.5 872 c 128,-1,6
 768 880 768 880 751 885 c 128,-1,7
 734 890 734 890 714 895.5 c 128,-1,8
 694 901 694 901 678 913 c 1,9,-1
 678 981 l 1,10,-1
 1137 981 l 1,11,-1
 1137 932 l 2,12,13
 1137 917 1137 917 1117 903.5 c 128,-1,14
 1097 890 1097 890 1068.5 876 c 128,-1,15
 1040 862 1040 862 1008.5 846 c 128,-1,16
 977 830 977 830 955 811 c 2,17,-1
 773 655 l 1,18,-1
 1049 207 l 2,19,20
 1060 188 1060 188 1070.5 172.5 c 128,-1,21
 1081 157 1081 157 1093 143 c 0,22,23
 1108 124 1108 124 1123.5 113 c 128,-1,24
 1139 102 1139 102 1154 94 c 128,-1,25
 1169 86 1169 86 1182.5 79.5 c 128,-1,26
 1196 73 1196 73 1208 63 c 1,27,-1
 1208 0 l 1,28,-1
 682 0 l 1,29,-1
 681 66 l 2,30,31
 681 76 681 76 694 80.5 c 128,-1,32
 707 85 707 85 722.5 88 c 128,-1,33
 738 91 738 91 751.5 94.5 c 128,-1,34
 765 98 765 98 765 107 c 1,35,36
 759 123 759 123 746.5 147 c 128,-1,37
 734 171 734 171 717.5 200 c 128,-1,38
 701 229 701 229 682.5 260.5 c 128,-1,39
 664 292 664 292 646 323 c 2,40,-1
 552 477 l 1,41,-1
 552 614 l 1,0,-1
463 199 m 2,42,43
 463 163 463 163 468.5 142.5 c 128,-1,44
 474 122 474 122 483 110.5 c 128,-1,45
 492 99 492 99 504 95 c 128,-1,46
 516 91 516 91 529.5 87.5 c 128,-1,47
 543 84 543 84 556.5 79.5 c 128,-1,48
 570 75 570 75 583 63 c 1,49,-1
 583 0 l 1,50,-1
 35 0 l 1,51,-1
 35 63 l 1,52,53
 47 75 47 75 66 79.5 c 128,-1,54
 85 84 85 84 104 89 c 128,-1,55
 123 94 123 94 138.5 103 c 128,-1,56
 154 112 154 112 159 133 c 1,57,58
 165 167 165 167 165 209 c 2,59,-1
 165 1208 l 2,60,61
 165 1228 165 1228 163.5 1247.5 c 128,-1,62
 162 1267 162 1267 159 1282 c 0,63,64
 154 1304 154 1304 138.5 1313 c 128,-1,65
 123 1322 123 1322 104 1327 c 128,-1,66
 85 1332 85 1332 66 1336.5 c 128,-1,67
 47 1341 47 1341 35 1354 c 1,68,-1
 35 1421 l 1,69,-1
 463 1421 l 1,70,-1
 463 199 l 2,42,43
EndSplineSet
EndChar

StartChar: l
Encoding: 108 108 79
Width: 641
Flags: W
LayerCount: 2
Fore
SplineSet
468 164 m 2,0,1
 468 132 468 132 481.5 117.5 c 128,-1,2
 495 103 495 103 515.5 95 c 128,-1,3
 536 87 536 87 559 81.5 c 128,-1,4
 582 76 582 76 602 63 c 1,5,-1
 602 0 l 1,6,-1
 39 0 l 1,7,-1
 39 63 l 1,8,9
 58 76 58 76 81 81.5 c 128,-1,10
 104 87 104 87 124 95 c 128,-1,11
 144 103 144 103 157.5 117.5 c 128,-1,12
 171 132 171 132 171 164 c 2,13,-1
 171 1251 l 2,14,15
 171 1283 171 1283 157.5 1298.5 c 128,-1,16
 144 1314 144 1314 124 1322 c 128,-1,17
 104 1330 104 1330 81 1335.5 c 128,-1,18
 58 1341 58 1341 39 1354 c 1,19,-1
 39 1421 l 1,20,-1
 468 1421 l 1,21,-1
 468 164 l 2,0,1
EndSplineSet
EndChar

StartChar: m
Encoding: 109 109 80
Width: 1708
Flags: W
LayerCount: 2
Fore
SplineSet
459 981 m 1,0,-1
 459 211 l 2,1,2
 459 189 459 189 461 169.5 c 128,-1,3
 463 150 463 150 468 133 c 1,4,5
 471 112 471 112 485.5 103 c 128,-1,6
 500 94 500 94 518.5 89 c 128,-1,7
 537 84 537 84 555 79.5 c 128,-1,8
 573 75 573 75 583 63 c 1,9,-1
 583 0 l 1,10,-1
 35 0 l 1,11,-1
 35 63 l 1,12,13
 46 75 46 75 64 79.5 c 128,-1,14
 82 84 82 84 100.5 89 c 128,-1,15
 119 94 119 94 134 103 c 128,-1,16
 149 112 149 112 154 133 c 0,17,18
 158 149 158 149 159.5 167.5 c 128,-1,19
 161 186 161 186 161 207 c 2,20,-1
 161 768 l 2,21,22
 161 791 161 791 159 809 c 128,-1,23
 157 827 157 827 154 842 c 0,24,25
 149 864 149 864 134.5 873 c 128,-1,26
 120 882 120 882 101.5 886.5 c 128,-1,27
 83 891 83 891 64.5 895.5 c 128,-1,28
 46 900 46 900 35 913 c 1,29,-1
 35 981 l 1,30,-1
 459 981 l 1,0,-1
548 948 m 1,31,32
 583 974 583 974 624 987.5 c 128,-1,33
 665 1001 665 1001 719 1001 c 0,34,35
 867 1001 867 1001 935 936 c 128,-1,36
 1003 871 1003 871 1003 732 c 2,37,-1
 1003 164 l 2,38,39
 1003 134 1003 134 1013 119 c 128,-1,40
 1023 104 1023 104 1039 96 c 128,-1,41
 1055 88 1055 88 1073.5 82 c 128,-1,42
 1092 76 1092 76 1109 63 c 1,43,-1
 1109 0 l 1,44,-1
 705 0 l 1,45,-1
 705 693 l 2,46,47
 705 737 705 737 701.5 771.5 c 128,-1,48
 698 806 698 806 688 830 c 128,-1,49
 678 854 678 854 659 866.5 c 128,-1,50
 640 879 640 879 610 879 c 0,51,52
 576 879 576 879 548 858 c 1,53,-1
 548 948 l 1,31,32
1093 961 m 1,54,55
 1128 980 1128 980 1170 990.5 c 128,-1,56
 1212 1001 1212 1001 1263 1001 c 0,57,58
 1402 1001 1402 1001 1473 923.5 c 128,-1,59
 1544 846 1544 846 1544 673 c 2,60,-1
 1544 209 l 2,61,62
 1544 187 1544 187 1546.5 168.5 c 128,-1,63
 1549 150 1549 150 1553 133 c 0,64,65
 1557 112 1557 112 1572 103 c 128,-1,66
 1587 94 1587 94 1605 89.5 c 128,-1,67
 1623 85 1623 85 1641.5 80 c 128,-1,68
 1660 75 1660 75 1673 63 c 1,69,-1
 1673 0 l 1,70,-1
 1247 0 l 1,71,-1
 1247 693 l 2,72,73
 1247 738 1247 738 1244 772.5 c 128,-1,74
 1241 807 1241 807 1231.5 831 c 128,-1,75
 1222 855 1222 855 1203 867 c 128,-1,76
 1184 879 1184 879 1153 879 c 0,77,78
 1121 879 1121 879 1093 860 c 1,79,-1
 1093 961 l 1,54,55
EndSplineSet
EndChar

StartChar: n
Encoding: 110 110 81
Width: 1194
Flags: W
LayerCount: 2
Fore
SplineSet
555 938 m 1,0,1
 597 971 597 971 641.5 986 c 128,-1,2
 686 1001 686 1001 737 1001 c 0,3,4
 802 1001 802 1001 855.5 982.5 c 128,-1,5
 909 964 909 964 946.5 927 c 128,-1,6
 984 890 984 890 1004.5 836 c 128,-1,7
 1025 782 1025 782 1025 712 c 2,8,-1
 1025 205 l 2,9,10
 1025 166 1025 166 1031 144 c 128,-1,11
 1037 122 1037 122 1047 110.5 c 128,-1,12
 1057 99 1057 99 1070.5 95 c 128,-1,13
 1084 91 1084 91 1098.5 88 c 128,-1,14
 1113 85 1113 85 1127.5 80.5 c 128,-1,15
 1142 76 1142 76 1155 63 c 1,16,-1
 1155 0 l 1,17,-1
 680 0 l 1,18,-1
 680 68 l 2,19,20
 680 85 680 85 687.5 93.5 c 128,-1,21
 695 102 695 102 704 109.5 c 128,-1,22
 713 117 713 117 720.5 127.5 c 128,-1,23
 728 138 728 138 728 160 c 2,24,-1
 728 697 l 2,25,26
 728 742 728 742 725 776 c 128,-1,27
 722 810 722 810 711.5 833 c 128,-1,28
 701 856 701 856 681.5 867.5 c 128,-1,29
 662 879 662 879 630 879 c 0,30,31
 608 879 608 879 589.5 872.5 c 128,-1,32
 571 866 571 866 555 855 c 1,33,-1
 555 938 l 1,0,1
466 205 m 2,34,35
 466 166 466 166 471.5 144 c 128,-1,36
 477 122 477 122 486.5 110.5 c 128,-1,37
 496 99 496 99 508.5 95 c 128,-1,38
 521 91 521 91 535 88 c 128,-1,39
 549 85 549 85 563 80.5 c 128,-1,40
 577 76 577 76 590 63 c 1,41,-1
 590 0 l 1,42,-1
 39 0 l 1,43,-1
 39 63 l 1,44,45
 56 76 56 76 78.5 81.5 c 128,-1,46
 101 87 101 87 121 95 c 128,-1,47
 141 103 141 103 155 117.5 c 128,-1,48
 169 132 169 132 169 164 c 2,49,-1
 169 768 l 2,50,51
 169 805 169 805 161 829 c 128,-1,52
 153 853 153 853 136.5 868.5 c 128,-1,53
 120 884 120 884 95.5 894 c 128,-1,54
 71 904 71 904 39 913 c 1,55,-1
 39 981 l 1,56,-1
 466 981 l 1,57,-1
 466 205 l 2,34,35
EndSplineSet
EndChar

StartChar: o
Encoding: 111 111 82
Width: 1130
Flags: W
LayerCount: 2
Fore
SplineSet
520 -25 m 1,0,1
 421 -17 421 -17 337 25.5 c 128,-1,2
 253 68 253 68 192 136.5 c 128,-1,3
 131 205 131 205 96.5 295 c 128,-1,4
 62 385 62 385 62 489 c 0,5,6
 62 589 62 589 96.5 678.5 c 128,-1,7
 131 768 131 768 192.5 837 c 128,-1,8
 254 906 254 906 337.5 949.5 c 128,-1,9
 421 993 421 993 520 1001 c 1,10,-1
 520 879 l 1,11,12
 455 855 455 855 427 754 c 128,-1,13
 399 653 399 653 399 492 c 0,14,15
 399 321 399 321 426.5 221.5 c 128,-1,16
 454 122 454 122 520 97 c 1,17,-1
 520 -25 l 1,0,1
609 97 m 1,18,19
 675 121 675 121 703 220.5 c 128,-1,20
 731 320 731 320 731 492 c 0,21,22
 731 656 731 656 703 755.5 c 128,-1,23
 675 855 675 855 609 879 c 1,24,-1
 609 1001 l 1,25,26
 708 993 708 993 792 950 c 128,-1,27
 876 907 876 907 937 838 c 128,-1,28
 998 769 998 769 1032.5 679 c 128,-1,29
 1067 589 1067 589 1067 489 c 0,30,31
 1067 385 1067 385 1032.5 295 c 128,-1,32
 998 205 998 205 937 136.5 c 128,-1,33
 876 68 876 68 792 25.5 c 128,-1,34
 708 -17 708 -17 609 -25 c 1,35,-1
 609 97 l 1,18,19
EndSplineSet
EndChar

StartChar: p
Encoding: 112 112 83
Width: 1153
Flags: W
LayerCount: 2
Fore
SplineSet
443 -213 m 2,0,1
 443 -244 443 -244 456.5 -261 c 128,-1,2
 470 -278 470 -278 492 -288.5 c 128,-1,3
 514 -299 514 -299 541.5 -306.5 c 128,-1,4
 569 -314 569 -314 597 -326 c 1,5,-1
 597 -389 l 1,6,-1
 5 -389 l 1,7,-1
 5 -326 l 1,8,9
 27 -313 27 -313 51.5 -307 c 128,-1,10
 76 -301 76 -301 97 -292 c 128,-1,11
 118 -283 118 -283 131.5 -266 c 128,-1,12
 145 -249 145 -249 145 -213 c 2,13,-1
 145 811 l 2,14,15
 145 843 145 843 131.5 858.5 c 128,-1,16
 118 874 118 874 98 881.5 c 128,-1,17
 78 889 78 889 55.5 894.5 c 128,-1,18
 33 900 33 900 14 913 c 1,19,-1
 14 981 l 1,20,-1
 427 981 l 1,21,-1
 443 857 l 1,22,-1
 443 -213 l 2,0,1
532 976 m 1,23,24
 585 1001 585 1001 661 1001 c 0,25,26
 752 1001 752 1001 829 959.5 c 128,-1,27
 906 918 906 918 962 847 c 128,-1,28
 1018 776 1018 776 1049.5 682 c 128,-1,29
 1081 588 1081 588 1081 483 c 0,30,31
 1081 374 1081 374 1048 281 c 128,-1,32
 1015 188 1015 188 957 120 c 128,-1,33
 899 52 899 52 820 13.5 c 128,-1,34
 741 -25 741 -25 650 -25 c 0,35,36
 618 -25 618 -25 587.5 -19 c 128,-1,37
 557 -13 557 -13 532 -3 c 1,38,-1
 532 108 l 1,39,40
 557 97 557 97 582 97 c 0,41,42
 633 97 633 97 665.5 129.5 c 128,-1,43
 698 162 698 162 717 215 c 128,-1,44
 736 268 736 268 743 336.5 c 128,-1,45
 750 405 750 405 750 477 c 0,46,47
 750 551 750 551 743.5 623 c 128,-1,48
 737 695 737 695 720 752 c 128,-1,49
 703 809 703 809 671.5 844 c 128,-1,50
 640 879 640 879 591 879 c 0,51,52
 573 879 573 879 559.5 875.5 c 128,-1,53
 546 872 546 872 532 865 c 1,54,-1
 532 976 l 1,23,24
EndSplineSet
EndChar

StartChar: q
Encoding: 113 113 84
Width: 1153
Flags: W
LayerCount: 2
Fore
SplineSet
715 964 m 1,0,1
 760 945 760 945 792 926 c 128,-1,2
 824 907 824 907 847 895 c 1,3,4
 858 899 858 899 871 910 c 128,-1,5
 884 921 884 921 896.5 934.5 c 128,-1,6
 909 948 909 948 921.5 960.5 c 128,-1,7
 934 973 934 973 943 981 c 1,8,-1
 1019 981 l 1,9,10
 1015 953 1015 953 1013.5 916.5 c 128,-1,11
 1012 880 1012 880 1012 842 c 2,12,-1
 1012 -152 l 2,13,14
 1012 -179 1012 -179 1014 -205 c 128,-1,15
 1016 -231 1016 -231 1021 -252 c 1,16,17
 1025 -275 1025 -275 1041 -285 c 128,-1,18
 1057 -295 1057 -295 1077 -300 c 128,-1,19
 1097 -305 1097 -305 1118 -309.5 c 128,-1,20
 1139 -314 1139 -314 1153 -326 c 1,21,-1
 1153 -389 l 1,22,-1
 561 -389 l 1,23,-1
 561 -326 l 1,24,25
 580 -314 580 -314 599 -308.5 c 128,-1,26
 618 -303 618 -303 635 -299 c 128,-1,27
 652 -295 652 -295 666.5 -289 c 128,-1,28
 681 -283 681 -283 692 -269 c 128,-1,29
 703 -255 703 -255 709 -230.5 c 128,-1,30
 715 -206 715 -206 715 -164 c 2,31,-1
 715 964 l 1,0,1
626 11 m 1,32,33
 594 -5 594 -5 561 -15 c 128,-1,34
 528 -25 528 -25 489 -25 c 0,35,36
 396 -25 396 -25 318.5 12.5 c 128,-1,37
 241 50 241 50 185 117.5 c 128,-1,38
 129 185 129 185 98 277.5 c 128,-1,39
 67 370 67 370 67 481 c 0,40,41
 67 600 67 600 104.5 696.5 c 128,-1,42
 142 793 142 793 204.5 860.5 c 128,-1,43
 267 928 267 928 347.5 964.5 c 128,-1,44
 428 1001 428 1001 515 1001 c 0,45,46
 575 1001 575 1001 626 989 c 1,47,-1
 626 869 l 1,48,49
 614 877 614 877 601.5 878 c 128,-1,50
 589 879 589 879 574 879 c 0,51,52
 530 879 530 879 497 851 c 128,-1,53
 464 823 464 823 442.5 771.5 c 128,-1,54
 421 720 421 720 410 646.5 c 128,-1,55
 399 573 399 573 399 483 c 0,56,57
 399 379 399 379 409.5 305.5 c 128,-1,58
 420 232 420 232 441 185.5 c 128,-1,59
 462 139 462 139 492.5 118 c 128,-1,60
 523 97 523 97 563 97 c 0,61,62
 580 97 580 97 596 101 c 128,-1,63
 612 105 612 105 626 115 c 1,64,-1
 626 11 l 1,32,33
EndSplineSet
EndChar

StartChar: r
Encoding: 114 114 85
Width: 939
Flags: W
LayerCount: 2
Fore
SplineSet
545 897 m 1,0,1
 583 945 583 945 635.5 973 c 128,-1,2
 688 1001 688 1001 755 1001 c 0,3,4
 794 1001 794 1001 826.5 986 c 128,-1,5
 859 971 859 971 883 947 c 128,-1,6
 907 923 907 923 920 892 c 128,-1,7
 933 861 933 861 933 829 c 0,8,9
 933 795 933 795 922 764 c 128,-1,10
 911 733 911 733 891 709 c 128,-1,11
 871 685 871 685 842.5 671 c 128,-1,12
 814 657 814 657 779 657 c 0,13,14
 741 657 741 657 715.5 671 c 128,-1,15
 690 685 690 685 674.5 707 c 128,-1,16
 659 729 659 729 652 756.5 c 128,-1,17
 645 784 645 784 645 811 c 1,18,19
 619 811 619 811 595 782 c 128,-1,20
 571 753 571 753 551 711 c 1,21,-1
 545 897 l 1,0,1
447 981 m 1,22,23
 451 937 451 937 454.5 884.5 c 128,-1,24
 458 832 458 832 461 768.5 c 128,-1,25
 464 705 464 705 466 629 c 128,-1,26
 468 553 468 553 468 463 c 2,27,-1
 468 174 l 2,28,29
 468 144 468 144 481.5 127.5 c 128,-1,30
 495 111 495 111 517 101 c 128,-1,31
 539 91 539 91 565.5 83.5 c 128,-1,32
 592 76 592 76 618 63 c 1,33,-1
 618 0 l 1,34,-1
 39 0 l 1,35,-1
 39 63 l 1,36,37
 58 76 58 76 81 81.5 c 128,-1,38
 104 87 104 87 124 95 c 128,-1,39
 144 103 144 103 157.5 117.5 c 128,-1,40
 171 132 171 132 171 164 c 2,41,-1
 171 811 l 2,42,43
 171 844 171 844 157.5 859.5 c 128,-1,44
 144 875 144 875 124 882.5 c 128,-1,45
 104 890 104 890 81 895 c 128,-1,46
 58 900 58 900 39 913 c 1,47,-1
 39 981 l 1,48,-1
 447 981 l 1,22,23
EndSplineSet
EndChar

StartChar: s
Encoding: 115 115 86
Width: 959
Flags: W
LayerCount: 2
Fore
SplineSet
528 97 m 1,0,1
 579 108 579 108 606 138 c 128,-1,2
 633 168 633 168 633 211 c 0,3,4
 633 249 633 249 609.5 277 c 128,-1,5
 586 305 586 305 548 327.5 c 128,-1,6
 510 350 510 350 461 369.5 c 128,-1,7
 412 389 412 389 361.5 409.5 c 128,-1,8
 311 430 311 430 262 454.5 c 128,-1,9
 213 479 213 479 175 512.5 c 128,-1,10
 137 546 137 546 113.5 590.5 c 128,-1,11
 90 635 90 635 90 696 c 0,12,13
 90 754 90 754 117.5 808 c 128,-1,14
 145 862 145 862 192 904 c 128,-1,15
 239 946 239 946 303 972 c 128,-1,16
 367 998 367 998 439 1001 c 1,17,-1
 439 879 l 1,18,19
 402 869 402 869 374.5 851.5 c 128,-1,20
 347 834 347 834 347 799 c 0,21,22
 347 758 347 758 371 729 c 128,-1,23
 395 700 395 700 434 677 c 128,-1,24
 473 654 473 654 522.5 635.5 c 128,-1,25
 572 617 572 617 624 596.5 c 128,-1,26
 676 576 676 576 725.5 551 c 128,-1,27
 775 526 775 526 814 491.5 c 128,-1,28
 853 457 853 457 877 410 c 128,-1,29
 901 363 901 363 901 298 c 0,30,31
 901 227 901 227 872.5 170 c 128,-1,32
 844 113 844 113 793.5 72 c 128,-1,33
 743 31 743 31 675 6.5 c 128,-1,34
 607 -18 607 -18 528 -24 c 1,35,-1
 528 97 l 1,0,1
528 1001 m 1,36,37
 622 997 622 997 689.5 974.5 c 128,-1,38
 757 952 757 952 799.5 920 c 128,-1,39
 842 888 842 888 862 851 c 128,-1,40
 882 814 882 814 882 781 c 0,41,42
 882 724 882 724 849.5 685 c 128,-1,43
 817 646 817 646 748 646 c 0,44,45
 690 646 690 646 660.5 675 c 128,-1,46
 631 704 631 704 631 746 c 0,47,48
 631 769 631 769 638.5 787 c 128,-1,49
 646 805 646 805 658 819.5 c 128,-1,50
 670 834 670 834 684.5 844.5 c 128,-1,51
 699 855 699 855 713 863 c 1,52,53
 706 866 706 866 686.5 868 c 128,-1,54
 667 870 667 870 641 872 c 128,-1,55
 615 874 615 874 585.5 875.5 c 128,-1,56
 556 877 556 877 528 879 c 1,57,-1
 528 1001 l 1,36,37
439 -25 m 1,58,59
 349 -18 349 -18 284.5 6.5 c 128,-1,60
 220 31 220 31 178.5 64 c 128,-1,61
 137 97 137 97 117.5 135.5 c 128,-1,62
 98 174 98 174 98 209 c 0,63,64
 98 235 98 235 105.5 258 c 128,-1,65
 113 281 113 281 128 298 c 128,-1,66
 143 315 143 315 166.5 324.5 c 128,-1,67
 190 334 190 334 222 334 c 0,68,69
 280 334 280 334 309.5 305 c 128,-1,70
 339 276 339 276 339 234 c 256,71,72
 339 192 339 192 317.5 165.5 c 128,-1,73
 296 139 296 139 267 125 c 1,74,75
 274 119 274 119 291.5 114.5 c 128,-1,76
 309 110 309 110 332.5 106.5 c 128,-1,77
 356 103 356 103 384 100.5 c 128,-1,78
 412 98 412 98 439 97 c 1,79,-1
 439 -25 l 1,58,59
EndSplineSet
EndChar

StartChar: t
Encoding: 116 116 87
Width: 767
Flags: W
LayerCount: 2
Fore
SplineSet
461 -25 m 1,0,-1
 453 -25 l 2,1,2
 306 -25 306 -25 234.5 32.5 c 128,-1,3
 163 90 163 90 163 213 c 2,4,-1
 163 874 l 1,5,-1
 30 874 l 1,6,-1
 30 952 l 1,7,8
 45 968 45 968 68.5 975.5 c 128,-1,9
 92 983 92 983 116 992 c 128,-1,10
 140 1001 140 1001 160.5 1016 c 128,-1,11
 181 1031 181 1031 191 1063 c 1,12,13
 209 1111 209 1111 224 1146.5 c 128,-1,14
 239 1182 239 1182 254 1210.5 c 128,-1,15
 269 1239 269 1239 286.5 1262.5 c 128,-1,16
 304 1286 304 1286 327 1311 c 1,17,-1
 461 1313 l 1,18,-1
 461 981 l 1,19,-1
 730 981 l 1,20,-1
 730 874 l 1,21,-1
 461 874 l 1,22,-1
 461 -25 l 1,0,-1
550 97 m 1,23,24
 597 97 597 97 623 111 c 128,-1,25
 649 125 649 125 663.5 148 c 128,-1,26
 678 171 678 171 686 200 c 128,-1,27
 694 229 694 229 704 258 c 1,28,-1
 785 227 l 1,29,30
 773 173 773 173 756 130 c 128,-1,31
 739 87 739 87 712.5 55.5 c 128,-1,32
 686 24 686 24 646.5 4 c 128,-1,33
 607 -16 607 -16 550 -25 c 1,34,-1
 550 97 l 1,23,24
EndSplineSet
EndChar

StartChar: u
Encoding: 117 117 88
Width: 1194
Flags: W
LayerCount: 2
Fore
SplineSet
639 15 m 1,0,1
 603 -4 603 -4 561 -14.5 c 128,-1,2
 519 -25 519 -25 462 -25 c 0,3,4
 309 -25 309 -25 239 51 c 128,-1,5
 169 127 169 127 169 276 c 2,6,-1
 169 811 l 2,7,8
 169 844 169 844 155 859 c 128,-1,9
 141 874 141 874 121 881.5 c 128,-1,10
 101 889 101 889 78.5 894.5 c 128,-1,11
 56 900 56 900 39 913 c 1,12,-1
 39 981 l 1,13,-1
 466 981 l 1,14,-1
 466 250 l 2,15,16
 466 175 466 175 490.5 136 c 128,-1,17
 515 97 515 97 572 97 c 0,18,19
 607 97 607 97 639 118 c 1,20,-1
 639 15 l 1,0,1
729 811 m 2,21,22
 729 843 729 843 715 858.5 c 128,-1,23
 701 874 701 874 681 881.5 c 128,-1,24
 661 889 661 889 638.5 894.5 c 128,-1,25
 616 900 616 900 597 913 c 1,26,-1
 597 981 l 1,27,-1
 1025 981 l 1,28,-1
 1025 168 l 2,29,30
 1025 136 1025 136 1039 121.5 c 128,-1,31
 1053 107 1053 107 1073 99.5 c 128,-1,32
 1093 92 1093 92 1115.5 86.5 c 128,-1,33
 1138 81 1138 81 1155 68 c 1,34,-1
 1155 0 l 1,35,-1
 729 0 l 1,36,-1
 729 811 l 2,21,22
EndSplineSet
EndChar

StartChar: v
Encoding: 118 118 89
Width: 959
Flags: W
LayerCount: 2
Fore
SplineSet
615 422 m 1,0,-1
 733 752 l 2,1,2
 743 781 743 781 748.5 800.5 c 128,-1,3
 754 820 754 820 754 834 c 0,4,5
 754 855 754 855 742.5 865.5 c 128,-1,6
 731 876 731 876 714.5 883 c 128,-1,7
 698 890 698 890 678.5 895 c 128,-1,8
 659 900 659 900 643 909 c 1,9,-1
 643 981 l 1,10,-1
 1001 981 l 1,11,-1
 1001 915 l 1,12,13
 987 907 987 907 969 900 c 128,-1,14
 951 893 951 893 934 884 c 128,-1,15
 917 875 917 875 902.5 861.5 c 128,-1,16
 888 848 888 848 880 827 c 2,17,-1
 674 271 l 1,18,-1
 615 422 l 1,0,-1
571 0 m 1,19,-1
 394 0 l 1,20,-1
 74 801 l 2,21,22
 60 835 60 835 44.5 852 c 128,-1,23
 29 869 29 869 12.5 877.5 c 128,-1,24
 -4 886 -4 886 -21 891 c 128,-1,25
 -38 896 -38 896 -55 907 c 1,26,-1
 -55 981 l 1,27,-1
 493 981 l 1,28,-1
 493 909 l 1,29,30
 477 898 477 898 456.5 892 c 128,-1,31
 436 886 436 886 417.5 879.5 c 128,-1,32
 399 873 399 873 386 862.5 c 128,-1,33
 373 852 373 852 373 831 c 0,34,35
 373 818 373 818 393 761 c 128,-1,36
 413 704 413 704 447.5 612.5 c 128,-1,37
 482 521 482 521 528.5 401 c 128,-1,38
 575 281 575 281 627 142 c 1,39,-1
 571 0 l 1,19,-1
EndSplineSet
EndChar

StartChar: w
Encoding: 119 119 90
Width: 1408
Flags: W
LayerCount: 2
Fore
SplineSet
1102 494 m 1,0,-1
 1197 770 l 1,1,2
 1203 791 1203 791 1206.5 805 c 128,-1,3
 1210 819 1210 819 1210 831 c 0,4,5
 1210 851 1210 851 1198 863 c 128,-1,6
 1186 875 1186 875 1168.5 883 c 128,-1,7
 1151 891 1151 891 1130.5 896.5 c 128,-1,8
 1110 902 1110 902 1093 909 c 1,9,-1
 1093 981 l 1,10,-1
 1445 981 l 1,11,-1
 1445 915 l 1,12,13
 1431 903 1431 903 1415 898.5 c 128,-1,14
 1399 894 1399 894 1381 880.5 c 128,-1,15
 1363 867 1363 867 1343.5 837 c 128,-1,16
 1324 807 1324 807 1305 745 c 1,17,-1
 1155 317 l 1,18,-1
 1102 494 l 1,0,-1
553 497 m 1,19,-1
 674 898 l 1,20,-1
 899 898 l 1,21,22
 909 866 909 866 919.5 828.5 c 128,-1,23
 930 791 930 791 942 749 c 2,24,-1
 1051 360 l 1,25,-1
 1105 174 l 1,26,-1
 1042 0 l 1,27,-1
 871 0 l 1,28,-1
 699 625 l 1,29,-1
 693 625 l 1,30,-1
 606 321 l 1,31,-1
 553 497 l 1,19,-1
556 174 m 1,32,-1
 493 0 l 1,33,-1
 325 0 l 1,34,-1
 69 813 l 2,35,36
 60 843 60 843 45.5 858.5 c 128,-1,37
 31 874 31 874 15 882 c 128,-1,38
 -1 890 -1 890 -17 894.5 c 128,-1,39
 -33 899 -33 899 -46 907 c 1,40,-1
 -46 981 l 1,41,-1
 473 981 l 1,42,-1
 473 909 l 1,43,44
 461 902 461 902 443.5 897 c 128,-1,45
 426 892 426 892 410 885.5 c 128,-1,46
 394 879 394 879 382.5 868.5 c 128,-1,47
 371 858 371 858 371 840 c 0,48,49
 371 823 371 823 376 805 c 128,-1,50
 381 787 381 787 389 756 c 0,51,52
 411 677 411 677 438 581.5 c 128,-1,53
 465 486 465 486 502 360 c 2,54,-1
 556 174 l 1,32,-1
EndSplineSet
EndChar

StartChar: x
Encoding: 120 120 91
Width: 1153
Flags: W
LayerCount: 2
Fore
SplineSet
448 283 m 1,0,-1
 369 182 l 2,1,2
 355 164 355 164 351 153.5 c 128,-1,3
 347 143 347 143 347 129 c 0,4,5
 347 110 347 110 358.5 101 c 128,-1,6
 370 92 370 92 387 86.5 c 128,-1,7
 404 81 404 81 424 76.5 c 128,-1,8
 444 72 444 72 461 61 c 1,9,-1
 461 0 l 1,10,-1
 21 0 l 1,11,-1
 21 68 l 1,12,13
 32 79 32 79 50 83.5 c 128,-1,14
 68 88 68 88 90.5 95 c 128,-1,15
 113 102 113 102 139.5 115.5 c 128,-1,16
 166 129 166 129 194 158 c 1,17,18
 222 181 222 181 245 209 c 2,19,-1
 380 374 l 1,20,-1
 448 283 l 1,0,-1
567 271 m 0,21,22
 511 347 511 347 454.5 424 c 128,-1,23
 398 501 398 501 346 571.5 c 128,-1,24
 294 642 294 642 250.5 702 c 128,-1,25
 207 762 207 762 177 805 c 1,26,27
 153 837 153 837 132 854 c 128,-1,28
 111 871 111 871 93 880.5 c 128,-1,29
 75 890 75 890 59.5 896 c 128,-1,30
 44 902 44 902 31 911 c 1,31,-1
 31 981 l 1,32,-1
 595 981 l 1,33,-1
 595 915 l 1,34,35
 581 907 581 907 565.5 901.5 c 128,-1,36
 550 896 550 896 537.5 890 c 128,-1,37
 525 884 525 884 516.5 875.5 c 128,-1,38
 508 867 508 867 508 854 c 0,39,40
 508 832 508 832 543.5 782 c 128,-1,41
 579 732 579 732 643 645 c 2,42,-1
 999 158 l 2,43,44
 1022 126 1022 126 1042.5 111 c 128,-1,45
 1063 96 1063 96 1080.5 89.5 c 128,-1,46
 1098 83 1098 83 1112 80 c 128,-1,47
 1126 77 1126 77 1137 68 c 1,48,-1
 1137 0 l 1,49,-1
 563 0 l 1,50,-1
 563 63 l 1,51,52
 576 74 576 74 591.5 83 c 128,-1,53
 607 92 607 92 621 102 c 128,-1,54
 635 112 635 112 644.5 124 c 128,-1,55
 654 136 654 136 654 153 c 0,56,57
 654 154 654 154 644 168 c 128,-1,58
 634 182 634 182 620 200.5 c 128,-1,59
 606 219 606 219 591.5 238.5 c 128,-1,60
 577 258 577 258 567 271 c 0,21,22
700 717 m 1,61,-1
 763 795 l 2,62,63
 775 810 775 810 782.5 824 c 128,-1,64
 790 838 790 838 790 850 c 0,65,66
 790 866 790 866 779.5 874 c 128,-1,67
 769 882 769 882 755 887 c 128,-1,68
 741 892 741 892 725.5 897 c 128,-1,69
 710 902 710 902 701 911 c 1,70,-1
 701 981 l 1,71,-1
 1109 981 l 1,72,-1
 1109 911 l 1,73,74
 1097 901 1097 901 1080.5 897.5 c 128,-1,75
 1064 894 1064 894 1043 887.5 c 128,-1,76
 1022 881 1022 881 997.5 868 c 128,-1,77
 973 855 973 855 945 827 c 0,78,79
 931 814 931 814 920 802 c 128,-1,80
 909 790 909 790 895 774 c 2,81,-1
 767 625 l 1,82,-1
 700 717 l 1,61,-1
EndSplineSet
EndChar

StartChar: y
Encoding: 121 121 92
Width: 1003
Flags: W
LayerCount: 2
Fore
SplineSet
416 73 m 1,0,-1
 108 788 l 2,1,2
 91 827 91 827 72.5 847 c 128,-1,3
 54 867 54 867 35.5 877.5 c 128,-1,4
 17 888 17 888 -1 893.5 c 128,-1,5
 -19 899 -19 899 -35 907 c 1,6,-1
 -35 981 l 1,7,-1
 535 981 l 1,8,-1
 535 909 l 1,9,10
 522 898 522 898 504 894.5 c 128,-1,11
 486 891 486 891 469 886 c 128,-1,12
 452 881 452 881 440 869 c 128,-1,13
 428 857 428 857 428 830 c 0,14,15
 428 818 428 818 429 815 c 0,16,17
 438 783 438 783 450 750.5 c 128,-1,18
 462 718 462 718 478.5 678 c 128,-1,19
 495 638 495 638 517 586.5 c 128,-1,20
 539 535 539 535 568 465 c 1,21,-1
 416 73 l 1,0,-1
770 737 m 2,22,23
 784 772 784 772 791 792.5 c 128,-1,24
 798 813 798 813 798 831 c 0,25,26
 798 853 798 853 786 865 c 128,-1,27
 774 877 774 877 755.5 884 c 128,-1,28
 737 891 737 891 715.5 896 c 128,-1,29
 694 901 694 901 675 909 c 1,30,-1
 675 981 l 1,31,-1
 1047 981 l 1,32,-1
 1047 936 l 2,33,34
 1047 913 1047 913 1032 903 c 128,-1,35
 1017 893 1017 893 996 883.5 c 128,-1,36
 975 874 975 874 953 858.5 c 128,-1,37
 931 843 931 843 917 809 c 2,38,-1
 556 -109 l 1,39,40
 497 -256 497 -256 419.5 -333 c 128,-1,41
 342 -410 342 -410 226 -410 c 0,42,43
 170 -410 170 -410 128 -393 c 128,-1,44
 86 -376 86 -376 58.5 -348.5 c 128,-1,45
 31 -321 31 -321 17 -285.5 c 128,-1,46
 3 -250 3 -250 3 -213 c 0,47,48
 3 -180 3 -180 13.5 -151.5 c 128,-1,49
 24 -123 24 -123 44 -102 c 128,-1,50
 64 -81 64 -81 92.5 -69 c 128,-1,51
 121 -57 121 -57 157 -57 c 0,52,53
 184 -57 184 -57 207 -66 c 128,-1,54
 230 -75 230 -75 247.5 -90 c 128,-1,55
 265 -105 265 -105 274.5 -124.5 c 128,-1,56
 284 -144 284 -144 284 -164 c 0,57,58
 284 -188 284 -188 278 -203.5 c 128,-1,59
 272 -219 272 -219 264.5 -229 c 128,-1,60
 257 -239 257 -239 251 -245 c 128,-1,61
 245 -251 245 -251 245 -257 c 0,62,63
 245 -269 245 -269 252 -278 c 128,-1,64
 259 -287 259 -287 281 -287 c 0,65,66
 310 -287 310 -287 334.5 -269.5 c 128,-1,67
 359 -252 359 -252 381 -220.5 c 128,-1,68
 403 -189 403 -189 423.5 -144 c 128,-1,69
 444 -99 444 -99 465 -45 c 2,70,-1
 770 737 l 2,22,23
EndSplineSet
EndChar

StartChar: z
Encoding: 122 122 93
Width: 959
Flags: W
LayerCount: 2
Fore
SplineSet
484 97 m 1,0,1
 499 98 499 98 514 99 c 128,-1,2
 529 100 529 100 543 102 c 0,3,4
 597 107 597 107 634.5 123 c 128,-1,5
 672 139 672 139 698.5 162 c 128,-1,6
 725 185 725 185 743 213 c 128,-1,7
 761 241 761 241 776.5 269.5 c 128,-1,8
 792 298 792 298 808 325.5 c 128,-1,9
 824 353 824 353 846 375 c 1,10,-1
 901 375 l 1,11,-1
 901 0 l 1,12,-1
 420 0 l 1,13,-1
 484 97 l 1,0,1
448 885 m 1,14,15
 388 884 388 884 348 872 c 128,-1,16
 308 860 308 860 281.5 840.5 c 128,-1,17
 255 821 255 821 238.5 796 c 128,-1,18
 222 771 222 771 208.5 744 c 128,-1,19
 195 717 195 717 181.5 690 c 128,-1,20
 168 663 168 663 147 639 c 1,21,-1
 87 639 l 1,22,-1
 87 981 l 1,23,-1
 512 981 l 1,24,-1
 448 885 l 1,14,15
620 981 m 1,25,-1
 897 981 l 1,26,-1
 897 879 l 1,27,-1
 312 0 l 1,28,-1
 41 0 l 1,29,-1
 41 109 l 1,30,-1
 556 885 l 1,31,-1
 620 981 l 1,25,-1
EndSplineSet
EndChar

StartChar: braceleft
Encoding: 123 123 94
Width: 1023
Flags: W
LayerCount: 2
Fore
SplineSet
352 285 m 2,0,1
 352 337 352 337 345 376 c 128,-1,2
 338 415 338 415 319 444 c 128,-1,3
 300 473 300 473 266.5 494 c 128,-1,4
 233 515 233 515 180 530 c 1,5,6
 234 545 234 545 267.5 566 c 128,-1,7
 301 587 301 587 319.5 616.5 c 128,-1,8
 338 646 338 646 345 685.5 c 128,-1,9
 352 725 352 725 352 776 c 2,10,-1
 352 1159 l 2,11,12
 352 1256 352 1256 377 1316 c 128,-1,13
 402 1376 402 1376 454.5 1408 c 128,-1,14
 507 1440 507 1440 587.5 1451 c 128,-1,15
 668 1462 668 1462 779 1462 c 1,16,-1
 779 1407 l 1,17,18
 723 1400 723 1400 689.5 1381.5 c 128,-1,19
 656 1363 656 1363 638 1331.5 c 128,-1,20
 620 1300 620 1300 614.5 1255.5 c 128,-1,21
 609 1211 609 1211 609 1153 c 2,22,-1
 609 809 l 2,23,24
 609 751 609 751 602 706 c 128,-1,25
 595 661 595 661 574.5 627 c 128,-1,26
 554 593 554 593 518 569.5 c 128,-1,27
 482 546 482 546 424 532 c 1,28,-1
 424 528 l 1,29,30
 482 514 482 514 518 491 c 128,-1,31
 554 468 554 468 574 434 c 128,-1,32
 594 400 594 400 601.5 355 c 128,-1,33
 609 310 609 310 609 252 c 2,34,-1
 609 -94 l 2,35,36
 609 -153 609 -153 614.5 -197 c 128,-1,37
 620 -241 620 -241 638 -272.5 c 128,-1,38
 656 -304 656 -304 689.5 -322 c 128,-1,39
 723 -340 723 -340 779 -346 c 1,40,-1
 779 -401 l 1,41,42
 668 -401 668 -401 587.5 -390.5 c 128,-1,43
 507 -380 507 -380 454.5 -347.5 c 128,-1,44
 402 -315 402 -315 377 -256 c 128,-1,45
 352 -197 352 -197 352 -100 c 2,46,-1
 352 285 l 2,0,1
EndSplineSet
EndChar

StartChar: bar
Encoding: 124 124 95
Width: 512
Flags: W
LayerCount: 2
Fore
SplineSet
134 1436 m 1,0,-1
 376 1436 l 1,1,-1
 376 0 l 1,2,-1
 134 0 l 1,3,-1
 134 1436 l 1,0,-1
EndSplineSet
EndChar

StartChar: braceright
Encoding: 125 125 96
Width: 1023
Flags: W
LayerCount: 2
Fore
SplineSet
669 774 m 2,0,1
 669 722 669 722 676 683 c 128,-1,2
 683 644 683 644 702 615 c 128,-1,3
 721 586 721 586 754.5 565.5 c 128,-1,4
 788 545 788 545 842 530 c 1,5,6
 788 514 788 514 754.5 493 c 128,-1,7
 721 472 721 472 702 443 c 128,-1,8
 683 414 683 414 676 375 c 128,-1,9
 669 336 669 336 669 285 c 2,10,-1
 669 -100 l 2,11,12
 669 -197 669 -197 644 -256 c 128,-1,13
 619 -315 619 -315 567 -347.5 c 128,-1,14
 515 -380 515 -380 434 -390.5 c 128,-1,15
 353 -401 353 -401 242 -401 c 1,16,-1
 242 -346 l 1,17,18
 298 -340 298 -340 332 -322 c 128,-1,19
 366 -304 366 -304 384 -272.5 c 128,-1,20
 402 -241 402 -241 407.5 -197 c 128,-1,21
 413 -153 413 -153 413 -94 c 2,22,-1
 413 252 l 2,23,24
 413 309 413 309 420 353.5 c 128,-1,25
 427 398 427 398 447.5 432 c 128,-1,26
 468 466 468 466 504 489.5 c 128,-1,27
 540 513 540 513 599 528 c 1,28,-1
 599 532 l 1,29,30
 540 546 540 546 504 569.5 c 128,-1,31
 468 593 468 593 447.5 626.5 c 128,-1,32
 427 660 427 660 420 705 c 128,-1,33
 413 750 413 750 413 807 c 2,34,-1
 413 1153 l 2,35,36
 413 1211 413 1211 407.5 1255.5 c 128,-1,37
 402 1300 402 1300 384 1331.5 c 128,-1,38
 366 1363 366 1363 332 1381.5 c 128,-1,39
 298 1400 298 1400 242 1407 c 1,40,-1
 242 1462 l 1,41,42
 353 1462 353 1462 434 1451 c 128,-1,43
 515 1440 515 1440 567 1407.5 c 128,-1,44
 619 1375 619 1375 644 1315.5 c 128,-1,45
 669 1256 669 1256 669 1159 c 2,46,-1
 669 774 l 2,0,1
EndSplineSet
EndChar

StartChar: asciitilde
Encoding: 126 126 97
Width: 1383
Flags: W
LayerCount: 2
Fore
SplineSet
1219 485 m 1,0,1
 1190 453 1190 453 1160.5 422.5 c 128,-1,2
 1131 392 1131 392 1096.5 367.5 c 128,-1,3
 1062 343 1062 343 1021 328 c 128,-1,4
 980 313 980 313 929 313 c 0,5,6
 885 313 885 313 845.5 323 c 128,-1,7
 806 333 806 333 769 348 c 128,-1,8
 732 363 732 363 695.5 381 c 128,-1,9
 659 399 659 399 619.5 414 c 128,-1,10
 580 429 580 429 536.5 439 c 128,-1,11
 493 449 493 449 443 449 c 0,12,13
 405 449 405 449 376 436.5 c 128,-1,14
 347 424 347 424 324 403.5 c 128,-1,15
 301 383 301 383 283.5 357 c 128,-1,16
 266 331 266 331 253 305 c 1,17,-1
 163 496 l 1,18,19
 185 527 185 527 212 557.5 c 128,-1,20
 239 588 239 588 273.5 612 c 128,-1,21
 308 636 308 636 351.5 651 c 128,-1,22
 395 666 395 666 451 666 c 0,23,24
 491 666 491 666 534 656 c 128,-1,25
 577 646 577 646 620 631 c 128,-1,26
 663 616 663 616 705.5 598 c 128,-1,27
 748 580 748 580 788 565 c 128,-1,28
 828 550 828 550 864 540 c 128,-1,29
 900 530 900 530 929 530 c 0,30,31
 963 530 963 530 991 542.5 c 128,-1,32
 1019 555 1019 555 1043 575.5 c 128,-1,33
 1067 596 1067 596 1087.5 622 c 128,-1,34
 1108 648 1108 648 1127 674 c 1,35,-1
 1219 485 l 1,0,1
EndSplineSet
EndChar

StartChar: exclamdown
Encoding: 161 161 99
Width: 682
Flags: W
LayerCount: 2
Fore
SplineSet
392 575 m 1,0,1
 410 431 410 431 432 305.5 c 128,-1,2
 454 180 454 180 472.5 77 c 128,-1,3
 491 -26 491 -26 504 -104.5 c 128,-1,4
 517 -183 517 -183 517 -233 c 0,5,6
 517 -281 517 -281 506.5 -320.5 c 128,-1,7
 496 -360 496 -360 474.5 -388.5 c 128,-1,8
 453 -417 453 -417 420 -433 c 128,-1,9
 387 -449 387 -449 341 -449 c 0,10,11
 296 -449 296 -449 263.5 -433 c 128,-1,12
 231 -417 231 -417 210 -388.5 c 128,-1,13
 189 -360 189 -360 179 -320.5 c 128,-1,14
 169 -281 169 -281 169 -233 c 0,15,16
 169 -183 169 -183 181.5 -104.5 c 128,-1,17
 194 -26 194 -26 212 76.5 c 128,-1,18
 230 179 230 179 251.5 305 c 128,-1,19
 273 431 273 431 291 575 c 1,20,-1
 392 575 l 1,0,1
173 852 m 256,21,22
 173 889 173 889 185.5 921 c 128,-1,23
 198 953 198 953 220 977 c 128,-1,24
 242 1001 242 1001 273 1014.5 c 128,-1,25
 304 1028 304 1028 341 1028 c 256,26,27
 378 1028 378 1028 409 1014.5 c 128,-1,28
 440 1001 440 1001 462.5 977 c 128,-1,29
 485 953 485 953 497.5 921 c 128,-1,30
 510 889 510 889 510 852 c 256,31,32
 510 815 510 815 497.5 783 c 128,-1,33
 485 751 485 751 462.5 727 c 128,-1,34
 440 703 440 703 409 689.5 c 128,-1,35
 378 676 378 676 341 676 c 256,36,37
 304 676 304 676 273 689.5 c 128,-1,38
 242 703 242 703 220 727 c 128,-1,39
 198 751 198 751 185.5 783 c 128,-1,40
 173 815 173 815 173 852 c 256,21,22
EndSplineSet
EndChar

StartChar: cent
Encoding: 162 162 100
Width: 1153
Flags: W
LayerCount: 2
Fore
SplineSet
926 569 m 1,0,1
 918 510 918 510 899.5 456.5 c 128,-1,2
 881 403 881 403 845.5 361.5 c 128,-1,3
 810 320 810 320 756 293.5 c 128,-1,4
 702 267 702 267 623 262 c 1,5,-1
 623 -16 l 1,6,-1
 548 -16 l 1,7,-1
 548 262 l 1,8,9
 451 268 451 268 378.5 310 c 128,-1,10
 306 352 306 352 257.5 416 c 128,-1,11
 209 480 209 480 185 558.5 c 128,-1,12
 161 637 161 637 161 717 c 0,13,14
 161 810 161 810 190.5 889.5 c 128,-1,15
 220 969 220 969 272 1029.5 c 128,-1,16
 324 1090 324 1090 394.5 1128.5 c 128,-1,17
 465 1167 465 1167 548 1178 c 1,18,-1
 548 1401 l 1,19,-1
 623 1401 l 1,20,-1
 623 1184 l 1,21,22
 699 1182 699 1182 755.5 1162 c 128,-1,23
 812 1142 812 1142 850 1108.5 c 128,-1,24
 888 1075 888 1075 907 1030.5 c 128,-1,25
 926 986 926 986 926 936 c 0,26,27
 926 867 926 867 888 833 c 128,-1,28
 850 799 850 799 786 799 c 0,29,30
 752 799 752 799 728 810 c 128,-1,31
 704 821 704 821 689 839.5 c 128,-1,32
 674 858 674 858 667 881.5 c 128,-1,33
 660 905 660 905 660 930 c 0,34,35
 660 956 660 956 667 979 c 128,-1,36
 674 1002 674 1002 689 1019.5 c 128,-1,37
 704 1037 704 1037 728.5 1047 c 128,-1,38
 753 1057 753 1057 788 1057 c 1,39,40
 771 1088 771 1088 737.5 1101 c 128,-1,41
 704 1114 704 1114 662 1114 c 0,42,43
 651 1114 651 1114 642 1113.5 c 128,-1,44
 633 1113 633 1113 623 1110 c 1,45,-1
 623 350 l 1,46,47
 627 348 627 348 634 348 c 0,48,49
 688 348 688 348 726.5 368.5 c 128,-1,50
 765 389 765 389 791.5 422 c 128,-1,51
 818 455 818 455 834.5 497.5 c 128,-1,52
 851 540 851 540 860 584 c 1,53,-1
 926 569 l 1,0,1
548 1081 m 1,54,55
 490 1044 490 1044 459.5 953.5 c 128,-1,56
 429 863 429 863 429 711 c 0,57,58
 429 573 429 573 455.5 487.5 c 128,-1,59
 482 402 482 402 548 371 c 1,60,-1
 548 1081 l 1,54,55
EndSplineSet
EndChar

StartChar: sterling
Encoding: 163 163 101
Width: 1152
Flags: W
LayerCount: 2
Fore
SplineSet
491 139 m 1,0,1
 477 153 477 153 459 168 c 128,-1,2
 441 183 441 183 421 195 c 128,-1,3
 401 207 401 207 380 215 c 128,-1,4
 359 223 359 223 339 223 c 0,5,6
 297 223 297 223 273 205 c 128,-1,7
 249 187 249 187 249 156 c 0,8,9
 249 121 249 121 285 98.5 c 128,-1,10
 321 76 321 76 379 76 c 0,11,12
 417 76 417 76 447.5 95 c 128,-1,13
 478 114 478 114 491 139 c 1,0,1
692 1451 m 1,14,15
 757 1446 757 1446 812.5 1427.5 c 128,-1,16
 868 1409 868 1409 908.5 1378 c 128,-1,17
 949 1347 949 1347 972 1304.5 c 128,-1,18
 995 1262 995 1262 995 1210 c 0,19,20
 995 1177 995 1177 984 1150 c 128,-1,21
 973 1123 973 1123 953 1104.5 c 128,-1,22
 933 1086 933 1086 906 1075.5 c 128,-1,23
 879 1065 879 1065 847 1065 c 0,24,25
 775 1065 775 1065 736.5 1102 c 128,-1,26
 698 1139 698 1139 698 1196 c 0,27,28
 698 1222 698 1222 704 1240 c 128,-1,29
 710 1258 710 1258 719 1271 c 128,-1,30
 728 1284 728 1284 740 1294 c 128,-1,31
 752 1304 752 1304 764 1315 c 1,32,33
 756 1333 756 1333 739.5 1345.5 c 128,-1,34
 723 1358 723 1358 692 1363 c 1,35,-1
 692 1451 l 1,14,15
603 1359 m 1,36,37
 566 1344 566 1344 541.5 1299.5 c 128,-1,38
 517 1255 517 1255 517 1192 c 0,39,40
 517 1124 517 1124 534 1065.5 c 128,-1,41
 551 1007 551 1007 580 951 c 128,-1,42
 609 895 609 895 648.5 839 c 128,-1,43
 688 783 688 783 732 721 c 1,44,-1
 1086 721 l 1,45,-1
 1086 621 l 1,46,-1
 782 621 l 1,47,48
 809 576 809 576 830 528 c 128,-1,49
 851 480 851 480 851 420 c 0,50,51
 851 351 851 351 822 277.5 c 128,-1,52
 793 204 793 204 722 141 c 1,53,54
 751 123 751 123 784.5 108.5 c 128,-1,55
 818 94 818 94 860 94 c 0,56,57
 895 94 895 94 924 107 c 128,-1,58
 953 120 953 120 977.5 142.5 c 128,-1,59
 1002 165 1002 165 1023 195 c 128,-1,60
 1044 225 1044 225 1063 260 c 1,61,-1
 1153 197 l 1,62,63
 1133 153 1133 153 1103.5 115 c 128,-1,64
 1074 77 1074 77 1035.5 48.5 c 128,-1,65
 997 20 997 20 951 4 c 128,-1,66
 905 -12 905 -12 851 -12 c 0,67,68
 819 -12 819 -12 786.5 -5 c 128,-1,69
 754 2 754 2 723.5 13 c 128,-1,70
 693 24 693 24 666 38 c 128,-1,71
 639 52 639 52 618 66 c 1,72,73
 568 25 568 25 502 -3 c 128,-1,74
 436 -31 436 -31 349 -31 c 0,75,76
 284 -31 284 -31 226 -15.5 c 128,-1,77
 168 0 168 0 124.5 28.5 c 128,-1,78
 81 57 81 57 55.5 97 c 128,-1,79
 30 137 30 137 30 186 c 0,80,81
 30 230 30 230 49 265 c 128,-1,82
 68 300 68 300 100.5 324.5 c 128,-1,83
 133 349 133 349 176.5 362 c 128,-1,84
 220 375 220 375 270 375 c 0,85,86
 311 375 311 375 350.5 362.5 c 128,-1,87
 390 350 390 350 427.5 330 c 128,-1,88
 465 310 465 310 499.5 284.5 c 128,-1,89
 534 259 534 259 565 233 c 1,90,91
 570 255 570 255 572.5 279 c 128,-1,92
 575 303 575 303 575 338 c 0,93,94
 575 383 575 383 561.5 422 c 128,-1,95
 548 461 548 461 526.5 495.5 c 128,-1,96
 505 530 505 530 478.5 561 c 128,-1,97
 452 592 452 592 427 621 c 1,98,-1
 55 621 l 1,99,-1
 55 721 l 1,100,-1
 351 721 l 1,101,102
 328 752 328 752 307 788.5 c 128,-1,103
 286 825 286 825 270 868.5 c 128,-1,104
 254 912 254 912 245 963.5 c 128,-1,105
 236 1015 236 1015 236 1075 c 0,106,107
 236 1151 236 1151 263 1216.5 c 128,-1,108
 290 1282 290 1282 338.5 1331.5 c 128,-1,109
 387 1381 387 1381 454.5 1412 c 128,-1,110
 522 1443 522 1443 603 1450 c 1,111,-1
 603 1359 l 1,36,37
EndSplineSet
EndChar

StartChar: currency
Encoding: 164 164 102
Width: 1153
Flags: W
LayerCount: 2
Fore
SplineSet
1012 991 m 1,0,1
 1064 939 1064 939 1091 865.5 c 128,-1,2
 1118 792 1118 792 1118 711 c 256,3,4
 1118 630 1118 630 1091 557 c 128,-1,5
 1064 484 1064 484 1012 430 c 1,6,-1
 1141 315 l 1,7,-1
 1009 201 l 1,8,-1
 882 313 l 1,9,10
 824 275 824 275 742.5 252 c 128,-1,11
 661 229 661 229 576 229 c 0,12,13
 488 229 488 229 408 252 c 128,-1,14
 328 275 328 275 268 313 c 1,15,-1
 141 201 l 1,16,-1
 11 315 l 1,17,-1
 139 430 l 1,18,19
 85 484 85 484 60 557 c 128,-1,20
 35 630 35 630 35 711 c 256,21,22
 35 792 35 792 60 865.5 c 128,-1,23
 85 939 85 939 139 991 c 1,24,-1
 11 1104 l 1,25,-1
 141 1221 l 1,26,-1
 268 1106 l 1,27,28
 328 1146 328 1146 408 1169 c 128,-1,29
 488 1192 488 1192 576 1192 c 0,30,31
 661 1192 661 1192 742.5 1169 c 128,-1,32
 824 1146 824 1146 882 1106 c 1,33,-1
 1009 1221 l 1,34,-1
 1141 1104 l 1,35,-1
 1012 991 l 1,0,1
279 711 m 0,36,37
 279 655 279 655 301.5 605.5 c 128,-1,38
 324 556 324 556 364 519 c 128,-1,39
 404 482 404 482 458.5 461 c 128,-1,40
 513 440 513 440 576 440 c 0,41,42
 638 440 638 440 692.5 461 c 128,-1,43
 747 482 747 482 787 519 c 128,-1,44
 827 556 827 556 850 605.5 c 128,-1,45
 873 655 873 655 873 711 c 0,46,47
 873 766 873 766 850 815 c 128,-1,48
 827 864 827 864 787 901 c 128,-1,49
 747 938 747 938 692.5 959.5 c 128,-1,50
 638 981 638 981 576 981 c 0,51,52
 513 981 513 981 458.5 959.5 c 128,-1,53
 404 938 404 938 364 901 c 128,-1,54
 324 864 324 864 301.5 815 c 128,-1,55
 279 766 279 766 279 711 c 0,36,37
EndSplineSet
EndChar

StartChar: yen
Encoding: 165 165 103
Width: 1153
Flags: W
LayerCount: 2
Fore
SplineSet
781 729 m 1,0,-1
 737 641 l 1,1,-1
 737 584 l 1,2,-1
 1088 584 l 1,3,-1
 1088 483 l 1,4,-1
 737 483 l 1,5,-1
 737 180 l 2,6,7
 737 145 737 145 749.5 128.5 c 128,-1,8
 762 112 762 112 783 103.5 c 128,-1,9
 804 95 804 95 833 90 c 128,-1,10
 862 85 862 85 895 74 c 1,11,-1
 895 0 l 1,12,-1
 265 0 l 1,13,-1
 265 74 l 1,14,15
 296 85 296 85 325 90.5 c 128,-1,16
 354 96 354 96 376 104.5 c 128,-1,17
 398 113 398 113 411 129 c 128,-1,18
 424 145 424 145 424 178 c 2,19,-1
 424 483 l 1,20,-1
 66 483 l 1,21,-1
 66 584 l 1,22,-1
 424 584 l 1,23,-1
 424 610 l 1,24,-1
 362 729 l 1,25,-1
 66 729 l 1,26,-1
 66 829 l 1,27,-1
 310 829 l 1,28,-1
 115 1208 l 2,29,30
 90 1256 90 1256 67 1280 c 128,-1,31
 44 1304 44 1304 23 1315 c 128,-1,32
 2 1326 2 1326 -16.5 1331 c 128,-1,33
 -35 1336 -35 1336 -51 1346 c 1,34,-1
 -51 1421 l 1,35,-1
 556 1421 l 1,36,-1
 556 1346 l 1,37,38
 533 1337 533 1337 509.5 1331.5 c 128,-1,39
 486 1326 486 1326 466.5 1319.5 c 128,-1,40
 447 1313 447 1313 434.5 1303 c 128,-1,41
 422 1293 422 1293 422 1274 c 0,42,43
 422 1263 422 1263 427.5 1246.5 c 128,-1,44
 433 1230 433 1230 442 1210 c 128,-1,45
 451 1190 451 1190 462.5 1168 c 128,-1,46
 474 1146 474 1146 486 1124 c 2,47,-1
 675 772 l 1,48,-1
 865 1145 l 2,49,50
 882 1179 882 1179 895 1210 c 128,-1,51
 908 1241 908 1241 908 1264 c 256,52,53
 908 1287 908 1287 894 1299.5 c 128,-1,54
 880 1312 880 1312 858.5 1319.5 c 128,-1,55
 837 1327 837 1327 811.5 1332 c 128,-1,56
 786 1337 786 1337 763 1346 c 1,57,-1
 763 1421 l 1,58,-1
 1185 1421 l 1,59,-1
 1185 1350 l 1,60,61
 1169 1337 1169 1337 1152 1331 c 128,-1,62
 1135 1325 1135 1325 1116.5 1314.5 c 128,-1,63
 1098 1304 1098 1304 1077.5 1284 c 128,-1,64
 1057 1264 1057 1264 1035 1223 c 2,65,-1
 834 829 l 1,66,-1
 1088 829 l 1,67,-1
 1088 729 l 1,68,-1
 781 729 l 1,0,-1
EndSplineSet
EndChar

StartChar: brokenbar
Encoding: 166 166 104
Width: 512
Flags: W
LayerCount: 2
Fore
SplineSet
134 535 m 1,0,-1
 376 535 l 1,1,-1
 376 0 l 1,2,-1
 134 0 l 1,3,-1
 134 535 l 1,0,-1
134 1436 m 1,4,-1
 376 1436 l 1,5,-1
 376 899 l 1,6,-1
 134 899 l 1,7,-1
 134 1436 l 1,4,-1
EndSplineSet
EndChar

StartChar: section
Encoding: 167 167 105
Width: 1258
Flags: W
LayerCount: 2
Fore
SplineSet
682 1450 m 1,0,1
 755 1444 755 1444 811 1424 c 128,-1,2
 867 1404 867 1404 905.5 1374.5 c 128,-1,3
 944 1345 944 1345 963.5 1309 c 128,-1,4
 983 1273 983 1273 983 1235 c 0,5,6
 983 1206 983 1206 972 1181 c 128,-1,7
 961 1156 961 1156 941 1138 c 128,-1,8
 921 1120 921 1120 894 1110 c 128,-1,9
 867 1100 867 1100 834 1100 c 0,10,11
 803 1100 803 1100 777.5 1109 c 128,-1,12
 752 1118 752 1118 733.5 1133.5 c 128,-1,13
 715 1149 715 1149 705 1169 c 128,-1,14
 695 1189 695 1189 695 1212 c 0,15,16
 695 1243 695 1243 706 1262.5 c 128,-1,17
 717 1282 717 1282 730 1295 c 128,-1,18
 743 1308 743 1308 754 1316.5 c 128,-1,19
 765 1325 765 1325 765 1335 c 0,20,21
 765 1352 765 1352 742 1364 c 128,-1,22
 719 1376 719 1376 682 1379 c 1,23,-1
 682 1450 l 1,0,1
556 -243 m 1,24,25
 474 -239 474 -239 415 -217 c 128,-1,26
 356 -195 356 -195 318 -163.5 c 128,-1,27
 280 -132 280 -132 262 -94.5 c 128,-1,28
 244 -57 244 -57 244 -21 c 0,29,30
 244 5 244 5 253.5 29.5 c 128,-1,31
 263 54 263 54 282 72.5 c 128,-1,32
 301 91 301 91 328 102 c 128,-1,33
 355 113 355 113 391 113 c 0,34,35
 457 113 457 113 498 81.5 c 128,-1,36
 539 50 539 50 539 -4 c 0,37,38
 539 -30 539 -30 528.5 -47 c 128,-1,39
 518 -64 518 -64 506 -77 c 128,-1,40
 494 -90 494 -90 483.5 -101 c 128,-1,41
 473 -112 473 -112 473 -125 c 0,42,43
 473 -143 473 -143 497 -153.5 c 128,-1,44
 521 -164 521 -164 556 -169 c 1,45,-1
 556 -243 l 1,24,25
645 -169 m 1,46,47
 698 -161 698 -161 733.5 -130.5 c 128,-1,48
 769 -100 769 -100 769 -47 c 0,49,50
 769 -10 769 -10 743.5 25 c 128,-1,51
 718 60 718 60 676 95 c 128,-1,52
 634 130 634 130 580 166 c 128,-1,53
 526 202 526 202 470 240.5 c 128,-1,54
 414 279 414 279 360 321 c 128,-1,55
 306 363 306 363 264 410.5 c 128,-1,56
 222 458 222 458 196.5 511.5 c 128,-1,57
 171 565 171 565 171 627 c 0,58,59
 171 742 171 742 239.5 808 c 128,-1,60
 308 874 308 874 435 893 c 1,61,62
 406 916 406 916 375.5 946.5 c 128,-1,63
 345 977 345 977 320.5 1012 c 128,-1,64
 296 1047 296 1047 280.5 1087 c 128,-1,65
 265 1127 265 1127 265 1169 c 0,66,67
 265 1232 265 1232 289.5 1282 c 128,-1,68
 314 1332 314 1332 357.5 1368 c 128,-1,69
 401 1404 401 1404 461.5 1425 c 128,-1,70
 522 1446 522 1446 593 1451 c 1,71,-1
 593 1373 l 1,72,73
 545 1361 545 1361 515.5 1329.5 c 128,-1,74
 486 1298 486 1298 486 1247 c 0,75,76
 486 1211 486 1211 512 1176.5 c 128,-1,77
 538 1142 538 1142 580.5 1106.5 c 128,-1,78
 623 1071 623 1071 677 1034 c 128,-1,79
 731 997 731 997 788 957 c 128,-1,80
 845 917 845 917 899 873.5 c 128,-1,81
 953 830 953 830 995.5 781.5 c 128,-1,82
 1038 733 1038 733 1064 678 c 128,-1,83
 1090 623 1090 623 1090 561 c 0,84,85
 1090 522 1090 522 1078.5 480.5 c 128,-1,86
 1067 439 1067 439 1037.5 402 c 128,-1,87
 1008 365 1008 365 958.5 337.5 c 128,-1,88
 909 310 909 310 834 299 c 1,89,90
 862 277 862 277 891 252.5 c 128,-1,91
 920 228 920 228 944 198.5 c 128,-1,92
 968 169 968 169 983 132 c 128,-1,93
 998 95 998 95 998 47 c 0,94,95
 998 -15 998 -15 972 -65.5 c 128,-1,96
 946 -116 946 -116 899 -153.5 c 128,-1,97
 852 -191 852 -191 787 -213.5 c 128,-1,98
 722 -236 722 -236 645 -242 c 1,99,-1
 645 -169 l 1,46,47
354 725 m 0,100,101
 354 703 354 703 361.5 680.5 c 128,-1,102
 369 658 369 658 388.5 631.5 c 128,-1,103
 408 605 408 605 443 573 c 128,-1,104
 478 541 478 541 532 500 c 0,105,106
 601 446 601 446 666.5 410.5 c 128,-1,107
 732 375 732 375 779 375 c 0,108,109
 803 375 803 375 825 382.5 c 128,-1,110
 847 390 847 390 863.5 403.5 c 128,-1,111
 880 417 880 417 889.5 435.5 c 128,-1,112
 899 454 899 454 899 477 c 0,113,114
 899 496 899 496 890.5 519.5 c 128,-1,115
 882 543 882 543 860.5 571 c 128,-1,116
 839 599 839 599 803 633 c 128,-1,117
 767 667 767 667 712 709 c 0,118,119
 667 743 667 743 631.5 765 c 128,-1,120
 596 787 596 787 567.5 800 c 128,-1,121
 539 813 539 813 516 818 c 128,-1,122
 493 823 493 823 475 823 c 0,123,124
 417 823 417 823 385.5 795 c 128,-1,125
 354 767 354 767 354 725 c 0,100,101
EndSplineSet
EndChar

StartChar: dieresis
Encoding: 168 168 106
Width: 641
Flags: W
LayerCount: 2
Fore
SplineSet
-135 1268 m 0,0,1
 -135 1295 -135 1295 -124 1318 c 128,-1,2
 -113 1341 -113 1341 -94 1358 c 128,-1,3
 -75 1375 -75 1375 -48.5 1385 c 128,-1,4
 -22 1395 -22 1395 8 1395 c 0,5,6
 37 1395 37 1395 63 1385 c 128,-1,7
 89 1375 89 1375 108.5 1358 c 128,-1,8
 128 1341 128 1341 139.5 1318 c 128,-1,9
 151 1295 151 1295 151 1268 c 0,10,11
 151 1242 151 1242 139.5 1218.5 c 128,-1,12
 128 1195 128 1195 108.5 1178 c 128,-1,13
 89 1161 89 1161 63 1151 c 128,-1,14
 37 1141 37 1141 8 1141 c 0,15,16
 -22 1141 -22 1141 -48.5 1151 c 128,-1,17
 -75 1161 -75 1161 -94 1178 c 128,-1,18
 -113 1195 -113 1195 -124 1218.5 c 128,-1,19
 -135 1242 -135 1242 -135 1268 c 0,0,1
488 1268 m 0,20,21
 488 1295 488 1295 499 1318 c 128,-1,22
 510 1341 510 1341 529 1358 c 128,-1,23
 548 1375 548 1375 574.5 1385 c 128,-1,24
 601 1395 601 1395 631 1395 c 0,25,26
 660 1395 660 1395 686 1385 c 128,-1,27
 712 1375 712 1375 731.5 1358 c 128,-1,28
 751 1341 751 1341 762.5 1318 c 128,-1,29
 774 1295 774 1295 774 1268 c 0,30,31
 774 1242 774 1242 762.5 1218.5 c 128,-1,32
 751 1195 751 1195 731.5 1178 c 128,-1,33
 712 1161 712 1161 686 1151 c 128,-1,34
 660 1141 660 1141 631 1141 c 0,35,36
 601 1141 601 1141 574.5 1151 c 128,-1,37
 548 1161 548 1161 529 1178 c 128,-1,38
 510 1195 510 1195 499 1218.5 c 128,-1,39
 488 1242 488 1242 488 1268 c 0,20,21
EndSplineSet
EndChar

StartChar: copyright
Encoding: 169 169 107
Width: 1844
Flags: W
LayerCount: 2
Fore
SplineSet
886 -31 m 1,0,1
 772 -28 772 -28 669.5 -0.5 c 128,-1,2
 567 27 567 27 480.5 75.5 c 128,-1,3
 394 124 394 124 324 190.5 c 128,-1,4
 254 257 254 257 205.5 338.5 c 128,-1,5
 157 420 157 420 130.5 513.5 c 128,-1,6
 104 607 104 607 104 709 c 0,7,8
 104 863 104 863 162 996 c 128,-1,9
 220 1129 220 1129 324 1228 c 128,-1,10
 428 1327 428 1327 571.5 1386 c 128,-1,11
 715 1445 715 1445 886 1451 c 1,12,-1
 886 1322 l 1,13,14
 757 1316 757 1316 650 1266 c 128,-1,15
 543 1216 543 1216 466.5 1133.5 c 128,-1,16
 390 1051 390 1051 348 942 c 128,-1,17
 306 833 306 833 306 709 c 0,18,19
 306 586 306 586 348 477.5 c 128,-1,20
 390 369 390 369 466.5 287 c 128,-1,21
 543 205 543 205 650 155 c 128,-1,22
 757 105 757 105 886 99 c 1,23,-1
 886 -31 l 1,0,1
955 99 m 1,24,25
 1084 105 1084 105 1190 155 c 128,-1,26
 1296 205 1296 205 1372.5 287.5 c 128,-1,27
 1449 370 1449 370 1491 478.5 c 128,-1,28
 1533 587 1533 587 1533 709 c 0,29,30
 1533 833 1533 833 1490.5 941.5 c 128,-1,31
 1448 1050 1448 1050 1371.5 1132 c 128,-1,32
 1295 1214 1295 1214 1188.5 1264.5 c 128,-1,33
 1082 1315 1082 1315 955 1322 c 1,34,-1
 955 1451 l 1,35,36
 1069 1447 1069 1447 1171 1419 c 128,-1,37
 1273 1391 1273 1391 1360 1342.5 c 128,-1,38
 1447 1294 1447 1294 1516.5 1227 c 128,-1,39
 1586 1160 1586 1160 1635 1079 c 128,-1,40
 1684 998 1684 998 1710 904.5 c 128,-1,41
 1736 811 1736 811 1736 709 c 0,42,43
 1736 556 1736 556 1678 423.5 c 128,-1,44
 1620 291 1620 291 1516.5 192 c 128,-1,45
 1413 93 1413 93 1269.5 34.5 c 128,-1,46
 1126 -24 1126 -24 955 -30 c 1,47,-1
 955 99 l 1,24,25
955 1147 m 1,48,49
 1004 1146 1004 1146 1060.5 1139.5 c 128,-1,50
 1117 1133 1117 1133 1165.5 1123.5 c 128,-1,51
 1214 1114 1214 1114 1246 1101 c 128,-1,52
 1278 1088 1278 1088 1278 1073 c 2,53,-1
 1278 907 l 1,54,-1
 1219 907 l 1,55,56
 1206 938 1206 938 1185.5 969 c 128,-1,57
 1165 1000 1165 1000 1133.5 1025 c 128,-1,58
 1102 1050 1102 1050 1058.5 1067 c 128,-1,59
 1015 1084 1015 1084 955 1087 c 1,60,-1
 955 1147 l 1,48,49
955 367 m 1,61,62
 1061 370 1061 370 1134.5 421.5 c 128,-1,63
 1208 473 1208 473 1259 561 c 1,64,-1
 1314 561 l 1,65,-1
 1278 381 l 2,66,67
 1276 373 1276 373 1245 361.5 c 128,-1,68
 1214 350 1214 350 1167 339 c 128,-1,69
 1120 328 1120 328 1063.5 319 c 128,-1,70
 1007 310 1007 310 955 308 c 1,71,-1
 955 367 l 1,61,62
886 308 m 1,72,73
 783 312 783 312 702 341.5 c 128,-1,74
 621 371 621 371 564.5 425 c 128,-1,75
 508 479 508 479 478.5 556.5 c 128,-1,76
 449 634 449 634 449 735 c 0,77,78
 449 811 449 811 474.5 882 c 128,-1,79
 500 953 500 953 553 1009 c 128,-1,80
 606 1065 606 1065 689 1102 c 128,-1,81
 772 1139 772 1139 886 1146 c 1,82,-1
 886 1079 l 1,83,84
 815 1055 815 1055 781 967 c 128,-1,85
 747 879 747 879 747 745 c 0,86,87
 747 677 747 677 754 616 c 128,-1,88
 761 555 761 555 777.5 506.5 c 128,-1,89
 794 458 794 458 820.5 424.5 c 128,-1,90
 847 391 847 391 886 377 c 1,91,-1
 886 308 l 1,72,73
EndSplineSet
EndChar

StartChar: ordfeminine
Encoding: 170 170 108
Width: 692
Flags: W
LayerCount: 2
Fore
SplineSet
599 977 m 2,0,1
 599 951 599 951 605 935.5 c 128,-1,2
 611 920 611 920 634 920 c 0,3,4
 654 920 654 920 662 930 c 128,-1,5
 670 940 670 940 673 979 c 1,6,-1
 722 967 l 1,7,8
 717 937 717 937 706.5 912 c 128,-1,9
 696 887 696 887 677.5 869 c 128,-1,10
 659 851 659 851 632 841 c 128,-1,11
 605 831 605 831 567 831 c 0,12,13
 538 831 538 831 516 837.5 c 128,-1,14
 494 844 494 844 477.5 854.5 c 128,-1,15
 461 865 461 865 448.5 879.5 c 128,-1,16
 436 894 436 894 427 909 c 1,17,18
 394 874 394 874 351 852.5 c 128,-1,19
 308 831 308 831 240 831 c 0,20,21
 192 831 192 831 152 842 c 128,-1,22
 112 853 112 853 83 874 c 128,-1,23
 54 895 54 895 37.5 925.5 c 128,-1,24
 21 956 21 956 21 995 c 0,25,26
 21 1053 21 1053 55 1090 c 128,-1,27
 89 1127 89 1127 143.5 1151.5 c 128,-1,28
 198 1176 198 1176 267 1192.5 c 128,-1,29
 336 1209 336 1209 405 1227 c 1,30,-1
 403 1296 l 2,31,32
 401 1347 401 1347 376.5 1373 c 128,-1,33
 352 1399 352 1399 293 1399 c 0,34,35
 263 1399 263 1399 241.5 1387.5 c 128,-1,36
 220 1376 220 1376 214 1358 c 1,37,38
 232 1352 232 1352 246 1337.5 c 128,-1,39
 260 1323 260 1323 260 1300 c 0,40,41
 260 1260 260 1260 233 1241.5 c 128,-1,42
 206 1223 206 1223 161 1223 c 256,43,44
 116 1223 116 1223 91.5 1247.5 c 128,-1,45
 67 1272 67 1272 67 1307 c 0,46,47
 67 1340 67 1340 85.5 1367 c 128,-1,48
 104 1394 104 1394 137 1412.5 c 128,-1,49
 170 1431 170 1431 216 1441.5 c 128,-1,50
 262 1452 262 1452 317 1452 c 0,51,52
 368 1452 368 1452 418.5 1442 c 128,-1,53
 469 1432 469 1432 509 1408 c 128,-1,54
 549 1384 549 1384 574 1344.5 c 128,-1,55
 599 1305 599 1305 599 1247 c 2,56,-1
 599 977 l 2,0,1
405 1167 m 1,57,58
 372 1162 372 1162 341 1150.5 c 128,-1,59
 310 1139 310 1139 286 1119.5 c 128,-1,60
 262 1100 262 1100 247.5 1072.5 c 128,-1,61
 233 1045 233 1045 233 1008 c 0,62,63
 233 966 233 966 252 938.5 c 128,-1,64
 271 911 271 911 306 911 c 0,65,66
 336 911 336 911 355 922 c 128,-1,67
 374 933 374 933 385 951 c 128,-1,68
 396 969 396 969 400.5 991.5 c 128,-1,69
 405 1014 405 1014 405 1038 c 2,70,-1
 405 1167 l 1,57,58
EndSplineSet
EndChar

StartChar: guillemotleft
Encoding: 171 171 109
Width: 1108
Flags: W
LayerCount: 2
Fore
SplineSet
491 485 m 1,0,-1
 505 522 l 1,1,-1
 834 844 l 1,2,3
 887 854 887 854 939 854 c 0,4,5
 947 854 947 854 950.5 848 c 128,-1,6
 954 842 954 842 954 836 c 1,7,8
 948 813 948 813 932 783 c 128,-1,9
 916 753 916 753 895 720 c 128,-1,10
 874 687 874 687 851 652.5 c 128,-1,11
 828 618 828 618 807.5 587 c 128,-1,12
 787 556 787 556 771.5 530.5 c 128,-1,13
 756 505 756 505 751 489 c 1,14,15
 756 474 756 474 771.5 449 c 128,-1,16
 787 424 787 424 807.5 393.5 c 128,-1,17
 828 363 828 363 851 329 c 128,-1,18
 874 295 874 295 895 261.5 c 128,-1,19
 916 228 916 228 932 197.5 c 128,-1,20
 948 167 948 167 954 143 c 1,21,22
 954 137 954 137 950.5 132 c 128,-1,23
 947 127 947 127 939 127 c 0,24,25
 914 127 914 127 888.5 129 c 128,-1,26
 863 131 863 131 834 137 c 1,27,-1
 491 485 l 1,0,-1
97 485 m 1,28,-1
 110 520 l 1,29,-1
 440 844 l 1,30,31
 468 849 468 849 494 851.5 c 128,-1,32
 520 854 520 854 543 854 c 0,33,34
 553 854 553 854 556.5 848 c 128,-1,35
 560 842 560 842 560 836 c 1,36,37
 554 813 554 813 538 783 c 128,-1,38
 522 753 522 753 501 720 c 128,-1,39
 480 687 480 687 457 652.5 c 128,-1,40
 434 618 434 618 413.5 587 c 128,-1,41
 393 556 393 556 377.5 530.5 c 128,-1,42
 362 505 362 505 357 489 c 1,43,44
 362 474 362 474 377.5 449 c 128,-1,45
 393 424 393 424 413.5 393.5 c 128,-1,46
 434 363 434 363 457 329 c 128,-1,47
 480 295 480 295 501 261.5 c 128,-1,48
 522 228 522 228 538 197.5 c 128,-1,49
 554 167 554 167 560 143 c 1,50,51
 560 137 560 137 556.5 132 c 128,-1,52
 553 127 553 127 543 127 c 0,53,54
 520 127 520 127 494.5 129 c 128,-1,55
 469 131 469 131 440 137 c 1,56,-1
 97 485 l 1,28,-1
EndSplineSet
EndChar

StartChar: logicalnot
Encoding: 172 172 110
Width: 1383
Flags: W
LayerCount: 2
Fore
SplineSet
1001 594 m 1,0,-1
 139 594 l 1,1,-1
 139 809 l 1,2,-1
 1243 809 l 1,3,-1
 1243 170 l 1,4,-1
 1001 170 l 1,5,-1
 1001 594 l 1,0,-1
EndSplineSet
EndChar

StartChar: uni00AD
Encoding: 173 173 111
Width: 638
Flags: W
LayerCount: 2
Fore
SplineSet
51 389 m 1,0,-1
 51 590 l 1,1,-1
 587 590 l 1,2,-1
 587 389 l 1,3,-1
 51 389 l 1,0,-1
EndSplineSet
EndChar

StartChar: registered
Encoding: 174 174 112
Width: 1844
Flags: W
LayerCount: 2
Fore
SplineSet
873 -30 m 1,0,1
 761 -25 761 -25 660.5 3.5 c 128,-1,2
 560 32 560 32 474.5 80 c 128,-1,3
 389 128 389 128 320.5 194.5 c 128,-1,4
 252 261 252 261 204 341 c 128,-1,5
 156 421 156 421 130.5 514 c 128,-1,6
 105 607 105 607 105 709 c 0,7,8
 105 861 105 861 162 993 c 128,-1,9
 219 1125 219 1125 321 1224 c 128,-1,10
 423 1323 423 1323 564 1383 c 128,-1,11
 705 1443 705 1443 873 1451 c 1,12,-1
 873 1321 l 1,13,14
 747 1313 747 1313 642.5 1262 c 128,-1,15
 538 1211 538 1211 463.5 1128.5 c 128,-1,16
 389 1046 389 1046 348 938 c 128,-1,17
 307 830 307 830 307 709 c 256,18,19
 307 588 307 588 348 480.5 c 128,-1,20
 389 373 389 373 463.5 291 c 128,-1,21
 538 209 538 209 642.5 158.5 c 128,-1,22
 747 108 747 108 873 100 c 1,23,-1
 873 -30 l 1,0,1
962 99 m 1,24,25
 1089 106 1089 106 1194.5 157 c 128,-1,26
 1300 208 1300 208 1375.5 290 c 128,-1,27
 1451 372 1451 372 1492.5 480 c 128,-1,28
 1534 588 1534 588 1534 709 c 0,29,30
 1534 832 1534 832 1492.5 940 c 128,-1,31
 1451 1048 1451 1048 1375.5 1130.5 c 128,-1,32
 1300 1213 1300 1213 1194.5 1263.5 c 128,-1,33
 1089 1314 1089 1314 962 1322 c 1,34,-1
 961 1451 l 1,35,36
 1131 1443 1131 1443 1273.5 1383.5 c 128,-1,37
 1416 1324 1416 1324 1519 1225 c 128,-1,38
 1622 1126 1622 1126 1679.5 994 c 128,-1,39
 1737 862 1737 862 1737 709 c 0,40,41
 1737 607 1737 607 1711 514 c 128,-1,42
 1685 421 1685 421 1636.5 340.5 c 128,-1,43
 1588 260 1588 260 1519 194 c 128,-1,44
 1450 128 1450 128 1364 80 c 128,-1,45
 1278 32 1278 32 1176.5 3.5 c 128,-1,46
 1075 -25 1075 -25 962 -30 c 1,47,-1
 962 99 l 1,24,25
527 1122 m 1,48,-1
 1006 1122 l 2,49,50
 1061 1122 1061 1122 1108 1109.5 c 128,-1,51
 1155 1097 1155 1097 1189.5 1071.5 c 128,-1,52
 1224 1046 1224 1046 1244 1006.5 c 128,-1,53
 1264 967 1264 967 1264 913 c 0,54,55
 1264 880 1264 880 1252 847.5 c 128,-1,56
 1240 815 1240 815 1217.5 787 c 128,-1,57
 1195 759 1195 759 1161.5 737.5 c 128,-1,58
 1128 716 1128 716 1085 705 c 1,59,60
 1151 617 1151 617 1219 530 c 128,-1,61
 1287 443 1287 443 1356 362 c 1,62,-1
 1356 334 l 1,63,-1
 1138 334 l 2,64,65
 1121 334 1121 334 1103 350 c 128,-1,66
 1085 366 1085 366 1066 393 c 128,-1,67
 1047 420 1047 420 1027.5 455.5 c 128,-1,68
 1008 491 1008 491 987.5 529 c 128,-1,69
 967 567 967 567 945 605.5 c 128,-1,70
 923 644 923 644 900 678 c 1,71,-1
 848 678 l 1,72,-1
 848 461 l 2,73,74
 848 439 848 439 849.5 424 c 128,-1,75
 851 409 851 409 860.5 400 c 128,-1,76
 870 391 870 391 890 386.5 c 128,-1,77
 910 382 910 382 947 381 c 1,78,-1
 947 334 l 1,79,-1
 527 334 l 1,80,-1
 527 381 l 1,81,82
 565 382 565 382 586 386.5 c 128,-1,83
 607 391 607 391 616.5 400 c 128,-1,84
 626 409 626 409 628 424 c 128,-1,85
 630 439 630 439 630 461 c 2,86,-1
 630 991 l 2,87,88
 630 1014 630 1014 628 1029.5 c 128,-1,89
 626 1045 626 1045 616.5 1054 c 128,-1,90
 607 1063 607 1063 586 1067.5 c 128,-1,91
 565 1072 565 1072 527 1073 c 1,92,-1
 527 1122 l 1,48,-1
848 737 m 1,93,-1
 892 737 l 2,94,95
 933 737 933 737 959.5 751 c 128,-1,96
 986 765 986 765 1001 788 c 128,-1,97
 1016 811 1016 811 1021.5 841.5 c 128,-1,98
 1027 872 1027 872 1027 905 c 0,99,100
 1027 950 1027 950 1019.5 980.5 c 128,-1,101
 1012 1011 1012 1011 998 1029.5 c 128,-1,102
 984 1048 984 1048 963 1055.5 c 128,-1,103
 942 1063 942 1063 914 1063 c 2,104,-1
 848 1063 l 1,105,-1
 848 737 l 1,93,-1
EndSplineSet
EndChar

StartChar: macron
Encoding: 175 175 113
Width: 640
Flags: W
LayerCount: 2
Fore
SplineSet
-28 1198 m 1,0,-1
 -28 1331 l 1,1,-1
 666 1331 l 1,2,-1
 666 1198 l 1,3,-1
 -28 1198 l 1,0,-1
EndSplineSet
EndChar

StartChar: degree
Encoding: 176 176 114
Width: 921
Flags: W
LayerCount: 2
Fore
SplineSet
459 1341 m 0,0,1
 420 1341 420 1341 385 1325.5 c 128,-1,2
 350 1310 350 1310 323.5 1284.5 c 128,-1,3
 297 1259 297 1259 281.5 1226 c 128,-1,4
 266 1193 266 1193 266 1157 c 256,5,6
 266 1121 266 1121 281.5 1088 c 128,-1,7
 297 1055 297 1055 323.5 1030 c 128,-1,8
 350 1005 350 1005 385 990 c 128,-1,9
 420 975 420 975 459 975 c 0,10,11
 499 975 499 975 535 990 c 128,-1,12
 571 1005 571 1005 597.5 1030 c 128,-1,13
 624 1055 624 1055 639.5 1088 c 128,-1,14
 655 1121 655 1121 655 1157 c 256,15,16
 655 1193 655 1193 639.5 1226 c 128,-1,17
 624 1259 624 1259 597.5 1284.5 c 128,-1,18
 571 1310 571 1310 535 1325.5 c 128,-1,19
 499 1341 499 1341 459 1341 c 0,0,1
462 1452 m 0,20,21
 531 1452 531 1452 590.5 1429 c 128,-1,22
 650 1406 650 1406 694.5 1366.5 c 128,-1,23
 739 1327 739 1327 764.5 1273 c 128,-1,24
 790 1219 790 1219 790 1157 c 256,25,26
 790 1095 790 1095 764.5 1042 c 128,-1,27
 739 989 739 989 694.5 949 c 128,-1,28
 650 909 650 909 590.5 886.5 c 128,-1,29
 531 864 531 864 462 864 c 0,30,31
 391 864 391 864 330.5 886.5 c 128,-1,32
 270 909 270 909 225 949 c 128,-1,33
 180 989 180 989 154.5 1042 c 128,-1,34
 129 1095 129 1095 129 1157 c 256,35,36
 129 1219 129 1219 154.5 1273 c 128,-1,37
 180 1327 180 1327 225 1366.5 c 128,-1,38
 270 1406 270 1406 330.5 1429 c 128,-1,39
 391 1452 391 1452 462 1452 c 0,20,21
EndSplineSet
EndChar

StartChar: plusminus
Encoding: 177 177 115
Width: 1383
Flags: W
LayerCount: 2
Fore
SplineSet
570 981 m 1,0,-1
 812 981 l 1,1,-1
 812 741 l 1,2,-1
 1243 741 l 1,3,-1
 1243 526 l 1,4,-1
 812 526 l 1,5,-1
 812 287 l 1,6,-1
 570 287 l 1,7,-1
 570 526 l 1,8,-1
 139 526 l 1,9,-1
 139 741 l 1,10,-1
 570 741 l 1,11,-1
 570 981 l 1,0,-1
139 215 m 1,12,-1
 1243 215 l 1,13,-1
 1243 0 l 1,14,-1
 139 0 l 1,15,-1
 139 215 l 1,12,-1
EndSplineSet
EndChar

StartChar: twosuperior
Encoding: 178 178 116
Width: 691
Flags: W
LayerCount: 2
Fore
SplineSet
625 582 m 1,0,-1
 37 582 l 1,1,2
 37 606 37 606 37.5 625.5 c 128,-1,3
 38 645 38 645 42 663.5 c 128,-1,4
 46 682 46 682 53.5 700 c 128,-1,5
 61 718 61 718 75 739 c 1,6,7
 139 820 139 820 205.5 887 c 128,-1,8
 272 954 272 954 332 1022 c 0,9,10
 382 1079 382 1079 397.5 1129.5 c 128,-1,11
 413 1180 413 1180 413 1223 c 0,12,13
 413 1254 413 1254 405 1284 c 128,-1,14
 397 1314 397 1314 380 1338 c 128,-1,15
 363 1362 363 1362 336.5 1376.5 c 128,-1,16
 310 1391 310 1391 273 1391 c 0,17,18
 255 1391 255 1391 236.5 1385 c 128,-1,19
 218 1379 218 1379 202.5 1369 c 128,-1,20
 187 1359 187 1359 176.5 1346.5 c 128,-1,21
 166 1334 166 1334 163 1321 c 1,22,23
 165 1314 165 1314 172.5 1309 c 128,-1,24
 180 1304 180 1304 188.5 1298.5 c 128,-1,25
 197 1293 197 1293 204.5 1284.5 c 128,-1,26
 212 1276 212 1276 214 1262 c 1,27,28
 237 1262 237 1262 248.5 1245 c 128,-1,29
 260 1228 260 1228 260 1212 c 0,30,31
 260 1174 260 1174 233 1147 c 128,-1,32
 206 1120 206 1120 157 1120 c 0,33,34
 100 1120 100 1120 69.5 1153.5 c 128,-1,35
 39 1187 39 1187 39 1241 c 0,36,37
 39 1283 39 1283 60 1321.5 c 128,-1,38
 81 1360 81 1360 120 1389 c 128,-1,39
 159 1418 159 1418 213.5 1435 c 128,-1,40
 268 1452 268 1452 335 1452 c 0,41,42
 396 1452 396 1452 450.5 1436 c 128,-1,43
 505 1420 505 1420 546.5 1389 c 128,-1,44
 588 1358 588 1358 612 1312.5 c 128,-1,45
 636 1267 636 1267 636 1208 c 0,46,47
 636 1152 636 1152 611.5 1109.5 c 128,-1,48
 587 1067 587 1067 548 1030.5 c 128,-1,49
 509 994 509 994 458.5 962 c 128,-1,50
 408 930 408 930 357 896.5 c 128,-1,51
 306 863 306 863 257.5 825 c 128,-1,52
 209 787 209 787 173 739 c 1,53,-1
 383 739 l 2,54,55
 430 739 430 739 459.5 747.5 c 128,-1,56
 489 756 489 756 507 770 c 128,-1,57
 525 784 525 784 534.5 801 c 128,-1,58
 544 818 544 818 551.5 835 c 128,-1,59
 559 852 559 852 567 867.5 c 128,-1,60
 575 883 575 883 590 893 c 1,61,-1
 625 893 l 1,62,-1
 625 582 l 1,0,-1
EndSplineSet
EndChar

StartChar: threesuperior
Encoding: 179 179 117
Width: 725
Flags: W
LayerCount: 2
Fore
SplineSet
288 1391 m 1,0,1
 272 1389 272 1389 257 1383 c 128,-1,2
 242 1377 242 1377 230 1368.5 c 128,-1,3
 218 1360 218 1360 210.5 1350.5 c 128,-1,4
 203 1341 203 1341 203 1333 c 1,5,6
 245 1324 245 1324 265.5 1296.5 c 128,-1,7
 286 1269 286 1269 286 1237 c 0,8,9
 286 1191 286 1191 254.5 1167 c 128,-1,10
 223 1143 223 1143 175 1143 c 0,11,12
 130 1143 130 1143 98.5 1171.5 c 128,-1,13
 67 1200 67 1200 67 1257 c 0,14,15
 67 1291 67 1291 83 1321.5 c 128,-1,16
 99 1352 99 1352 128 1377 c 128,-1,17
 157 1402 157 1402 197.5 1420 c 128,-1,18
 238 1438 238 1438 288 1446 c 1,19,-1
 288 1391 l 1,0,1
288 564 m 1,20,21
 232 568 232 568 187 583.5 c 128,-1,22
 142 599 142 599 110.5 623.5 c 128,-1,23
 79 648 79 648 62.5 680 c 128,-1,24
 46 712 46 712 46 750 c 0,25,26
 46 807 46 807 81.5 837.5 c 128,-1,27
 117 868 117 868 171 868 c 0,28,29
 219 868 219 868 244.5 843.5 c 128,-1,30
 270 819 270 819 270 776 c 0,31,32
 270 744 270 744 260 725 c 128,-1,33
 250 706 250 706 236 696 c 128,-1,34
 222 686 222 686 205.5 683 c 128,-1,35
 189 680 189 680 177 680 c 1,36,37
 187 655 187 655 216.5 641.5 c 128,-1,38
 246 628 246 628 288 626 c 1,39,-1
 288 564 l 1,20,21
377 640 m 1,40,41
 419 661 419 661 434 706 c 128,-1,42
 449 751 449 751 449 811 c 0,43,44
 449 875 449 875 435 912.5 c 128,-1,45
 421 950 421 950 393 969 c 128,-1,46
 365 988 365 988 324.5 993.5 c 128,-1,47
 284 999 284 999 231 999 c 0,48,49
 211 999 211 999 201.5 1009 c 128,-1,50
 192 1019 192 1019 192 1032 c 0,51,52
 192 1046 192 1046 201.5 1057 c 128,-1,53
 211 1068 211 1068 231 1068 c 0,54,55
 275 1068 275 1068 312.5 1075.5 c 128,-1,56
 350 1083 350 1083 377 1101.5 c 128,-1,57
 404 1120 404 1120 419.5 1151 c 128,-1,58
 435 1182 435 1182 435 1229 c 0,59,60
 435 1328 435 1328 377 1368 c 1,61,-1
 377 1452 l 1,62,63
 436 1450 436 1450 487 1433 c 128,-1,64
 538 1416 538 1416 575.5 1387.5 c 128,-1,65
 613 1359 613 1359 634 1320.5 c 128,-1,66
 655 1282 655 1282 655 1237 c 0,67,68
 655 1186 655 1186 633 1151.5 c 128,-1,69
 611 1117 611 1117 578 1094.5 c 128,-1,70
 545 1072 545 1072 505 1059.5 c 128,-1,71
 465 1047 465 1047 429 1040 c 1,72,-1
 429 1036 l 1,73,74
 478 1031 478 1031 523.5 1018 c 128,-1,75
 569 1005 569 1005 604.5 980 c 128,-1,76
 640 955 640 955 661 916.5 c 128,-1,77
 682 878 682 878 682 821 c 0,78,79
 682 770 682 770 659.5 726 c 128,-1,80
 637 682 637 682 596.5 648.5 c 128,-1,81
 556 615 556 615 500 593.5 c 128,-1,82
 444 572 444 572 377 566 c 1,83,-1
 377 640 l 1,40,41
EndSplineSet
EndChar

StartChar: acute
Encoding: 180 180 118
Width: 641
Flags: W
LayerCount: 2
Fore
SplineSet
150 1120 m 1,0,-1
 443 1427 l 2,1,2
 478 1463 478 1463 508 1478 c 128,-1,3
 538 1493 538 1493 570 1493 c 0,4,5
 587 1493 587 1493 605 1487 c 128,-1,6
 623 1481 623 1481 637.5 1470 c 128,-1,7
 652 1459 652 1459 661.5 1443 c 128,-1,8
 671 1427 671 1427 671 1407 c 256,9,10
 671 1387 671 1387 665.5 1373 c 128,-1,11
 660 1359 660 1359 649 1347.5 c 128,-1,12
 638 1336 638 1336 622 1325.5 c 128,-1,13
 606 1315 606 1315 585 1303 c 2,14,-1
 273 1120 l 1,15,-1
 150 1120 l 1,0,-1
EndSplineSet
EndChar

StartChar: mu
Encoding: 181 181 119
Width: 1208
Flags: W
LayerCount: 2
Fore
SplineSet
466 -389 m 1,0,-1
 39 -389 l 1,1,-1
 39 -326 l 1,2,3
 56 -313 56 -313 78.5 -307.5 c 128,-1,4
 101 -302 101 -302 121 -294 c 128,-1,5
 141 -286 141 -286 155 -271.5 c 128,-1,6
 169 -257 169 -257 169 -225 c 2,7,-1
 169 811 l 2,8,9
 169 844 169 844 155 859 c 128,-1,10
 141 874 141 874 121 881.5 c 128,-1,11
 101 889 101 889 78.5 894.5 c 128,-1,12
 56 900 56 900 39 913 c 1,13,-1
 39 981 l 1,14,-1
 466 981 l 1,15,-1
 466 -389 l 1,0,-1
555 109 m 1,16,17
 570 104 570 104 592 104 c 0,18,19
 622 104 622 104 646 116.5 c 128,-1,20
 670 129 670 129 689.5 151.5 c 128,-1,21
 709 174 709 174 723.5 204.5 c 128,-1,22
 738 235 738 235 748 270 c 1,23,-1
 748 811 l 2,24,25
 748 843 748 843 734.5 858.5 c 128,-1,26
 721 874 721 874 701 881.5 c 128,-1,27
 681 889 681 889 658.5 894.5 c 128,-1,28
 636 900 636 900 617 913 c 1,29,-1
 617 981 l 1,30,-1
 1045 981 l 1,31,-1
 1045 168 l 2,32,33
 1045 136 1045 136 1059 121.5 c 128,-1,34
 1073 107 1073 107 1093 99.5 c 128,-1,35
 1113 92 1113 92 1135.5 86.5 c 128,-1,36
 1158 81 1158 81 1175 68 c 1,37,-1
 1175 0 l 1,38,-1
 767 0 l 1,39,-1
 767 94 l 1,40,41
 725 52 725 52 675.5 20.5 c 128,-1,42
 626 -11 626 -11 555 -22 c 1,43,-1
 555 109 l 1,16,17
EndSplineSet
EndChar

StartChar: paragraph
Encoding: 182 182 120
Width: 1406
Flags: W
LayerCount: 2
Fore
SplineSet
733 -287 m 1,0,-1
 500 -287 l 1,1,-1
 500 580 l 1,2,3
 418 580 418 580 348.5 609 c 128,-1,4
 279 638 279 638 228 692.5 c 128,-1,5
 177 747 177 747 148.5 824.5 c 128,-1,6
 120 902 120 902 120 999 c 0,7,8
 120 1214 120 1214 238 1317.5 c 128,-1,9
 356 1421 356 1421 594 1421 c 2,10,-1
 733 1421 l 1,11,-1
 733 -287 l 1,0,-1
822 1421 m 1,12,-1
 1242 1421 l 1,13,-1
 1242 1364 l 1,14,15
 1203 1362 1203 1362 1168.5 1354 c 128,-1,16
 1134 1346 1134 1346 1108.5 1329 c 128,-1,17
 1083 1312 1083 1312 1068.5 1284.5 c 128,-1,18
 1054 1257 1054 1257 1054 1217 c 2,19,-1
 1054 -287 l 1,20,-1
 822 -287 l 1,21,-1
 822 1421 l 1,12,-1
EndSplineSet
EndChar

StartChar: periodcentered
Encoding: 183 183 121
Width: 576
Flags: W
LayerCount: 2
Fore
SplineSet
101 489 m 256,0,1
 101 523 101 523 115.5 553.5 c 128,-1,2
 130 584 130 584 155.5 606.5 c 128,-1,3
 181 629 181 629 215 642 c 128,-1,4
 249 655 249 655 288 655 c 0,5,6
 326 655 326 655 360 642 c 128,-1,7
 394 629 394 629 419.5 606.5 c 128,-1,8
 445 584 445 584 460 553.5 c 128,-1,9
 475 523 475 523 475 489 c 256,10,11
 475 455 475 455 460 425 c 128,-1,12
 445 395 445 395 419.5 372.5 c 128,-1,13
 394 350 394 350 360 337 c 128,-1,14
 326 324 326 324 288 324 c 0,15,16
 249 324 249 324 215 337 c 128,-1,17
 181 350 181 350 155.5 372.5 c 128,-1,18
 130 395 130 395 115.5 425 c 128,-1,19
 101 455 101 455 101 489 c 256,0,1
EndSplineSet
EndChar

StartChar: cedilla
Encoding: 184 184 122
Width: 641
Flags: W
LayerCount: 2
Fore
SplineSet
339 -2 m 1,0,-1
 270 -135 l 1,1,2
 303 -125 303 -125 343 -125 c 0,3,4
 386 -125 386 -125 424 -133.5 c 128,-1,5
 462 -142 462 -142 490 -159.5 c 128,-1,6
 518 -177 518 -177 534 -204 c 128,-1,7
 550 -231 550 -231 550 -268 c 0,8,9
 550 -311 550 -311 527.5 -344.5 c 128,-1,10
 505 -378 505 -378 465 -401.5 c 128,-1,11
 425 -425 425 -425 370 -437 c 128,-1,12
 315 -449 315 -449 251 -449 c 0,13,14
 180 -449 180 -449 131 -439 c 128,-1,15
 82 -429 82 -429 35 -414 c 1,16,-1
 71 -340 l 1,17,18
 106 -355 106 -355 139 -363 c 128,-1,19
 172 -371 172 -371 207 -371 c 0,20,21
 273 -371 273 -371 310.5 -348.5 c 128,-1,22
 348 -326 348 -326 348 -283 c 0,23,24
 348 -245 348 -245 319 -224 c 128,-1,25
 290 -203 290 -203 247 -203 c 0,26,27
 222 -203 222 -203 205 -207.5 c 128,-1,28
 188 -212 188 -212 171 -217 c 1,29,-1
 145 -201 l 1,30,-1
 244 -2 l 1,31,-1
 339 -2 l 1,0,-1
EndSplineSet
EndChar

StartChar: onesuperior
Encoding: 185 185 123
Width: 682
Flags: W
LayerCount: 2
Fore
SplineSet
158 1293 m 1,0,1
 142 1301 142 1301 117 1303 c 128,-1,2
 92 1305 92 1305 53 1307 c 1,3,-1
 53 1366 l 1,4,5
 81 1368 81 1368 107 1373 c 128,-1,6
 133 1378 133 1378 158 1383 c 1,7,-1
 158 1293 l 1,0,1
247 1400 m 1,8,9
 279 1408 279 1408 306 1418 c 128,-1,10
 333 1428 333 1428 362 1442 c 1,11,-1
 463 1442 l 1,12,-1
 463 721 l 2,13,14
 463 691 463 691 480 676.5 c 128,-1,15
 497 662 497 662 521.5 654.5 c 128,-1,16
 546 647 546 647 573.5 643.5 c 128,-1,17
 601 640 601 640 623 633 c 1,18,-1
 623 582 l 1,19,-1
 75 582 l 1,20,-1
 75 633 l 1,21,22
 100 640 100 640 130 644 c 128,-1,23
 160 648 160 648 186 655.5 c 128,-1,24
 212 663 212 663 229.5 677.5 c 128,-1,25
 247 692 247 692 247 721 c 2,26,-1
 247 1400 l 1,8,9
EndSplineSet
EndChar

StartChar: ordmasculine
Encoding: 186 186 124
Width: 964
Flags: W
LayerCount: 2
Fore
SplineSet
443 645 m 1,0,1
 359 652 359 652 289 685.5 c 128,-1,2
 219 719 219 719 168.5 772.5 c 128,-1,3
 118 826 118 826 89.5 896.5 c 128,-1,4
 61 967 61 967 61 1047 c 256,5,6
 61 1127 61 1127 90 1197 c 128,-1,7
 119 1267 119 1267 170 1320.5 c 128,-1,8
 221 1374 221 1374 291 1408 c 128,-1,9
 361 1442 361 1442 443 1450 c 1,10,-1
 443 1372 l 1,11,12
 393 1345 393 1345 370.5 1260 c 128,-1,13
 348 1175 348 1175 348 1049 c 0,14,15
 348 922 348 922 370.5 836.5 c 128,-1,16
 393 751 393 751 443 724 c 1,17,-1
 443 645 l 1,0,1
532 1450 m 1,18,19
 614 1443 614 1443 684 1409.5 c 128,-1,20
 754 1376 754 1376 804.5 1322.5 c 128,-1,21
 855 1269 855 1269 883.5 1198.5 c 128,-1,22
 912 1128 912 1128 912 1047 c 0,23,24
 912 967 912 967 883.5 896.5 c 128,-1,25
 855 826 855 826 804.5 772.5 c 128,-1,26
 754 719 754 719 684 685.5 c 128,-1,27
 614 652 614 652 532 645 c 1,28,-1
 532 724 l 1,29,30
 581 751 581 751 603.5 836.5 c 128,-1,31
 626 922 626 922 626 1049 c 0,32,33
 626 1177 626 1177 603.5 1261 c 128,-1,34
 581 1345 581 1345 532 1372 c 1,35,-1
 532 1450 l 1,18,19
EndSplineSet
EndChar

StartChar: guillemotright
Encoding: 187 187 125
Width: 1108
Flags: W
LayerCount: 2
Fore
SplineSet
668 137 m 1,0,1
 639 131 639 131 614 129 c 128,-1,2
 589 127 589 127 565 127 c 0,3,4
 557 127 557 127 552.5 132 c 128,-1,5
 548 137 548 137 548 143 c 1,6,7
 554 167 554 167 570 197.5 c 128,-1,8
 586 228 586 228 607 261.5 c 128,-1,9
 628 295 628 295 651 329 c 128,-1,10
 674 363 674 363 694.5 393.5 c 128,-1,11
 715 424 715 424 730.5 449 c 128,-1,12
 746 474 746 474 751 489 c 1,13,14
 746 504 746 504 730 530 c 128,-1,15
 714 556 714 556 692.5 587.5 c 128,-1,16
 671 619 671 619 647.5 653.5 c 128,-1,17
 624 688 624 688 604.5 720.5 c 128,-1,18
 585 753 585 753 572 781 c 128,-1,19
 559 809 559 809 559 827 c 0,20,21
 559 835 559 835 560 842 c 128,-1,22
 561 849 561 849 565 854 c 1,23,24
 615 854 615 854 668 844 c 1,25,-1
 998 520 l 1,26,-1
 1011 485 l 1,27,-1
 668 137 l 1,0,1
274 137 m 1,28,29
 245 131 245 131 220 129 c 128,-1,30
 195 127 195 127 171 127 c 0,31,32
 162 127 162 127 158 132 c 128,-1,33
 154 137 154 137 154 143 c 1,34,35
 160 167 160 167 176 197.5 c 128,-1,36
 192 228 192 228 213 261.5 c 128,-1,37
 234 295 234 295 257 329 c 128,-1,38
 280 363 280 363 300.5 393.5 c 128,-1,39
 321 424 321 424 336.5 449 c 128,-1,40
 352 474 352 474 357 489 c 1,41,42
 352 503 352 503 335.5 528.5 c 128,-1,43
 319 554 319 554 297.5 585 c 128,-1,44
 276 616 276 616 252 650.5 c 128,-1,45
 228 685 228 685 208 717 c 128,-1,46
 188 749 188 749 175 777 c 128,-1,47
 162 805 162 805 162 823 c 0,48,49
 162 832 162 832 164 840.5 c 128,-1,50
 166 849 166 849 171 854 c 1,51,52
 221 854 221 854 274 844 c 1,53,-1
 604 520 l 1,54,-1
 617 485 l 1,55,-1
 274 137 l 1,28,29
EndSplineSet
EndChar

StartChar: onequarter
Encoding: 188 188 126
Width: 1729
Flags: W
LayerCount: 2
Fore
SplineSet
1641 305 m 1,0,-1
 1641 225 l 1,1,-1
 1509 225 l 1,2,-1
 1509 127 l 2,3,4
 1509 101 1509 101 1519 88.5 c 128,-1,5
 1529 76 1529 76 1544 70.5 c 128,-1,6
 1559 65 1559 65 1576.5 62 c 128,-1,7
 1594 59 1594 59 1609 51 c 1,8,-1
 1609 0 l 1,9,-1
 1187 0 l 1,10,-1
 1187 51 l 1,11,12
 1205 59 1205 59 1224 63 c 128,-1,13
 1243 67 1243 67 1258 73.5 c 128,-1,14
 1273 80 1273 80 1283 92.5 c 128,-1,15
 1293 105 1293 105 1293 131 c 2,16,-1
 1293 225 l 1,17,-1
 959 225 l 1,18,-1
 959 305 l 1,19,-1
 1374 858 l 1,20,-1
 1509 858 l 1,21,-1
 1509 305 l 1,22,-1
 1641 305 l 1,0,-1
1293 610 m 1,23,-1
 1289 610 l 1,24,-1
 1065 305 l 1,25,-1
 1293 305 l 1,26,-1
 1293 610 l 1,23,-1
497 -31 m 1,27,-1
 297 -31 l 1,28,-1
 1256 1452 l 1,29,-1
 1454 1452 l 1,30,-1
 497 -31 l 1,27,-1
158 1293 m 1,31,32
 142 1301 142 1301 117 1303 c 128,-1,33
 92 1305 92 1305 53 1307 c 1,34,-1
 53 1366 l 1,35,36
 81 1368 81 1368 107 1373 c 128,-1,37
 133 1378 133 1378 158 1383 c 1,38,-1
 158 1293 l 1,31,32
247 1400 m 1,39,40
 279 1408 279 1408 306 1418 c 128,-1,41
 333 1428 333 1428 362 1442 c 1,42,-1
 463 1442 l 1,43,-1
 463 721 l 2,44,45
 463 691 463 691 480 676.5 c 128,-1,46
 497 662 497 662 521.5 654.5 c 128,-1,47
 546 647 546 647 573.5 643.5 c 128,-1,48
 601 640 601 640 623 633 c 1,49,-1
 623 582 l 1,50,-1
 75 582 l 1,51,-1
 75 633 l 1,52,53
 100 640 100 640 130 644 c 128,-1,54
 160 648 160 648 186 655.5 c 128,-1,55
 212 663 212 663 229.5 677.5 c 128,-1,56
 247 692 247 692 247 721 c 2,57,-1
 247 1400 l 1,39,40
EndSplineSet
EndChar

StartChar: onehalf
Encoding: 189 189 127
Width: 1729
Flags: W
LayerCount: 2
Fore
SplineSet
1645 0 m 1,0,-1
 1055 0 l 1,1,2
 1055 24 1055 24 1056.5 43.5 c 128,-1,3
 1058 63 1058 63 1062 81.5 c 128,-1,4
 1066 100 1066 100 1073.5 118.5 c 128,-1,5
 1081 137 1081 137 1093 158 c 1,6,7
 1162 236 1162 236 1227.5 304.5 c 128,-1,8
 1293 373 1293 373 1351 440 c 0,9,10
 1402 500 1402 500 1418 548.5 c 128,-1,11
 1434 597 1434 597 1434 641 c 0,12,13
 1434 672 1434 672 1426 702 c 128,-1,14
 1418 732 1418 732 1400.5 756 c 128,-1,15
 1383 780 1383 780 1356.5 794.5 c 128,-1,16
 1330 809 1330 809 1293 809 c 0,17,18
 1275 809 1275 809 1256.5 803 c 128,-1,19
 1238 797 1238 797 1222.5 787 c 128,-1,20
 1207 777 1207 777 1196.5 764.5 c 128,-1,21
 1186 752 1186 752 1185 739 c 1,22,23
 1186 732 1186 732 1193 727.5 c 128,-1,24
 1200 723 1200 723 1208 717.5 c 128,-1,25
 1216 712 1216 712 1223.5 703.5 c 128,-1,26
 1231 695 1231 695 1233 680 c 1,27,28
 1256 680 1256 680 1269 663 c 128,-1,29
 1282 646 1282 646 1282 631 c 0,30,31
 1282 593 1282 593 1254 566 c 128,-1,32
 1226 539 1226 539 1178 539 c 0,33,34
 1121 539 1121 539 1090.5 573 c 128,-1,35
 1060 607 1060 607 1060 659 c 0,36,37
 1060 701 1060 701 1081 739.5 c 128,-1,38
 1102 778 1102 778 1140 807 c 128,-1,39
 1178 836 1178 836 1232.5 853 c 128,-1,40
 1287 870 1287 870 1355 870 c 0,41,42
 1416 870 1416 870 1471.5 854 c 128,-1,43
 1527 838 1527 838 1568 807.5 c 128,-1,44
 1609 777 1609 777 1633.5 731.5 c 128,-1,45
 1658 686 1658 686 1658 627 c 0,46,47
 1658 571 1658 571 1633.5 528 c 128,-1,48
 1609 485 1609 485 1569 448.5 c 128,-1,49
 1529 412 1529 412 1479 379.5 c 128,-1,50
 1429 347 1429 347 1377 313.5 c 128,-1,51
 1325 280 1325 280 1276.5 242.5 c 128,-1,52
 1228 205 1228 205 1192 158 c 1,53,-1
 1401 158 l 2,54,55
 1448 158 1448 158 1477.5 166.5 c 128,-1,56
 1507 175 1507 175 1525.5 188.5 c 128,-1,57
 1544 202 1544 202 1553.5 219.5 c 128,-1,58
 1563 237 1563 237 1571 254 c 128,-1,59
 1579 271 1579 271 1587.5 286 c 128,-1,60
 1596 301 1596 301 1612 311 c 1,61,-1
 1660 311 l 1,62,-1
 1645 0 l 1,0,-1
494 -31 m 1,63,-1
 292 -31 l 1,64,-1
 1251 1452 l 1,65,-1
 1450 1452 l 1,66,-1
 494 -31 l 1,63,-1
108 1293 m 1,67,68
 92 1301 92 1301 67 1303 c 128,-1,69
 42 1305 42 1305 3 1307 c 1,70,-1
 3 1366 l 1,71,72
 31 1368 31 1368 57 1373 c 128,-1,73
 83 1378 83 1378 108 1383 c 1,74,-1
 108 1293 l 1,67,68
197 1400 m 1,75,76
 229 1408 229 1408 256 1418 c 128,-1,77
 283 1428 283 1428 312 1442 c 1,78,-1
 413 1442 l 1,79,-1
 413 721 l 2,80,81
 413 691 413 691 430 676.5 c 128,-1,82
 447 662 447 662 471.5 654.5 c 128,-1,83
 496 647 496 647 523.5 643.5 c 128,-1,84
 551 640 551 640 573 633 c 1,85,-1
 573 582 l 1,86,-1
 25 582 l 1,87,-1
 25 633 l 1,88,89
 50 640 50 640 80 644 c 128,-1,90
 110 648 110 648 136 655.5 c 128,-1,91
 162 663 162 663 179.5 677.5 c 128,-1,92
 197 692 197 692 197 721 c 2,93,-1
 197 1400 l 1,75,76
EndSplineSet
EndChar

StartChar: threequarters
Encoding: 190 190 128
Width: 1729
Flags: W
LayerCount: 2
Fore
SplineSet
1676 305 m 1,0,-1
 1676 225 l 1,1,-1
 1544 225 l 1,2,-1
 1544 127 l 2,3,4
 1544 101 1544 101 1554 88.5 c 128,-1,5
 1564 76 1564 76 1579 70.5 c 128,-1,6
 1594 65 1594 65 1611 62 c 128,-1,7
 1628 59 1628 59 1643 51 c 1,8,-1
 1643 0 l 1,9,-1
 1221 0 l 1,10,-1
 1221 51 l 1,11,12
 1239 59 1239 59 1258 63 c 128,-1,13
 1277 67 1277 67 1292.5 73.5 c 128,-1,14
 1308 80 1308 80 1318 92.5 c 128,-1,15
 1328 105 1328 105 1328 131 c 2,16,-1
 1328 225 l 1,17,-1
 993 225 l 1,18,-1
 993 305 l 1,19,-1
 1408 858 l 1,20,-1
 1544 858 l 1,21,-1
 1544 305 l 1,22,-1
 1676 305 l 1,0,-1
537 -31 m 1,23,-1
 337 -31 l 1,24,-1
 1295 1452 l 1,25,-1
 1493 1452 l 1,26,-1
 537 -31 l 1,23,-1
231 999 m 1,27,28
 218 1009 218 1009 208 1020.5 c 128,-1,29
 198 1032 198 1032 198 1049 c 1,30,31
 207 1063 207 1063 229 1065.5 c 128,-1,32
 251 1068 251 1068 276 1068 c 2,33,-1
 303 1068 l 2,34,35
 319 1068 319 1068 342 1075.5 c 128,-1,36
 365 1083 365 1083 385.5 1101.5 c 128,-1,37
 406 1120 406 1120 420.5 1151 c 128,-1,38
 435 1182 435 1182 435 1229 c 0,39,40
 435 1304 435 1304 400.5 1347.5 c 128,-1,41
 366 1391 366 1391 297 1391 c 0,42,43
 274 1391 274 1391 260 1379.5 c 128,-1,44
 246 1368 246 1368 237 1354 c 1,45,46
 223 1354 223 1354 213 1350 c 128,-1,47
 203 1346 203 1346 203 1333 c 1,48,49
 204 1329 204 1329 210.5 1325.5 c 128,-1,50
 217 1322 217 1322 224.5 1317 c 128,-1,51
 232 1312 232 1312 239 1304 c 128,-1,52
 246 1296 246 1296 249 1284 c 1,53,54
 265 1284 265 1284 275.5 1270 c 128,-1,55
 286 1256 286 1256 286 1237 c 0,56,57
 286 1191 286 1191 254.5 1167 c 128,-1,58
 223 1143 223 1143 175 1143 c 0,59,60
 130 1143 130 1143 98.5 1171.5 c 128,-1,61
 67 1200 67 1200 67 1257 c 0,62,63
 67 1296 67 1296 88.5 1331.5 c 128,-1,64
 110 1367 110 1367 149 1394 c 128,-1,65
 188 1421 188 1421 241.5 1436.5 c 128,-1,66
 295 1452 295 1452 359 1452 c 0,67,68
 421 1452 421 1452 475 1436 c 128,-1,69
 529 1420 529 1420 569 1391.5 c 128,-1,70
 609 1363 609 1363 632 1323.5 c 128,-1,71
 655 1284 655 1284 655 1237 c 0,72,73
 655 1186 655 1186 633 1151.5 c 128,-1,74
 611 1117 611 1117 578 1094.5 c 128,-1,75
 545 1072 545 1072 505 1059.5 c 128,-1,76
 465 1047 465 1047 429 1040 c 1,77,-1
 429 1036 l 1,78,79
 478 1031 478 1031 523.5 1018 c 128,-1,80
 569 1005 569 1005 604.5 980 c 128,-1,81
 640 955 640 955 661 916.5 c 128,-1,82
 682 878 682 878 682 821 c 256,83,84
 682 764 682 764 655 717 c 128,-1,85
 628 670 628 670 580 635.5 c 128,-1,86
 532 601 532 601 465.5 582 c 128,-1,87
 399 563 399 563 321 563 c 0,88,89
 258 563 258 563 207 577 c 128,-1,90
 156 591 156 591 120 616 c 128,-1,91
 84 641 84 641 65 675 c 128,-1,92
 46 709 46 709 46 750 c 0,93,94
 46 807 46 807 81.5 837.5 c 128,-1,95
 117 868 117 868 171 868 c 0,96,97
 219 868 219 868 244.5 843.5 c 128,-1,98
 270 819 270 819 270 776 c 0,99,100
 270 744 270 744 257.5 726.5 c 128,-1,101
 245 709 245 709 228.5 700 c 128,-1,102
 212 691 212 691 197 687.5 c 128,-1,103
 182 684 182 684 177 680 c 1,104,105
 186 652 186 652 215 638.5 c 128,-1,106
 244 625 244 625 286 625 c 0,107,108
 333 625 333 625 364.5 639 c 128,-1,109
 396 653 396 653 414.5 678 c 128,-1,110
 433 703 433 703 441 737 c 128,-1,111
 449 771 449 771 449 811 c 0,112,113
 449 865 449 865 438 901 c 128,-1,114
 427 937 427 937 405.5 959 c 128,-1,115
 384 981 384 981 352.5 990 c 128,-1,116
 321 999 321 999 280 999 c 2,117,-1
 231 999 l 1,27,28
1328 610 m 1,118,-1
 1324 610 l 1,119,-1
 1099 305 l 1,120,-1
 1328 305 l 1,121,-1
 1328 610 l 1,118,-1
EndSplineSet
EndChar

StartChar: Eth
Encoding: 208 208 146
Width: 1515
Flags: W
LayerCount: 2
Fore
SplineSet
64 0 m 1,0,-1
 64 74 l 1,1,2
 91 85 91 85 116.5 90.5 c 128,-1,3
 142 96 142 96 162.5 106 c 128,-1,4
 183 116 183 116 195 134.5 c 128,-1,5
 207 153 207 153 207 190 c 2,6,-1
 207 675 l 1,7,-1
 0 675 l 1,8,-1
 0 776 l 1,9,-1
 207 776 l 1,10,-1
 207 1229 l 2,11,12
 207 1266 207 1266 195 1285 c 128,-1,13
 183 1304 183 1304 162.5 1314 c 128,-1,14
 142 1324 142 1324 116.5 1329.5 c 128,-1,15
 91 1335 91 1335 64 1346 c 1,16,-1
 64 1421 l 1,17,-1
 539 1421 l 1,18,-1
 539 776 l 1,19,-1
 736 776 l 1,20,-1
 736 675 l 1,21,-1
 539 675 l 1,22,-1
 539 0 l 1,23,-1
 64 0 l 1,0,-1
628 100 m 1,24,25
 644 98 644 98 663 97 c 128,-1,26
 682 96 682 96 699 96 c 0,27,28
 796 96 796 96 865.5 126.5 c 128,-1,29
 935 157 935 157 980 229 c 128,-1,30
 1025 301 1025 301 1046 419 c 128,-1,31
 1067 537 1067 537 1067 711 c 0,32,33
 1067 870 1067 870 1046 986 c 128,-1,34
 1025 1102 1025 1102 981 1177 c 128,-1,35
 937 1252 937 1252 868 1288.5 c 128,-1,36
 799 1325 799 1325 703 1325 c 0,37,38
 682 1325 682 1325 662 1324 c 128,-1,39
 642 1323 642 1323 628 1321 c 1,40,-1
 628 1421 l 1,41,-1
 726 1421 l 2,42,43
 851 1421 851 1421 952.5 1393.5 c 128,-1,44
 1054 1366 1054 1366 1133 1317 c 128,-1,45
 1212 1268 1212 1268 1269.5 1201 c 128,-1,46
 1327 1134 1327 1134 1364.5 1055 c 128,-1,47
 1402 976 1402 976 1420 888.5 c 128,-1,48
 1438 801 1438 801 1438 711 c 0,49,50
 1438 567 1438 567 1394.5 438 c 128,-1,51
 1351 309 1351 309 1263.5 211.5 c 128,-1,52
 1176 114 1176 114 1044.5 57 c 128,-1,53
 913 0 913 0 737 0 c 2,54,-1
 628 0 l 1,55,-1
 628 100 l 1,24,25
EndSplineSet
EndChar

StartChar: multiply
Encoding: 215 215 153
Width: 1383
Flags: W
LayerCount: 2
Fore
SplineSet
139 827 m 1,0,-1
 311 981 l 1,1,-1
 691 643 l 1,2,-1
 1072 981 l 1,3,-1
 1243 827 l 1,4,-1
 863 489 l 1,5,-1
 1243 152 l 1,6,-1
 1072 0 l 1,7,-1
 691 338 l 1,8,-1
 311 0 l 1,9,-1
 139 152 l 1,10,-1
 521 489 l 1,11,-1
 139 827 l 1,0,-1
EndSplineSet
EndChar

